<svg xmlns="http://www.w3.org/2000/svg" width="29.5" height="29.5" viewBox="0 0 29.5 29.5"><defs><style>.a{fill:#fff;}</style></defs><g transform="translate(-1 -1)"><path class="a" d="M7.661,5.758h1.9v8.565h7.613v-.952H10.516V4.806H7.661V1H1V9.565H7.661ZM6.71,8.613H1.952V1.952H6.71Z" transform="translate(0 0)"/><path class="a" d="M7.661,27.758h9.516v-.952H7.661V23H1v8.565H7.661ZM6.71,30.613H1.952V23.952H6.71Z" transform="translate(0 -11.532)"/><path class="a" d="M47.468,24.939,46.3,24.55l.551-1.1-1.831-1.831-1.1.551L43.529,21H40.94l-.39,1.168-1.1-.551-1.831,1.831.551,1.1L37,24.939v2.589l1.169.389-.551,1.1,1.831,1.831,1.1-.551.39,1.169h2.589l.39-1.168,1.1.551,1.831-1.831-.551-1.1,1.169-.389Zm-.952,1.9-1.093.364-.08.212c-.023.06-.047.12-.073.178l-.092.206.514,1.029-.861.861L43.8,29.178l-.206.092c-.059.027-.119.05-.18.074l-.21.08-.364,1.091H41.625l-.364-1.091-.21-.08c-.061-.024-.121-.048-.18-.074l-.206-.092-1.029.514-.861-.861L39.29,27.8,39.2,27.6c-.026-.059-.05-.118-.073-.178l-.08-.212-1.093-.364V25.625l1.093-.364.08-.212c.023-.06.047-.12.073-.178l.092-.206-.514-1.029.861-.861,1.029.514.206-.092c.059-.027.119-.05.18-.074l.21-.08.364-1.091h1.218l.364,1.091.21.08c.061.024.121.048.18.074l.206.092,1.029-.514.861.861-.514,1.029.092.206c.026.059.05.118.073.178l.08.212,1.093.364Z" transform="translate(-18.871 -10.484)"/><path class="a" d="M45.379,27a2.379,2.379,0,1,0,2.379,2.379A2.382,2.382,0,0,0,45.379,27Zm0,3.806a1.427,1.427,0,1,1,1.427-1.427A1.429,1.429,0,0,1,45.379,30.806Z" transform="translate(-22.016 -13.629)"/><path class="a" d="M30.037,1,25,6.037v6.382h.952V6.71H30.71V1.952H42.129v27.6H25.952V19.081H25V30.5H43.081V1ZM26.624,5.758l3.134-3.134V5.758Z" transform="translate(-12.581 0)"/><path class="a" d="M48.516,5H39V8.806h9.516Zm-.952,2.855H39.952v-1.9h7.613Z" transform="translate(-19.919 -2.097)"/><path class="a" d="M29,15h.952v.952H29Z" transform="translate(-14.677 -7.339)"/><path class="a" d="M33,15H45.371v.952H33Z" transform="translate(-16.774 -7.339)"/><path class="a" d="M55.855,55.855V53H53v2.855Zm-1.9-1.9H54.9V54.9h-.952Z" transform="translate(-27.258 -27.258)"/><path class="a" d="M47.855,55.855V53H45v2.855Zm-1.9-1.9H46.9V54.9h-.952Z" transform="translate(-23.065 -27.258)"/><path class="a" d="M39.855,55.855V53H37v2.855Zm-1.9-1.9H38.9V54.9h-.952Z" transform="translate(-18.871 -27.258)"/><path class="a" d="M29,55.855h2.855V53H29Zm.952-1.9H30.9V54.9h-.952Z" transform="translate(-14.677 -27.258)"/><path class="a" d="M29,49h.952v.952H29Z" transform="translate(-14.677 -25.161)"/><path class="a" d="M33,49H45.371v.952H33Z" transform="translate(-16.774 -25.161)"/><path class="a" d="M29,45H43.274v.952H29Z" transform="translate(-14.677 -23.065)"/><path class="a" d="M5,49H7.855v.952H5Z" transform="translate(-2.097 -25.161)"/><path class="a" d="M5,53H7.855v.952H5Z" transform="translate(-2.097 -27.258)"/><path class="a" d="M5,57H7.855v.952H5Z" transform="translate(-2.097 -29.355)"/><path class="a" d="M5,27H7.855v.952H5Z" transform="translate(-2.097 -13.629)"/><path class="a" d="M5,31H7.855v.952H5Z" transform="translate(-2.097 -15.726)"/><path class="a" d="M5,35H7.855v.952H5Z" transform="translate(-2.097 -17.823)"/><path class="a" d="M5,5H7.855v.952H5Z" transform="translate(-2.097 -2.097)"/><path class="a" d="M5,9H7.855v.952H5Z" transform="translate(-2.097 -4.194)"/><path class="a" d="M5,13H7.855v.952H5Z" transform="translate(-2.097 -6.29)"/><path class="a" d="M17.177,35H9.565v8.565h-1.9V39.758H1v8.565H7.661V44.516h2.855V35.952h6.661ZM6.71,47.371H1.952V40.71H6.71Z" transform="translate(0 -17.823)"/></g></svg>