<svg width="39" height="64" viewBox="0 0 39 64" fill="none" xmlns="http://www.w3.org/2000/svg">
<path d="M0.639743 7.21429H39V53.3064H0.639743V7.21429Z" fill="#D4FFE8"/>
<path d="M0.639743 7.21429H6.60248V53.3064H0.639743V7.21429Z" fill="#D4FFE8"/>
<path d="M19.8001 41.4093C26.3315 41.4093 31.6262 36.4979 31.6262 30.4394C31.6262 24.3809 26.3315 19.4695 19.8001 19.4695C13.2688 19.4695 7.97405 24.3809 7.97405 30.4394C7.97405 36.4979 13.2688 41.4093 19.8001 41.4093Z" fill="#56F49F"/>
<path d="M39.0001 52.9656V58.7511C38.9998 60.1431 38.4036 61.478 37.3424 62.4624C36.2813 63.4467 34.8421 63.9998 33.3415 64H6.26072C4.75973 64.0002 3.32014 63.4473 2.25859 62.4629C1.19704 61.4786 0.600467 60.1434 0.600098 58.7511V52.9656H39.0001Z" fill="#56F49F"/>
<path d="M19.7999 60.2328C21.1249 60.2328 22.199 59.2365 22.199 58.0075C22.199 56.7785 21.1249 55.7822 19.7999 55.7822C18.475 55.7822 17.4009 56.7785 17.4009 58.0075C17.4009 59.2365 18.475 60.2328 19.7999 60.2328Z" fill="#56F49F"/>
<path d="M39.0001 5.24897V7.67895H0.600098V5.24897C0.600467 3.85664 1.19704 2.52147 2.25859 1.53711C3.32014 0.552763 4.75973 -0.000146692 6.26072 2.91932e-08H33.3415C34.8421 0.000244439 36.2813 0.553338 37.3424 1.53766C38.4036 2.52198 38.9998 3.85693 39.0001 5.24897Z" fill="#56F49F"/>
<path d="M6.60257 58.7505V52.9373H0.639837V58.7505C0.635569 59.4379 0.777769 60.1194 1.05827 60.7557C1.33876 61.3921 1.75203 61.9707 2.27434 62.4585C2.79664 62.9462 3.41767 63.3334 4.10178 63.5979C4.78589 63.8623 5.51958 63.9988 6.26071 63.9994H12.2234C11.4823 63.9988 10.7486 63.8623 10.0645 63.5979C9.38041 63.3334 8.75937 62.9462 8.23707 62.4585C7.71477 61.9707 7.3015 61.3921 7.021 60.7557C6.7405 60.1194 6.5983 59.4379 6.60257 58.7505Z" fill="#56F49F"/>
<path d="M6.60254 5.24895C6.59887 4.56277 6.74166 3.8827 7.02268 3.24796C7.30371 2.61321 7.71741 2.03635 8.23994 1.55063C8.76246 1.06491 9.38347 0.679938 10.0672 0.417913C10.7508 0.155888 11.4837 0.0219918 12.2234 0.0239469H6.26068C5.52094 0.0219918 4.7881 0.155888 4.10442 0.417913C3.42073 0.679938 2.79973 1.06491 2.2772 1.55063C1.75468 2.03635 1.34098 2.61321 1.05995 3.24796C0.778927 3.8827 0.636137 4.56277 0.639812 5.24895V7.76742H6.60254V5.24895Z" fill="#56F49F"/>
<path d="M13.9366 30.4394C13.937 28.0113 14.8054 25.6519 16.4058 23.7306C18.0063 21.8092 20.2485 20.4345 22.7813 19.8216C21.0331 19.4005 19.2041 19.3565 17.4346 19.6929C15.6651 20.0293 14.0022 20.7372 12.5735 21.7623C11.1448 22.7874 9.98815 24.1024 9.1924 25.6066C8.39665 27.1107 7.98291 28.7639 7.98291 30.4394C7.98291 32.1149 8.39665 33.7681 9.1924 35.2722C9.98815 36.7764 11.1448 38.0914 12.5735 39.1165C14.0022 40.1416 15.6651 40.8495 17.4346 41.1859C19.2041 41.5223 21.0331 41.4783 22.7813 41.0572C20.2485 40.4443 18.0064 39.0695 16.4059 37.1482C14.8054 35.2269 13.937 32.8675 13.9366 30.4394Z" fill="#56F49F"/>
<path d="M17.8891 35.4345C17.5777 35.4349 17.2786 35.3219 17.0561 35.1197L12.2871 30.8016C12.0632 30.5962 11.9359 30.3169 11.9332 30.0248C11.9304 29.7327 12.0524 29.4514 12.2724 29.2423C12.4924 29.0333 12.7927 28.9135 13.1076 28.909C13.4225 28.9046 13.7265 29.0159 13.9533 29.2187L17.8887 32.7823L25.646 25.7579C25.8728 25.5551 26.1768 25.4438 26.4917 25.4482C26.8066 25.4527 27.1069 25.5725 27.3269 25.7815C27.5469 25.9906 27.6689 26.2719 27.6661 26.564C27.6634 26.8562 27.5361 27.1354 27.3122 27.3409L18.7219 35.1212C18.4992 35.3227 18.2002 35.4352 17.8891 35.4345Z" fill="#D4FFE8"/>
<path d="M5.22618 12.9581C4.9099 12.9581 4.60657 12.8416 4.38292 12.6341C4.15928 12.4267 4.03363 12.1453 4.03363 11.8519V11.3016C4.03363 11.0082 4.15928 10.7268 4.38292 10.5194C4.60657 10.3119 4.9099 10.1954 5.22618 10.1954C5.54246 10.1954 5.84579 10.3119 6.06944 10.5194C6.29308 10.7268 6.41873 11.0082 6.41873 11.3016V11.8519C6.41873 12.1453 6.29308 12.4267 6.06944 12.6341C5.84579 12.8416 5.54246 12.9581 5.22618 12.9581Z" fill="#D4FFE8"/>
<path d="M5.22618 26.2044C4.9099 26.2044 4.60657 26.0879 4.38292 25.8804C4.15928 25.673 4.03363 25.3916 4.03363 25.0982V15.4121C4.03363 15.1187 4.15928 14.8373 4.38292 14.6298C4.60657 14.4224 4.9099 14.3058 5.22618 14.3058C5.54246 14.3058 5.84579 14.4224 6.06944 14.6298C6.29308 14.8373 6.41873 15.1187 6.41873 15.4121V25.0982C6.41873 25.3916 6.29308 25.673 6.06944 25.8804C5.84579 26.0879 5.54246 26.2044 5.22618 26.2044Z" fill="#D4FFE8"/>
</svg>
