<?xml version="1.0" encoding="iso-8859-1"?>
<!-- Generator: Adobe Illustrator 19.0.0, SVG Export Plug-In . SVG Version: 6.00 Build 0)  -->
<svg version="1.1" id="Layer_1" xmlns="http://www.w3.org/2000/svg" xmlns:xlink="http://www.w3.org/1999/xlink" x="0px" y="0px"
	 viewBox="0 0 295.239 295.239" fill="#123C68" style="enable-background:new 0 0 295.239 295.239;" xml:space="preserve">
<g>
	<g>
		<g>
			<rect x="80.953" y="19.048" width="9.524" height="9.524"/>
			<path d="M174.149,122.957c1.733-1.205,2.462-3.41,1.795-5.41L167.63,92.6l20.538-12.329c1.833-1.1,2.71-3.29,2.138-5.357
				c-0.571-2.062-2.452-3.49-4.59-3.49l-25.138,0.005l-8.438-25.314c-0.648-1.948-2.467-3.257-4.519-3.257s-3.871,1.31-4.519,3.257
				l-8.438,25.314l-25.138-0.005c-2.138,0-4.019,1.429-4.59,3.49c-0.571,2.062,0.305,4.252,2.138,5.357l20.533,12.324l-8.319,24.948
				c-0.667,2,0.062,4.205,1.79,5.414c0.819,0.571,1.776,0.857,2.724,0.857c1.057,0,2.105-0.348,2.976-1.043l20.838-16.667
				l20.833,16.663C170.097,124.091,172.415,124.162,174.149,122.957z M150.601,96.281c-0.876-0.695-1.929-1.043-2.981-1.043
				s-2.105,0.348-2.976,1.043l-11.219,8.976l4.429-13.276c0.705-2.119-0.152-4.438-2.067-5.59l-9.071-5.438h11.381
				c2.048,0,3.871-1.31,4.519-3.257l5.005-15.019l5.005,15.019c0.652,1.948,2.471,3.257,4.519,3.257h11.381l-9.067,5.443
				c-1.914,1.148-2.771,3.471-2.067,5.586l4.424,13.276L150.601,96.281z"/>
			<path d="M257.158,214.286h-28.586v-2.381c0-6.567,5.343-11.905,11.905-11.905h19.048c11.814,0,21.429-9.614,21.429-21.429
				s-9.614-21.429-21.429-21.429h-58.148c11.167-9.024,20.019-20.776,25.548-34.248l20.162-8.643
				c29.248-12.533,48.152-41.2,48.152-73.029c0-17.481-14.219-31.7-31.7-31.7c-8.467,0-16.429,3.295-22.414,9.286l-7.79,7.79V0
				H61.906v26.6l-7.79-7.79c-5.99-5.99-13.948-9.286-22.414-9.286c-17.482,0-31.701,14.219-31.701,31.7
				c0,31.829,18.905,60.495,48.157,73.029l20.162,8.643c10.467,25.51,32.881,44.848,60.257,51.09v49.824
				c0,23.633-19.229,42.857-42.857,42.857c-7.876,0-14.286,6.41-14.286,14.286v14.286h152.381v-14.286
				c0-4.595-2.2-8.767-5.752-11.405c0.224-0.957,0.51-1.9,0.652-2.881h10.195c1.029,7.271,4.414,13.952,9.79,19.162
				c6.276,6.086,14.476,9.41,23.19,9.41c0.348,0,0.695-0.005,1.038-0.014c17.814-0.538,32.31-16.019,32.31-34.519v-8.338
				C295.239,231.371,278.158,214.286,257.158,214.286z M233.334,90.476v-50.41l14.524-14.523c4.19-4.19,9.757-6.495,15.681-6.495
				c12.229,0,22.176,9.948,22.176,22.176c0,28.014-16.638,53.243-42.386,64.281l-12.552,5.381
				C232.386,104.329,233.334,97.519,233.334,90.476z M51.91,105.5C26.162,94.467,9.524,69.238,9.524,41.224
				c0-12.229,9.948-22.176,22.176-22.176c5.924,0,11.495,2.305,15.681,6.495l14.524,14.524v50.41c0,7.043,0.948,13.852,2.557,20.405
				L51.91,105.5z M259.524,166.668v-0.001c6.562,0,11.905,5.338,11.905,11.905c0,6.567-5.343,11.905-11.905,11.905h-19.048
				c-11.814,0-21.429,9.614-21.429,21.429v2.381h-28.586c-9,0-17.271,3.157-23.795,8.395v-48.7
				c7.052-1.61,13.767-4.086,20.043-7.314H259.524z M71.43,90.476V9.524h152.381v9.524h-123.81v9.524h123.81v61.905
				c0,42.01-34.181,76.19-76.19,76.19C105.612,166.667,71.43,132.486,71.43,90.476z M80.953,285.714v-4.762
				c0-2.629,2.138-4.762,4.762-4.762c28.881,0,52.381-23.5,52.381-52.381v-48.181c3.133,0.348,6.3,0.562,9.524,0.562
				s6.39-0.214,9.524-0.562v48.181c0,2.943,0.314,5.895,0.814,8.819c-3.514,5.767-5.576,12.51-5.576,19.738v8.338
				c0,9.776,4.071,18.681,10.514,25.01H80.953z M214.287,285.714h-5.262c1.957-1.919,3.562-4.076,4.967-6.343
				c0.18,0.5,0.295,1.029,0.295,1.581V285.714z M285.716,260.705h-0.001c0,13.4-10.352,24.614-23.076,24.995
				c-6.524,0.219-12.652-2.186-17.314-6.705c-4.657-4.524-7.229-10.595-7.229-17.09v-4.762h-28.571v4.762
				c0,6.495-2.571,12.567-7.233,17.09c-4.662,4.519-10.795,6.91-17.314,6.705c-12.719-0.381-23.071-11.59-23.071-24.995v-8.338
				c0-15.748,12.81-28.557,28.557-28.557h66.695c15.748,0,28.557,12.81,28.557,28.557V260.705z"/>
			<rect x="190.477" y="252.381" width="9.524" height="9.524"/>
			<polygon points="180.954,252.381 190.477,252.381 190.477,242.857 180.953,242.857 180.953,252.381 171.43,252.381 
				171.43,261.905 180.953,261.905 180.953,271.429 190.477,271.429 190.477,261.905 180.954,261.905 			"/>
			<circle cx="261.906" cy="247.619" r="4.762"/>
			<circle cx="261.906" cy="266.667" r="4.762"/>
			<circle cx="271.43" cy="257.143" r="4.762"/>
			<circle cx="252.381" cy="257.143" r="4.762"/>
			<rect x="204.763" y="228.571" width="14.286" height="9.524"/>
			<rect x="228.571" y="228.571" width="14.286" height="9.524"/>
		</g>
	</g>
</g>
<g>
</g>
<g>
</g>
<g>
</g>
<g>
</g>
<g>
</g>
<g>
</g>
<g>
</g>
<g>
</g>
<g>
</g>
<g>
</g>
<g>
</g>
<g>
</g>
<g>
</g>
<g>
</g>
<g>
</g>
</svg>
