<svg width="74" height="74" viewBox="0 0 74 74" fill="none" xmlns="http://www.w3.org/2000/svg">
<g clip-path="url(#clip0)">
<path d="M57.658 1.92761C64.7042 1.93246 70.9554 6.45031 73.1708 13.1393C75.3861 19.8283 73.0678 27.1845 67.4172 31.3941C61.7666 35.6044 54.0544 35.7213 48.279 31.6848C42.503 27.6482 39.9626 20.3659 41.9739 13.6128C44.0433 6.67795 50.4217 1.9264 57.658 1.92761Z" fill="#00EFD1"/>
<path d="M55.4614 63.7608V63.7784C55.4572 68.4645 51.6574 72.2607 46.9712 72.2607H46.9446C46.7496 72.2607 46.5541 72.2534 46.3621 72.2407C41.9091 71.9301 38.4568 68.2248 38.4617 63.7608V58.2694H10.005V58.1949L10.3053 13.6049H41.9508L41.9739 13.6128C40.6098 18.1954 41.3176 23.1462 43.9107 27.1639C46.5038 31.1811 50.7238 33.8644 55.4614 34.5092V63.7608Z" fill="#FEDB41"/>
<path d="M46.3622 72.2407L46.3603 72.2607H8.4908C3.80463 72.2607 0.00423814 68.4645 0 63.7784V58.2694H38.4617V63.7608C38.4568 68.2248 41.9091 71.9301 46.3622 72.2407Z" fill="#00ACEA"/>
<path d="M46.3682 38.6487H29.8383C29.1529 38.6487 28.5983 38.0935 28.5983 37.4087C28.5983 36.724 29.1529 36.1688 29.8383 36.1688H46.3682C47.0529 36.1688 47.6081 36.724 47.6081 37.4087C47.6081 38.0935 47.0529 38.6487 46.3682 38.6487Z" fill="#F4B844"/>
<path d="M43.5595 27.8723H29.8383C29.1529 27.8723 28.5983 27.3171 28.5983 26.6324C28.5983 25.9476 29.1529 25.3924 29.8383 25.3924H43.5595C44.2443 25.3924 44.7995 25.9476 44.7995 26.6324C44.7995 27.3171 44.2443 27.8723 43.5595 27.8723Z" fill="#F4B844"/>
<path d="M46.3682 49.4274H29.8383C29.1529 49.4274 28.5983 48.8722 28.5983 48.1875C28.5983 47.5021 29.1529 46.9475 29.8383 46.9475H46.3682C47.0529 46.9475 47.6081 47.5021 47.6081 48.1875C47.6081 48.8722 47.0529 49.4274 46.3682 49.4274Z" fill="#F4B844"/>
<path d="M24.6072 26.6324C24.6072 28.0691 23.3854 29.2346 21.879 29.2346C20.3727 29.2346 19.1497 28.0691 19.1497 26.6324C19.1497 25.1956 20.3709 24.0283 21.879 24.0283C23.3872 24.0283 24.6072 25.1938 24.6072 26.6324Z" fill="#F4B844"/>
<path d="M24.6072 37.4087C24.6072 38.8472 23.3854 40.0127 21.879 40.0127C20.3727 40.0127 19.1497 38.8472 19.1497 37.4087C19.1497 35.9707 20.3709 34.8065 21.879 34.8065C23.3872 34.8065 24.6072 35.9719 24.6072 37.4087Z" fill="#F4B844"/>
<path d="M24.6072 48.1875C24.6072 49.6254 23.3854 50.7897 21.879 50.7897C20.3727 50.7897 19.1497 49.6254 19.1497 48.1875C19.1497 46.7489 20.3709 45.5847 21.879 45.5847C23.3872 45.5847 24.6072 46.7501 24.6072 48.1875Z" fill="#F4B844"/>
<path d="M65.4058 18.3367H63.2217V16.2534H65.4058C65.734 16.2534 66 15.9896 66 15.6639C66 15.338 65.734 15.0741 65.4058 15.0741H63.2217V12.1834C63.2217 11.7614 63.1377 11.4517 62.9721 11.263C62.8147 11.0835 62.6077 11 62.3211 11C62.0476 11 61.8485 11.0829 61.6941 11.2613C61.5304 11.4502 61.4473 11.7605 61.4473 12.1836V15.0745H57.3389L55.5921 12.4509C55.4426 12.2168 55.302 11.9974 55.1655 11.7869C55.0426 11.5973 54.9227 11.443 54.8095 11.3277C54.7093 11.2257 54.595 11.1467 54.4614 11.086C54.3354 11.0289 54.1751 11.0002 53.9855 11.0002C53.7436 11.0002 53.5241 11.066 53.3139 11.2011C53.1059 11.3347 52.9621 11.4999 52.8743 11.7062C52.7972 11.9022 52.7564 12.2026 52.7564 12.5903V15.0743H50.594C50.2659 15.0743 50 15.3382 50 15.664C50 15.9898 50.2659 16.2536 50.594 16.2536H52.7564V18.3371H50.594C50.2659 18.3371 50 18.601 50 18.9269C50 19.2526 50.2659 19.5162 50.594 19.5162H52.7564V22.8167C52.7564 23.2262 52.8431 23.5328 53.0148 23.7276C53.1781 23.9134 53.3852 23.9996 53.6664 23.9996C53.9376 23.9996 54.1431 23.913 54.3134 23.7269C54.4879 23.5362 54.5761 23.2298 54.5761 22.8168V19.5162H58.2938L60.3056 22.578C60.4455 22.7804 60.5899 22.9847 60.734 23.185C60.8639 23.3649 61.0057 23.5234 61.1553 23.6558C61.2901 23.7755 61.4345 23.8632 61.5847 23.9168C61.7392 23.972 61.9199 24 62.1203 24C62.6644 24 63.2216 23.8347 63.2216 22.6087V19.5162H65.4057C65.7339 19.5162 65.9999 19.2522 65.9999 18.9265C66 18.6008 65.734 18.3367 65.4058 18.3367ZM61.4473 16.2534V18.3367H59.5115L58.1245 16.2534H61.4473ZM54.5762 13.8595L55.3745 15.0741H54.5762V13.8595ZM54.5762 18.3367V16.2534H56.1496L57.5187 18.3367H54.5762ZM61.4473 21.2446L60.2969 19.5162H61.4473V21.2446Z" fill="#F4B844"/>
</g>
<defs>
<clipPath id="clip0">
<rect width="74" height="74" fill="white"/>
</clipPath>
</defs>
</svg>
