<?xml version="1.0" encoding="iso-8859-1"?>
<!-- Generator: Adobe Illustrator 16.0.0, SVG Export Plug-In . SVG Version: 6.00 Build 0)  -->
<!DOCTYPE svg PUBLIC "-//W3C//DTD SVG 1.1//EN" "http://www.w3.org/Graphics/SVG/1.1/DTD/svg11.dtd">
<svg version="1.1" id="Capa_1" xmlns="http://www.w3.org/2000/svg" xmlns:xlink="http://www.w3.org/1999/xlink" x="0px" y="0px"
	 width="37.519px" fill="#707070" height="37.519px" viewBox="0 0 37.519 37.519" style="enable-background:new 0 0 37.519 37.519;"
	 xml:space="preserve">
<g>
	<path d="M37.087,17.707c-0.229-0.229-3.982-3.971-9.518-6.344l4.146-4.146c0.391-0.392,0.391-1.022,0-1.414s-1.023-0.392-1.414,0
		l-4.781,4.782C23.435,9.891,21.16,9.43,18.76,9.43c-10.043,0-17.994,7.938-18.327,8.276c-0.577,0.584-0.577,1.522,0,2.106
		c0.227,0.229,3.98,3.973,9.516,6.346l-4.146,4.146c-0.392,0.392-0.392,1.022,0,1.414c0.194,0.194,0.451,0.293,0.707,0.293
		s0.512-0.099,0.707-0.293l4.781-4.782c2.087,0.694,4.361,1.155,6.762,1.155c10.042,0,17.994-7.938,18.328-8.276
		C37.664,19.231,37.664,18.291,37.087,17.707z M3.736,18.76c2.412-2.041,8.282-6.328,15.023-6.328c1.5,0,2.953,0.223,4.339,0.576
		l-1.045,1.045c-0.934-0.654-2.066-1.041-3.293-1.041c-3.176,0-5.75,2.574-5.75,5.75c0,1.226,0.387,2.361,1.042,3.294l-1.785,1.784
		C8.425,22.412,5.327,20.101,3.736,18.76z M18.76,25.091c-1.499,0-2.953-0.223-4.34-0.576l1.045-1.045
		c0.934,0.654,2.067,1.041,3.294,1.041c3.176,0,5.75-2.574,5.75-5.75c0-1.227-0.389-2.361-1.043-3.295l1.785-1.784
		c3.842,1.429,6.938,3.739,8.529,5.081C31.371,20.804,25.501,25.091,18.76,25.091z"/>
</g>
<g>
</g>
<g>
</g>
<g>
</g>
<g>
</g>
<g>
</g>
<g>
</g>
<g>
</g>
<g>
</g>
<g>
</g>
<g>
</g>
<g>
</g>
<g>
</g>
<g>
</g>
<g>
</g>
<g>
</g>
</svg>
