<svg xmlns="http://www.w3.org/2000/svg" xmlns:xlink="http://www.w3.org/1999/xlink" width="36.98" height="35.118" viewBox="0 0 36.98 35.118"><defs><style>.a{fill:url(#a);}.b{fill:none;stroke:#123c68;}</style><linearGradient id="a" x1="0.5" x2="0.5" y2="1" gradientUnits="objectBoundingBox"><stop offset="0" stop-color="#123c68"/><stop offset="1" stop-color="#26507d"/></linearGradient></defs><g transform="translate(0 -40.596)"><g transform="translate(0 49.724)"><path class="a" d="M0,68.275H36.98V45.329H0ZM1.891,47.22h33.2V66.384H1.891Z" transform="translate(0 -45.329)"/><path class="a" d="M34.783,155.683a.963.963,0,0,1,.834.368,1.418,1.418,0,0,1,.23.614h1.631a2.391,2.391,0,0,0-.864-1.815,3.186,3.186,0,0,0-1.875-.514,2.667,2.667,0,0,0-2.113.871,3.572,3.572,0,0,0-.766,2.438,3.518,3.518,0,0,0,.693,2.259,2.6,2.6,0,0,0,2.163.872,2.555,2.555,0,0,0,2.219-1.045,2.669,2.669,0,0,0,.526-1.373H35.836a1.5,1.5,0,0,1-.286.782.948.948,0,0,1-.795.3,1.063,1.063,0,0,1-1.075-.76,3.042,3.042,0,0,1-.157-1.075,3.314,3.314,0,0,1,.157-1.125A1.1,1.1,0,0,1,34.783,155.683Z" transform="translate(-27.997 -141.123)"/><path class="a" d="M89.258,160.15a.883.883,0,0,1-.1-.425q-.011-.413-.011-.7v-2.792a1.521,1.521,0,0,0-.779-1.5,3.883,3.883,0,0,0-1.783-.4,2.616,2.616,0,0,0-2.177.8,2.328,2.328,0,0,0-.449,1.312H85.5a1.152,1.152,0,0,1,.226-.559,1.014,1.014,0,0,1,.809-.28,1.664,1.664,0,0,1,.773.143.535.535,0,0,1,.263.517.478.478,0,0,1-.343.452,2.53,2.53,0,0,1-.636.14l-.546.066a3.889,3.889,0,0,0-1.406.391,1.733,1.733,0,0,0-.873,1.624,1.681,1.681,0,0,0,.543,1.338,2.017,2.017,0,0,0,1.373.472,2.306,2.306,0,0,0,1.168-.3,3.266,3.266,0,0,0,.764-.609c.011.139.026.261.045.369a1.742,1.742,0,0,0,.1.346h1.731v-.234A.578.578,0,0,1,89.258,160.15ZM87.565,158.2a1.273,1.273,0,0,1-.456,1.1,1.667,1.667,0,0,1-.961.3.869.869,0,0,1-.559-.182.705.705,0,0,1-.23-.588.727.727,0,0,1,.376-.676,2.39,2.39,0,0,1,.732-.218l.362-.066a2.675,2.675,0,0,0,.428-.11,1.676,1.676,0,0,0,.308-.154v.594h0Z" transform="translate(-73.613 -141.122)"/><path class="a" d="M142.558,139.942a2,2,0,0,0-1.1.279,2.324,2.324,0,0,0-.669.648v-2.926H139.2v8.22h1.569V145.4a2.407,2.407,0,0,0,.6.625,2.443,2.443,0,0,0,3.1-.631,3.914,3.914,0,0,0,.674-2.35,3.5,3.5,0,0,0-.683-2.234A2.275,2.275,0,0,0,142.558,139.942Zm.561,4.574a1.1,1.1,0,0,1-.963.5,1.2,1.2,0,0,1-1.064-.513,2.252,2.252,0,0,1-.349-1.3,2.924,2.924,0,0,1,.169-1.083,1.194,1.194,0,0,1,1.2-.788,1.177,1.177,0,0,1,1.183.8,2.927,2.927,0,0,1,.169,1.072A2.269,2.269,0,0,1,143.119,144.516Z" transform="translate(-122.322 -126.716)"/><rect class="a" width="1.592" height="8.231" transform="translate(23.949 11.215)"/><path class="a" d="M225.038,155.387a2.471,2.471,0,0,0-1.053-.9,3.46,3.46,0,0,0-1.431-.285,2.937,2.937,0,0,0-2.177.843,3.3,3.3,0,0,0-.838,2.427,2.951,2.951,0,0,0,.928,2.436,3.32,3.32,0,0,0,2.145.75,2.958,2.958,0,0,0,2.29-.889,1.987,1.987,0,0,0,.59-1.1h-1.625a1.235,1.235,0,0,1-1.211.7,1.623,1.623,0,0,1-.878-.228,1.464,1.464,0,0,1-.637-1.285h4.433a7.76,7.76,0,0,0-.053-1.208A2.971,2.971,0,0,0,225.038,155.387Zm-3.856,1.417a1.662,1.662,0,0,1,.424-.943,1.262,1.262,0,0,1,.95-.347,1.393,1.393,0,0,1,.944.328,1.326,1.326,0,0,1,.424.962h-2.741Z" transform="translate(-192.927 -141.004)"/><path class="a" d="M92.12,244.131H74.98a.946.946,0,0,0,0,1.891H92.12a.946.946,0,1,0,0-1.891Z" transform="translate(-65.059 -220.032)"/></g><path class="b" d="M2034,571l8.246,9.245,8-9.245" transform="translate(-2024.005 -530.071)"/></g></svg>