<?xml version="1.0" encoding="iso-8859-1"?>
<!-- Generator: Adobe Illustrator 19.0.0, SVG Export Plug-In . SVG Version: 6.00 Build 0)  -->
<svg version="1.1" id="Layer_1" xmlns="http://www.w3.org/2000/svg" xmlns:xlink="http://www.w3.org/1999/xlink" x="0px" y="0px"
	 viewBox="0 0 512 512" style="enable-background:new 0 0 512 512;" fill="#FF7373" xml:space="preserve">
<g>
	<g>
		<path d="M483.869,47.198H28.131C12.619,47.198,0,59.818,0,75.33v276.178c0,15.512,12.619,28.131,28.131,28.132h297.756
			c3.78,0,7.421,1.135,10.53,3.284l115.881,80.059c1.748,1.206,3.787,1.818,5.834,1.818c1.631,0,3.268-0.389,4.766-1.175
			c3.377-1.771,5.493-5.271,5.493-9.086v-69.943c0-2.734,2.224-4.959,4.959-4.959h10.517c15.512,0,28.131-12.619,28.131-28.131
			V75.33C512,59.818,499.381,47.198,483.869,47.198z M491.479,351.507c0,4.197-3.414,7.61-7.61,7.61h-10.517
			c-14.05,0-25.48,11.43-25.48,25.48v50.383l-99.789-68.939c-6.553-4.529-14.228-6.923-22.196-6.923H28.131
			c-4.197,0-7.61-3.414-7.61-7.61V75.33c0-4.197,3.414-7.61,7.61-7.61h455.737c4.197,0,7.61,3.414,7.61,7.61V351.507z"/>
	</g>
</g>
<g>
	<g>
		<path d="M398.621,139.543h-6.156c-5.666,0-10.26,4.595-10.26,10.26c0,5.666,4.595,10.261,10.26,10.261h6.156
			c5.666,0,10.26-4.595,10.26-10.261C408.882,144.138,404.287,139.543,398.621,139.543z"/>
	</g>
</g>
<g>
	<g>
		<path d="M352.449,139.543h-239.07c-5.666,0-10.261,4.595-10.261,10.26c0,5.666,4.595,10.261,10.261,10.261h239.07
			c5.666,0,10.26-4.595,10.26-10.261C362.709,144.138,358.115,139.543,352.449,139.543z"/>
	</g>
</g>
<g>
	<g>
		<path d="M398.621,203.158H113.379c-5.666,0-10.261,4.595-10.261,10.26c0,5.666,4.595,10.261,10.261,10.261h285.242
			c5.666,0,10.26-4.595,10.26-10.261C408.882,207.753,404.287,203.158,398.621,203.158z"/>
	</g>
</g>
<g>
	<g>
		<path d="M398.621,267.8H113.379c-5.666,0-10.261,4.595-10.261,10.26c0,5.666,4.595,10.26,10.261,10.26h285.242
			c5.666,0,10.26-4.595,10.26-10.26C408.882,272.394,404.287,267.8,398.621,267.8z"/>
	</g>
</g>
<g>
</g>
<g>
</g>
<g>
</g>
<g>
</g>
<g>
</g>
<g>
</g>
<g>
</g>
<g>
</g>
<g>
</g>
<g>
</g>
<g>
</g>
<g>
</g>
<g>
</g>
<g>
</g>
<g>
</g>
</svg>
