<svg xmlns="http://www.w3.org/2000/svg" width="207.527" height="43.9" viewBox="0 0 207.527 43.9"><defs><style>.a{fill:#173c68;}.b{fill:#00b378;}.c{fill:none;stroke:#173d68;stroke-miterlimit:10;stroke-width:4px;}</style></defs><g transform="translate(-302.7 -270.7)"><g transform="translate(302.7 270.7)"><path class="a" d="M331.94,315.883a190.219,190.219,0,0,1-20.117,1.222,8.654,8.654,0,0,1-6.6-2.525,9.1,9.1,0,0,1-2.525-6.6V293.974a9.8,9.8,0,0,1,2.606-7.167,9.666,9.666,0,0,1,7.167-2.606h19.466v8.226H315.813a2.16,2.16,0,0,0-2.443,2.443v11.891a2.15,2.15,0,0,0,.57,1.548,2.028,2.028,0,0,0,1.547.57c3.665,0,9.122-.326,16.452-.9Z" transform="translate(-302.7 -273.205)"/><path class="b" d="M357.531,282.917v31.031h-10.67V291.143H342.3v-8.226ZM346.861,270.7h10.67v8.552h-10.67Z" transform="translate(-310.047 -270.7)"/><path class="a" d="M396.94,315.883a190.219,190.219,0,0,1-20.117,1.222,8.654,8.654,0,0,1-6.6-2.525,9.1,9.1,0,0,1-2.525-6.6V293.974a9.8,9.8,0,0,1,2.606-7.167,9.666,9.666,0,0,1,7.167-2.606H396.94v8.226H380.813a2.16,2.16,0,0,0-2.443,2.443v11.891a2.15,2.15,0,0,0,.57,1.548,2.028,2.028,0,0,0,1.547.57c3.665,0,9.122-.326,16.452-.9Z" transform="translate(-314.759 -273.205)"/><path class="a" d="M442.356,307.183a9.8,9.8,0,0,1-2.606,7.167,9.666,9.666,0,0,1-7.167,2.606H418.574a9.8,9.8,0,0,1-7.167-2.606,9.666,9.666,0,0,1-2.606-7.167V293.174a9.8,9.8,0,0,1,2.606-7.167,9.666,9.666,0,0,1,7.167-2.606h14.009a9.8,9.8,0,0,1,7.167,2.606,9.666,9.666,0,0,1,2.606,7.167Zm-10.67-13.113a2.16,2.16,0,0,0-2.443-2.443h-7.33a2.16,2.16,0,0,0-2.443,2.443v12.217a2.16,2.16,0,0,0,2.443,2.443h7.33a2.16,2.16,0,0,0,2.443-2.443Z" transform="translate(-322.385 -273.056)"/></g><g transform="translate(448.083 279.496)"><path class="b" d="M487.146,291.264l2.118.814a4.142,4.142,0,0,1-4.317,3.176,3.385,3.385,0,0,1-2.688-1.059,3.748,3.748,0,0,1-1.059-2.851,6.533,6.533,0,0,1,1.385-4.317,4.322,4.322,0,0,1,3.421-1.629,3.451,3.451,0,0,1,2.769,1.059,3.967,3.967,0,0,1,.977,2.769l-2.118.163a2.5,2.5,0,0,0-.326-1.385,1.345,1.345,0,0,0-1.3-.57,2.047,2.047,0,0,0-1.792,1.059,4.932,4.932,0,0,0-.652,2.606c0,1.385.57,2.036,1.71,2.036a2.409,2.409,0,0,0,.814-.163,1.1,1.1,0,0,0,.57-.489,4.671,4.671,0,0,0,.326-.57A2.515,2.515,0,0,1,487.146,291.264Z" transform="translate(-481.2 -282.224)"/><path class="b" d="M499.256,295.011h-2.118l.163-1.059h0a3.472,3.472,0,0,1-.977.9,3.536,3.536,0,0,1-1.71.407,2.742,2.742,0,0,1-2.118-.977,3.958,3.958,0,0,1-.9-2.688,7.258,7.258,0,0,1,1.385-4.4,3.972,3.972,0,0,1,3.258-1.792,2.273,2.273,0,0,1,2.118,1.14h.081l.163-.814h2.281Zm-1.466-4.642.163-.977a1.8,1.8,0,0,0-.244-1.466,1.641,1.641,0,0,0-1.3-.57,2.139,2.139,0,0,0-1.792,1.14,5.014,5.014,0,0,0-.733,2.769c0,1.14.489,1.71,1.385,1.71a2.279,2.279,0,0,0,1.548-.733A3.132,3.132,0,0,0,497.79,290.368Z" transform="translate(-483.13 -282.224)"/><path class="b" d="M502.5,291.716l2.118-.407a2,2,0,0,0,.57,1.385,1.882,1.882,0,0,0,1.385.407c1.059,0,1.547-.326,1.547-.977,0-.244-.163-.407-.407-.57a14.61,14.61,0,0,0-1.792-.814,5,5,0,0,1-2.118-1.14,2.028,2.028,0,0,1-.57-1.547,2.737,2.737,0,0,1,.9-1.955,3.678,3.678,0,0,1,2.688-.9,3.846,3.846,0,0,1,2.606.814,3.236,3.236,0,0,1,1.14,2.118l-2.036.326a1.955,1.955,0,0,0-.57-.977,2.192,2.192,0,0,0-2.28-.163.615.615,0,0,0-.326.57.843.843,0,0,0,.407.57c.326.163.977.407,1.955.814a4.233,4.233,0,0,1,1.955,1.14,2.348,2.348,0,0,1,.489,1.548,3.038,3.038,0,0,1-.977,2.2,4.184,4.184,0,0,1-2.769.9,4.328,4.328,0,0,1-3.014-.977A3.713,3.713,0,0,1,502.5,291.716Z" transform="translate(-485.152 -282.186)"/><path class="b" d="M512.2,294.287l2.281-12.787h2.281l-.733,4.235h0a2.823,2.823,0,0,1,.9-.652,2.789,2.789,0,0,1,1.466-.326,2.574,2.574,0,0,1,2.2.977,3.207,3.207,0,0,1,.407,2.688l-1.059,5.946h-2.2l.977-5.7a2.226,2.226,0,0,0-.163-1.3,1.268,1.268,0,0,0-1.14-.489,2,2,0,0,0-1.222.407,2.078,2.078,0,0,0-.733,1.222l-1.059,5.864h-2.2Z" transform="translate(-486.951 -281.5)"/><path class="b" d="M527,294.287,528.629,285h2.362l-1.629,9.285Zm1.873-10.67.407-2.118h2.281l-.407,2.118Z" transform="translate(-489.697 -281.5)"/><path class="b" d="M531.6,295.029l1.629-9.285h2.2l-.163.9h0a3.387,3.387,0,0,1,2.606-1.14,2.573,2.573,0,0,1,2.2.977,3.866,3.866,0,0,1,.489,2.851l-.977,5.7H537.3l.977-5.538c.244-1.3-.244-1.955-1.385-1.955a2.253,2.253,0,0,0-1.3.407,2.016,2.016,0,0,0-.652,1.14l-1.059,5.864H531.6Z" transform="translate(-490.551 -282.242)"/></g><g transform="translate(448.083 296.926)"><path class="a" d="M487.146,312.664l2.118.814a4.142,4.142,0,0,1-4.317,3.176,3.385,3.385,0,0,1-2.688-1.059,3.748,3.748,0,0,1-1.059-2.851,6.533,6.533,0,0,1,1.385-4.317,4.322,4.322,0,0,1,3.421-1.629,3.451,3.451,0,0,1,2.769,1.059,3.967,3.967,0,0,1,.977,2.769l-2.118.163a2.5,2.5,0,0,0-.326-1.385,1.345,1.345,0,0,0-1.3-.57,2.047,2.047,0,0,0-1.792,1.059,4.44,4.44,0,0,0-.652,2.606c0,1.385.57,2.036,1.71,2.036a2.409,2.409,0,0,0,.814-.163,1.1,1.1,0,0,0,.57-.489,4.671,4.671,0,0,0,.326-.57A3.657,3.657,0,0,1,487.146,312.664Z" transform="translate(-481.2 -303.624)"/><path class="a" d="M499.256,316.411h-2.118l.163-1.059h0a3.472,3.472,0,0,1-.977.9,3.536,3.536,0,0,1-1.71.407,2.742,2.742,0,0,1-2.118-.977,3.958,3.958,0,0,1-.9-2.688,7.258,7.258,0,0,1,1.385-4.4,3.972,3.972,0,0,1,3.258-1.792,2.273,2.273,0,0,1,2.118,1.14h.081l.163-.814h2.281Zm-1.466-4.642.163-.977a1.8,1.8,0,0,0-.244-1.466,1.641,1.641,0,0,0-1.3-.57,2.139,2.139,0,0,0-1.792,1.14,5.014,5.014,0,0,0-.733,2.769c0,1.14.489,1.71,1.385,1.71a2.279,2.279,0,0,0,1.548-.733A3.132,3.132,0,0,0,497.79,311.768Z" transform="translate(-483.13 -303.624)"/><path class="a" d="M502.5,313.116l2.118-.407a2,2,0,0,0,.57,1.385,1.882,1.882,0,0,0,1.385.407c1.059,0,1.547-.326,1.547-.977,0-.244-.163-.407-.407-.57a14.615,14.615,0,0,0-1.792-.814A5,5,0,0,1,503.8,311a2.028,2.028,0,0,1-.57-1.547,2.737,2.737,0,0,1,.9-1.955,3.678,3.678,0,0,1,2.688-.9,3.846,3.846,0,0,1,2.606.814,3.236,3.236,0,0,1,1.14,2.118l-2.036.326a1.955,1.955,0,0,0-.57-.977,2.192,2.192,0,0,0-2.28-.163.615.615,0,0,0-.326.57.843.843,0,0,0,.407.57c.244.163.977.407,1.955.814a4.233,4.233,0,0,1,1.955,1.14,2.348,2.348,0,0,1,.489,1.547,3.038,3.038,0,0,1-.977,2.2,4.184,4.184,0,0,1-2.769.9,4.328,4.328,0,0,1-3.014-.977A3.713,3.713,0,0,1,502.5,313.116Z" transform="translate(-485.152 -303.586)"/><path class="a" d="M512.2,315.687l2.281-12.787h2.281l-.733,4.235h0a2.823,2.823,0,0,1,.9-.652,2.789,2.789,0,0,1,1.466-.326,2.574,2.574,0,0,1,2.2.977,3.207,3.207,0,0,1,.407,2.688l-1.059,5.946h-2.2l.977-5.7a2.226,2.226,0,0,0-.163-1.3,1.268,1.268,0,0,0-1.14-.489,2,2,0,0,0-1.222.407,2.237,2.237,0,0,0-.733,1.222l-1.059,5.864h-2.2Z" transform="translate(-486.951 -302.9)"/><path class="a" d="M531.191,316.674a3.931,3.931,0,0,1-2.851-1.14,4.248,4.248,0,0,1-1.14-3.1,5.874,5.874,0,0,1,1.385-3.909,4.483,4.483,0,0,1,3.5-1.629,3.931,3.931,0,0,1,2.851,1.14,4.208,4.208,0,0,1,1.059,3.1,5.874,5.874,0,0,1-1.385,3.909A4.1,4.1,0,0,1,531.191,316.674Zm.081-2.118a2.142,2.142,0,0,0,1.792-.977,4.133,4.133,0,0,0,.733-2.606,2.205,2.205,0,0,0-.489-1.548,1.621,1.621,0,0,0-1.3-.57,2.142,2.142,0,0,0-1.792.977,4.3,4.3,0,0,0-.733,2.606,2.2,2.2,0,0,0,.489,1.547A1.62,1.62,0,0,0,531.272,314.556Z" transform="translate(-489.734 -303.642)"/><path class="a" d="M538.378,313.027l1.059-5.946H541.8l-.977,5.7c-.163,1.14.163,1.629,1.14,1.629,1.222,0,1.955-.489,2.118-1.548l.977-5.864h2.362l-1.629,9.285H543.51l.163-.9h0a3.258,3.258,0,0,1-.977.814,3.1,3.1,0,0,1-1.547.326C538.867,316.692,537.971,315.47,538.378,313.027Z" transform="translate(-491.791 -303.661)"/><path class="a" d="M550.37,312.608l.733-4.072h-1.3l.326-1.955h1.385l.407-2.281h2.2l-.407,2.281h2.362l-.326,1.955h-2.281l-.652,3.828a1.835,1.835,0,0,0-.081.57.634.634,0,0,0,.244.57,1.752,1.752,0,0,0,.815.163h.733l-.407,2.2h-.977a4,4,0,0,1-2.2-.489,2.021,2.021,0,0,1-.652-1.629A6.648,6.648,0,0,1,550.37,312.608Z" transform="translate(-493.927 -303.16)"/></g><line class="c" y2="35.267" transform="translate(435.703 279.252)"/></g></svg>