<svg xmlns="http://www.w3.org/2000/svg" width="34" height="34" viewBox="0 0 34 34"><defs><style>.a{fill:#fff;}</style></defs><g transform="translate(-1 -1)"><path class="a" d="M18.548,17.452V7.032h4.935a1.647,1.647,0,0,1,1.645,1.645v4.769L23.94,11.663l-.913.608,2.65,3.975,2.65-3.975-.913-.608-1.189,1.783V8.677a2.745,2.745,0,0,0-2.742-2.742H18.548V3.742A2.745,2.745,0,0,0,15.806,1H3.742A2.745,2.745,0,0,0,1,3.742V18a2.745,2.745,0,0,0,2.742,2.742h9.323V31.161H8.129a1.647,1.647,0,0,1-1.645-1.645V24.747L7.673,26.53l.913-.608-2.65-3.975-2.65,3.975.913.608,1.189-1.783v4.769a2.745,2.745,0,0,0,2.742,2.742h4.935V35H35V17.452ZM33.9,21.839H14.161v-3.29H33.9ZM15.258,8.677H4.29V4.29H15.258ZM4.29,9.774H15.258v4.387H4.29ZM2.1,18V3.742A1.647,1.647,0,0,1,3.742,2.1H15.806a1.647,1.647,0,0,1,1.645,1.645v13.71h-1.1V4.29a1.1,1.1,0,0,0-1.1-1.1H4.29a1.1,1.1,0,0,0-1.1,1.1V19.544A1.643,1.643,0,0,1,2.1,18ZM4.29,19.645V15.258H15.258v2.194H13.065v2.194ZM14.161,33.9V22.935H33.9V33.9Z"/><path class="a" d="M9,9h1.1v2.194H9Z" transform="translate(-3.613 -3.613)"/><path class="a" d="M13,9h1.1v2.194H13Z" transform="translate(-5.419 -3.613)"/><path class="a" d="M23,19h1.1v2.194H23Z" transform="translate(-9.935 -8.129)"/><path class="a" d="M19,19h1.1v2.194H19Z" transform="translate(-8.129 -8.129)"/><path class="a" d="M9,29h1.1v2.194H9Z" transform="translate(-3.613 -12.645)"/><path class="a" d="M13,29h1.1v2.194H13Z" transform="translate(-5.419 -12.645)"/><path class="a" d="M27,35h1.1v1.1H27Z" transform="translate(-11.742 -15.355)"/><path class="a" d="M31,35h1.1v1.1H31Z" transform="translate(-13.548 -15.355)"/><path class="a" d="M35,35h1.1v1.1H35Z" transform="translate(-15.355 -15.355)"/><path class="a" d="M41.343,47.658a2.742,2.742,0,1,0-3.912,0A3.843,3.843,0,0,0,35,51.226v.548h8.774v-.548A3.843,3.843,0,0,0,41.343,47.658ZM39.387,44.1a1.645,1.645,0,1,1-1.645,1.645A1.647,1.647,0,0,1,39.387,44.1Zm-3.235,6.581a2.747,2.747,0,0,1,2.687-2.194h1.1a2.746,2.746,0,0,1,2.687,2.194Z" transform="translate(-15.355 -18.968)"/><path class="a" d="M27,43h1.1v1.1H27Z" transform="translate(-11.742 -18.968)"/><path class="a" d="M27,47h1.1v1.1H27Z" transform="translate(-11.742 -20.774)"/><path class="a" d="M27,51h1.1v1.1H27Z" transform="translate(-11.742 -22.581)"/><path class="a" d="M57,57h1.1v1.1H57Z" transform="translate(-25.29 -25.29)"/><path class="a" d="M57,53h1.1v1.1H57Z" transform="translate(-25.29 -23.484)"/><path class="a" d="M57,49h1.1v1.1H57Z" transform="translate(-25.29 -21.677)"/></g></svg>