<svg xmlns="http://www.w3.org/2000/svg" width="31.77" height="21.056" viewBox="0 0 31.77 21.056"><defs><style>.a{fill:#fff;}</style></defs><g transform="translate(0 -21.583)"><path class="a" d="M29.846,28.657h-.031v-5.15a1.926,1.926,0,0,0-1.924-1.924H1.924A1.926,1.926,0,0,0,0,23.507V40.715a1.926,1.926,0,0,0,1.924,1.924H27.891a1.926,1.926,0,0,0,1.924-1.924v-5.15h.031a1.926,1.926,0,0,0,1.924-1.924V30.58A1.926,1.926,0,0,0,29.846,28.657Zm-27.922-6.2H27.891a1.056,1.056,0,0,1,1.055,1.055v.6H.869v-.6A1.056,1.056,0,0,1,1.924,22.452ZM27.891,41.77H1.924A1.056,1.056,0,0,1,.869,40.715v-.6H28.946v.6a1.056,1.056,0,0,1-1.055,1.055Zm1.055-2.523H.869v-1.8H8a.434.434,0,0,0,.307-.127l1.554-1.554a1.35,1.35,0,1,0-.612-.616L7.824,36.578H.869V35h2.3a1.344,1.344,0,1,0,0-.869H.869V32.545H15.1a1.343,1.343,0,1,0-.011-.869H.869V30.094H5.16a1.344,1.344,0,1,0,0-.869H.869V27.643H7.848L9.7,29.182a1.349,1.349,0,1,0,.556-.668L8.282,26.876a.435.435,0,0,0-.278-.1H.869v-1.8H28.946v3.682H25.11a1.926,1.926,0,0,0-1.924,1.924v3.061a1.926,1.926,0,0,0,1.924,1.924h3.837ZM9.984,34.562a.476.476,0,1,1,.476.476.476.476,0,0,1-.476-.476Zm-6.017,0a.476.476,0,1,1,.476.476.476.476,0,0,1-.476-.476ZM15.89,32.1a.476.476,0,1,1,.476.476.476.476,0,0,1-.476-.476ZM5.955,29.66a.476.476,0,1,1,.476.476A.476.476,0,0,1,5.955,29.66Zm5-.476a.476.476,0,1,1-.476.476.476.476,0,0,1,.476-.476ZM30.9,33.642A1.056,1.056,0,0,1,29.846,34.7H25.11a1.056,1.056,0,0,1-1.055-1.055V30.58a1.056,1.056,0,0,1,1.055-1.055h4.736A1.056,1.056,0,0,1,30.9,30.58Z"/><path class="a" d="M103.351,58.917a.434.434,0,0,0-.434.434v1.623a.434.434,0,1,0,.869,0V59.351A.434.434,0,0,0,103.351,58.917Z" transform="translate(-77.373 -28.068)"/></g></svg>