<?xml version="1.0" standalone="no"?>
<!DOCTYPE svg PUBLIC "-//W3C//DTD SVG 20010904//EN"
 "http://www.w3.org/TR/2001/REC-SVG-20010904/DTD/svg10.dtd">
<svg version="1.0" xmlns="http://www.w3.org/2000/svg"
 width="257.000000pt" height="167.000000pt" viewBox="0 0 257.000000 167.000000"
 preserveAspectRatio="xMidYMid meet">
<metadata>
Created by potrace 1.15, written by Peter Selinger 2001-2017
</metadata>
<g transform="translate(0.000000,167.000000) scale(0.100000,-0.100000)"
fill="#000000" stroke="none">
<path d="M1017 883 c-18 -17 -5 -29 28 -25 34 4 65 -10 65 -29 0 -5 -19 -9
-43 -9 -52 0 -87 -22 -87 -55 0 -38 40 -59 97 -51 26 3 50 10 54 14 4 4 10 32
14 63 9 73 -12 99 -78 99 -24 0 -47 -3 -50 -7z"/>
<path d="M1535 866 c-32 -32 -42 -89 -21 -121 25 -39 126 -47 126 -10 0 10 -9
12 -33 8 -24 -3 -39 0 -50 12 -29 28 -19 35 48 35 l65 0 0 33 c0 43 -26 67
-74 67 -26 0 -44 -7 -61 -24z"/>
</g>
</svg>
