<?xml version="1.0" standalone="no"?>
<!DOCTYPE svg PUBLIC "-//W3C//DTD SVG 20010904//EN"
 "http://www.w3.org/TR/2001/REC-SVG-20010904/DTD/svg10.dtd">
<svg version="1.0" xmlns="http://www.w3.org/2000/svg"
 width="514.000000pt" height="334.000000pt" viewBox="0 0 514.000000 334.000000"
 preserveAspectRatio="xMidYMid meet">
<metadata>
Created by potrace 1.15, written by Peter Selinger 2001-2017
</metadata>
<g transform="translate(0.000000,334.000000) scale(0.100000,-0.100000)"
fill="#000000" stroke="none">
<path d="M2065 1774 c-22 -6 -45 -31 -45 -48 0 -7 27 -10 78 -8 72 4 79 2 101
-22 39 -41 23 -56 -59 -56 -114 0 -180 -40 -180 -109 0 -64 62 -111 146 -111
39 0 135 20 150 32 14 10 34 129 34 202 0 47 -4 61 -28 87 -26 30 -34 32 -103
35 -41 1 -83 0 -94 -2z"/>
<path d="M2481 1770 c-117 -28 -178 -184 -110 -281 30 -43 103 -72 166 -67 58
5 67 11 78 46 6 21 4 22 -54 22 -49 0 -65 4 -90 26 -27 23 -31 32 -31 77 0 40
5 58 23 78 32 36 79 53 131 46 45 -7 66 4 66 34 0 25 -104 37 -179 19z"/>
<path d="M2820 1774 c-39 -8 -101 -55 -123 -94 -28 -50 -27 -148 2 -188 31
-44 85 -67 158 -67 65 0 76 6 88 43 6 21 4 22 -54 22 -49 0 -65 4 -90 26 -26
22 -31 33 -31 69 0 61 15 89 62 115 33 19 49 21 94 16 51 -6 54 -5 60 19 4 14
4 28 1 31 -7 7 -137 13 -167 8z"/>
<path d="M3135 1773 c-59 -16 -118 -94 -131 -169 -17 -112 72 -194 199 -181
37 3 56 11 69 27 24 29 18 46 -13 40 -97 -20 -169 6 -169 60 l0 27 128 9 127
9 3 30 c5 45 -18 104 -50 127 -29 20 -122 33 -163 21z"/>
<path d="M3487 1770 c-37 -11 -55 -27 -73 -63 -26 -50 -9 -75 99 -141 60 -36
10 -92 -72 -80 -24 3 -50 8 -57 11 -8 3 -18 -5 -23 -18 -12 -32 7 -46 74 -54
101 -13 195 38 195 106 0 29 -43 89 -64 89 -6 0 -27 13 -46 29 -29 25 -33 32
-24 48 9 14 24 18 75 19 72 0 89 7 89 33 0 27 -109 40 -173 21z"/>
<path d="M3787 1766 c-50 -18 -66 -41 -67 -94 0 -42 1 -44 65 -85 72 -45 81
-70 35 -95 -23 -11 -89 -9 -124 4 -10 4 -36 -33 -36 -50 0 -2 27 -9 61 -16
139 -30 257 50 209 141 -6 10 -35 35 -66 54 -60 39 -73 57 -53 81 10 12 28 15
77 12 53 -2 65 0 74 15 6 12 6 23 1 28 -17 17 -135 20 -176 5z"/>
</g>
</svg>
