<?xml version="1.0" encoding="UTF-8" standalone="no"?>
<svg
   xmlns:dc="http://purl.org/dc/elements/1.1/"
   xmlns:cc="http://creativecommons.org/ns#"
   xmlns:rdf="http://www.w3.org/1999/02/22-rdf-syntax-ns#"
   xmlns:svg="http://www.w3.org/2000/svg"
   xmlns="http://www.w3.org/2000/svg"
   id="svg1925"
   version="1.1"
   viewBox="0 0 132.29166 64.955525"
   height="245.50119"
   width="500">
  <defs
     id="defs1919" />
  <metadata
     id="metadata1922">
    <rdf:RDF>
      <cc:Work
         rdf:about="">
        <dc:format>image/svg+xml</dc:format>
        <dc:type
           rdf:resource="http://purl.org/dc/dcmitype/StillImage" />
        <dc:title></dc:title>
      </cc:Work>
    </rdf:RDF>
  </metadata>
  <g
     transform="translate(0,-232.04448)"
     id="layer1">
    <path
       style="fill:#00577a;fill-opacity:1;fill-rule:nonzero;stroke:none;stroke-width:1.37563121"
       d="m 20.602225,247.99255 0.472871,-2.65996 H 9.602553 v 0.004 c -1.203679,0 -2.348258,0.96188 -2.584688,2.16021 l -4.427811,25.11067 h 0.0055 c -0.225699,1.21444 0.569593,2.20317 1.789393,2.20856 H 16.90534 l 0.467494,-2.65458 H 6.614974 l 1.988213,-11.27371 h 8.742784 l 0.456748,-2.61156 H 9.059938 l 1.816272,-10.28497 z m 0,0"
       id="path1435" />
    <path
       style="fill:#00577a;fill-opacity:1;fill-rule:nonzero;stroke:none;stroke-width:1.37563121"
       d="m 26.2552,275.25258 c -5.056515,0 -7.985098,-4.54064 -6.673955,-11.99916 1.338023,-7.58746 5.841069,-11.95615 10.983563,-11.95615 2.82648,0 4.212871,0.90276 4.830833,1.54223 l -1.284292,2.18703 c -0.596461,-0.51586 -1.520718,-1.11235 -3.234879,-1.11235 -4.202128,0 -6.502002,3.80986 -7.453127,9.21029 -0.977992,5.52939 0.322405,9.34463 4.051657,9.34463 1.58521,0 2.751264,-0.51586 3.713135,-1.11236 l 0.526602,2.35366 c -1.042465,0.81677 -2.885591,1.54218 -5.459537,1.54218"
       id="path1437" />
    <path
       style="fill:#00577a;fill-opacity:1;fill-rule:nonzero;stroke:none;stroke-width:1.37563121"
       d="m 45.965423,253.69924 c -4.41169,0 -6.141971,4.92755 -6.969508,9.59719 -0.816782,4.66961 -0.698559,9.34463 3.627154,9.34463 4.417068,0 6.061374,-4.71799 6.87279,-9.34463 0.822148,-4.62663 0.881255,-9.59719 -3.530436,-9.59719 m -3.799106,21.55334 c -6.303182,0 -8.1302,-5.18545 -6.937268,-11.95615 1.214422,-6.89964 4.900687,-11.99916 11.117894,-11.99916 6.340808,0 8.140943,5.09952 6.921144,11.99916 -1.192921,6.7707 -4.846941,11.95615 -11.10177,11.95615"
       id="path1439" />
    <path
       style="fill:#00577a;fill-opacity:1;fill-rule:nonzero;stroke:none;stroke-width:1.37563121"
       d="m 88.244585,261.71124 c -5.9539,0.72541 -9.64553,1.96671 -10.46769,6.6417 -0.59109,3.34235 1.2198,4.71261 4.6535,4.71261 1.45086,0 2.91785,-0.25268 3.94957,-0.76842 z m -6.50201,13.54134 c -5.99688,0 -8.32364,-2.61152 -7.58209,-6.81366 1.08009,-6.13122 7.13609,-7.92601 14.42801,-8.65681 l 0.24718,-1.41323 c 0.62871,-3.55729 -1.33264,-4.58365 -4.29347,-4.58365 -2.22465,0 -4.42781,0.81139 -5.82494,1.45624 l -0.51048,-2.23005 c 1.45623,-0.73079 4.20213,-1.71415 7.37252,-1.71415 4.2881,0 7.73792,1.84315 6.73844,7.49611 l -2.61692,14.83104 c -1.92911,0.98874 -4.74485,1.62816 -7.95825,1.62816"
       id="path1441" />
    <path
       style="fill:#00577a;fill-opacity:1;fill-rule:nonzero;stroke:none;stroke-width:1.37563121"
       d="m 105.60657,274.82271 2.92321,-16.58278 c 0.38152,-2.14406 -0.10742,-4.49768 -4.04629,-4.49768 -2.14405,0 -3.2295,0.29558 -4.513795,0.8114 l -3.57879,20.26906 h -3.76686 l 3.85822,-21.89723 c 2.2354,-0.9834 5.045765,-1.62821 8.726665,-1.62821 6.43215,0 7.68956,3.55729 7.10921,6.85668 l -2.93933,16.66876 z m 0,0"
       id="path1443" />
    <path
       style="fill:#bdcf00;fill-opacity:1;fill-rule:nonzero;stroke:none;stroke-width:1.37563121"
       d="M 128.59466,280.13178 H 1.268152 l 0.118153,-0.75766 H 128.70205 Z m 0,0"
       id="path1445" />
    <path
       style="fill:#00577a;fill-opacity:1;fill-rule:nonzero;stroke:none;stroke-width:1.37563121"
       d="m 69.754174,262.99552 c -1.031722,5.8303 -3.616411,9.8175 -8.372007,9.8175 -1.203679,0 -2.37511,-0.12907 -3.159648,-0.55886 l 3.122038,-17.70051 c 1.176812,-0.59646 2.213899,-0.89738 3.928072,-0.89738 4.368703,0 5.373556,4.28808 4.481545,9.33925 m -3.1489,-11.56929 c -2.267646,0 -3.637912,0.4675 -4.900687,1.06934 l 1.988212,-11.26299 -4.153759,2.40201 -5.287584,29.98983 c 1.214422,0.90275 3.482068,1.62816 6.614848,1.62816 6.85667,0 11.375821,-4.97052 12.681601,-12.38602 1.23054,-6.98567 -1.62818,-11.44033 -6.942631,-11.44033"
       id="path1447" />
    <path
       style="fill:#00577a;fill-opacity:1;fill-rule:nonzero;stroke:none;stroke-width:1.37563121"
       d="m 132.29167,251.72715 h -3.93883 l -10.1184,10.7095 h -0.0859 l 2.57931,-14.59458 c 2.56315,-14.45486 -13.03631,-17.50706 -29.323565,-15.01373 -11.06954,1.69804 -20.84941,6.10974 -20.84941,6.10974 0,0 12.76757,-4.46543 24.00369,-5.1049 14.186205,-0.80601 25.304105,1.34339 22.058465,16.37327 l -4.34185,24.62164 h 3.68627 l 2.10107,-11.91856 h 0.0859 l 6.72769,11.91856 h 4.28809 l -7.5176,-12.30546 z m 0,0"
       id="path1449" />
    <path
       style="fill:#00577a;fill-opacity:1;fill-rule:nonzero;stroke:none;stroke-width:1.37563121"
       d="m 3.353102,287.68704 -1.61744,9.16728 H 0.386897 l 1.61744,-9.16728 H 0 l 0.161202,-0.90814 h 5.35745 l -0.161202,0.90814 z m 0,0"
       id="path1451" />
    <path
       style="fill:#00577a;fill-opacity:1;fill-rule:nonzero;stroke:none;stroke-width:1.37563121"
       d="m 9.656284,296.85432 0.983357,-5.59389 c 0.145098,-0.81677 -0.07526,-1.55294 -1.332641,-1.55294 -0.585717,0 -1.074713,0.10216 -1.606696,0.39224 l -1.192921,6.75459 H 5.21773 l 2.031199,-11.49407 h 1.284277 l -0.703937,4.01407 c 0.71468,-0.33847 1.316521,-0.48361 1.896873,-0.48361 2.009714,0 2.407354,1.20902 2.213896,2.32137 l -0.994097,5.64224 z m 0,0"
       id="path1453" />
    <path
       style="fill:#00577a;fill-opacity:1;fill-rule:nonzero;stroke:none;stroke-width:1.37563121"
       d="m 16.636542,289.64837 c -1.144567,0 -2.154803,0.92424 -2.504091,3.06292 l 3.87972,-0.57497 c 0.311642,-1.78941 -0.252566,-2.48795 -1.375629,-2.48795 m -2.579311,3.75074 c -0.171964,1.78403 0.510482,2.6653 1.929105,2.6653 0.892014,0 1.574453,-0.22032 2.025835,-0.45678 l 0.188069,0.84902 c -0.531983,0.29012 -1.413254,0.54277 -2.482586,0.54277 -2.063448,0 -3.283247,-1.30581 -2.788886,-4.11616 0.47825,-2.6814 2.036581,-4.06781 3.89584,-4.06781 1.891495,0 2.815741,1.23055 2.32138,3.86359 z m 0,0"
       id="path1455" />
    <path
       style="fill:#00577a;fill-opacity:1;fill-rule:nonzero;stroke:none;stroke-width:1.37563121"
       d="m 28.904378,287.43981 c -0.542738,0 -0.956503,0.10217 -1.176812,0.18796 l -0.741558,4.21824 0.429884,0.0429 c 2.090327,0.20979 3.030693,-0.76304 3.294002,-2.22462 0.257947,-1.46162 -0.268709,-2.22466 -1.805516,-2.22466 m -1.617452,5.27144 -0.445993,-0.0429 -0.741561,4.18603 h -1.316521 l 1.703418,-9.66703 c 0.617958,-0.32248 1.547585,-0.55887 2.616929,-0.55887 2.375109,0 3.218758,1.2789 2.907097,3.04682 -0.317063,1.78937 -1.800155,3.33159 -4.723369,3.03606"
       id="path1457" />
    <path
       style="fill:#00577a;fill-opacity:1;fill-rule:nonzero;stroke:none;stroke-width:1.37563121"
       d="m 36.755148,292.37274 c -2.031215,0.25269 -3.29399,0.67172 -3.573423,2.26764 -0.204213,1.13922 0.419142,1.6121 1.590577,1.6121 0.494373,0 0.994112,-0.0913 1.348761,-0.26321 z m -2.219276,4.62668 c -2.04734,0 -2.84262,-0.89742 -2.59007,-2.33214 0.370757,-2.09032 2.439602,-2.70292 4.927554,-2.95545 l 0.08598,-0.48364 c 0.214936,-1.21444 -0.456752,-1.56371 -1.466972,-1.56371 -0.757671,0 -1.509975,0.27413 -1.988213,0.49437 l -0.177346,-0.76304 c 0.499739,-0.24723 1.440106,-0.58036 2.520196,-0.58036 1.466988,0 2.6438,0.62871 2.29989,2.56321 l -0.892013,5.06189 c -0.660949,0.34393 -1.61744,0.55887 -2.719016,0.55887"
       id="path1459" />
    <path
       style="fill:#00577a;fill-opacity:1;fill-rule:nonzero;stroke:none;stroke-width:1.37563121"
       d="m 43.375373,296.85432 0.999478,-5.66911 c 0.128876,-0.73079 -0.03743,-1.53684 -1.386375,-1.53684 -0.730803,0 -1.101576,0.10217 -1.542219,0.27959 l -1.2198,6.92651 h -1.289653 l 1.321898,-7.47999 c 0.763047,-0.33847 1.719538,-0.55883 2.982324,-0.55883 2.197795,0 2.62768,1.2144 2.42886,2.34285 l -1.004859,5.69597 z m 0,0"
       id="path1461" />
    <path
       style="fill:#00577a;fill-opacity:1;fill-rule:nonzero;stroke:none;stroke-width:1.37563121"
       d="m 55.965617,289.20774 c -0.107429,-0.78991 -0.07526,-1.21444 -0.07526,-1.21444 h -0.03236 c 0,0 -0.128915,0.42453 -0.521241,1.21444 l -1.87537,3.82596 H 56.4652 Z m 0.994116,7.64658 -0.419142,-3.01995 h -3.4552 l -1.509975,3.01995 H 50.34487 l 5.185485,-10.07542 h 1.203675 l 1.617455,10.07542 z m 0,0"
       id="path1463" />
    <path
       style="fill:#00577a;fill-opacity:1;fill-rule:nonzero;stroke:none;stroke-width:1.37563121"
       d="m 62.456876,289.76122 -1.246662,7.0931 h -1.295035 l 1.252043,-7.0931 h -0.913499 l 0.145098,-0.80067 h 0.908122 l 0.198832,-1.11235 c 0.274051,-1.55295 1.38639,-2.56317 3.100551,-2.48795 l -0.139717,0.81681 c -0.784533,0.0429 -1.450863,0.41373 -1.649683,1.52608 l -0.220318,1.25741 h 1.375628 l -0.139716,0.80067 z m 0,0"
       id="path1465" />
    <path
       style="fill:#00577a;fill-opacity:1;fill-rule:nonzero;stroke:none;stroke-width:1.37563121"
       d="m 68.346298,289.80957 c -0.612581,-0.19341 -1.354127,-0.13453 -1.821637,0.14506 l -1.2198,6.89965 h -1.289653 l 1.316521,-7.46924 c 0.849026,-0.39228 1.628194,-0.60183 3.492822,-0.55886 z m 0,0"
       id="path1467" />
    <path
       style="fill:#00577a;fill-opacity:1;fill-rule:nonzero;stroke:none;stroke-width:1.37563121"
       d="m 71.124425,287.43981 c -0.4245,0 -0.7093,-0.32248 -0.63945,-0.70392 0.0699,-0.39763 0.46214,-0.72007 0.88664,-0.72007 0.41376,0 0.69319,0.32248 0.62333,0.72007 -0.0699,0.38136 -0.46212,0.70392 -0.87052,0.70392 m -2.305252,9.41451 1.391752,-7.89377 h 1.28965 l -1.39175,7.89377 z m 0,0"
       id="path1469" />
    <path
       style="fill:#00577a;fill-opacity:1;fill-rule:nonzero;stroke:none;stroke-width:1.37563121"
       d="m 74.767705,296.99942 c -1.73028,0 -2.72978,-1.55299 -2.27839,-4.10006 0.45137,-2.59542 1.99359,-4.08391 3.75074,-4.08391 0.96725,0 1.44012,0.30611 1.64968,0.52662 l -0.44062,0.74156 c -0.19883,-0.17197 -0.51587,-0.3763 -1.10158,-0.3763 -1.44012,0 -2.22466,1.30576 -2.55244,3.1489 -0.32779,1.88612 0.11281,3.19188 1.38637,3.19188 0.54273,0 0.94037,-0.17742 1.27353,-0.37629 l 0.17735,0.80067 c -0.36003,0.27413 -0.98873,0.52661 -1.86463,0.52661"
       id="path1471" />
    <path
       style="fill:#00577a;fill-opacity:1;fill-rule:nonzero;stroke:none;stroke-width:1.37563121"
       d="m 82.752815,292.37274 c -2.03121,0.25269 -3.29399,0.67172 -3.57342,2.26764 -0.20421,1.13922 0.41376,1.6121 1.58519,1.6121 0.49976,0 1.00486,-0.0913 1.35415,-0.26321 z m -2.21928,4.62668 c -2.04734,0 -2.84799,-0.89742 -2.59006,-2.33214 0.36541,-2.09032 2.4396,-2.70292 4.92755,-2.95545 l 0.086,-0.48364 c 0.21494,-1.21444 -0.45675,-1.56371 -1.46697,-1.56371 -0.76305,0 -1.51534,0.27413 -1.98821,0.49437 l -0.17735,-0.76304 c 0.49974,-0.24723 1.43475,-0.58036 2.5202,-0.58036 1.46699,0 2.6438,0.62871 2.30526,2.56321 l -0.89738,5.06189 c -0.66095,0.34393 -1.61744,0.55887 -2.71902,0.55887"
       id="path1473" />
    <path
       style="fill:#00577a;fill-opacity:1;fill-rule:nonzero;stroke:none;stroke-width:1.37563121"
       d="m 89.378405,296.85432 0.99412,-5.66911 c 0.12887,-0.73079 -0.0374,-1.53684 -1.38102,-1.53684 -0.73616,0 -1.10694,0.10217 -1.54758,0.27959 l -1.2198,6.92651 h -1.28428 l 1.31652,-7.47999 c 0.76306,-0.33847 1.72492,-0.55883 2.98233,-0.55883 2.19779,0 2.62768,1.2144 2.42886,2.34285 l -1.00486,5.69597 z m 0,0"
       id="path1475" />
    <path
       style="fill:#00577a;fill-opacity:1;fill-rule:nonzero;stroke:none;stroke-width:1.37563121"
       d="m 101.46355,287.4076 c -0.53198,0 -0.94037,0.0753 -1.37025,0.22032 l -0.634085,3.58416 h 0.655575 c 2.07957,0 2.90172,-0.63947 3.12741,-1.95599 0.2257,-1.23592 -0.40302,-1.84852 -1.77865,-1.84852 m -1.44548,4.48157 h -0.677075 l -0.70394,4.01403 c 0.34927,0.16105 0.75767,0.23124 1.375635,0.23124 1.31652,0 2.4396,-0.52658 2.69753,-1.99359 0.26867,-1.56371 -0.51586,-2.25153 -2.69215,-2.25153 m -0.102055,5.11028 c -1.1392,0 -2.06883,-0.20433 -2.64917,-0.55886 l 1.62819,-9.25327 c 0.61258,-0.32248 1.617445,-0.55882 2.719025,-0.55882 2.21391,0 3.20802,1.05857 2.95009,2.52016 -0.24719,1.44013 -1.43474,2.17092 -2.36974,2.34827 l -0.005,0.0273 c 0.90276,0.17742 2.15481,1.0693 1.88613,2.60614 C 103.71012,296.15098 101.99597,297 99.916395,297"
       id="path1477" />
    <path
       style="fill:#00577a;fill-opacity:1;fill-rule:nonzero;stroke:none;stroke-width:1.37563121"
       d="m 109.95377,292.37274 c -2.03121,0.25269 -3.29398,0.67172 -3.57878,2.26764 -0.19883,1.13922 0.41914,1.6121 1.59057,1.6121 0.49974,0 0.99411,-0.0913 1.35414,-0.26321 z m -2.21928,4.62668 c -2.0527,0 -2.84798,-0.89742 -2.59543,-2.33214 0.37614,-2.09032 2.4396,-2.70292 4.93293,-2.95545 l 0.0806,-0.48364 c 0.21494,-1.21444 -0.45137,-1.56371 -1.46159,-1.56371 -0.76306,0 -1.51536,0.27413 -1.99361,0.49437 l -0.17192,-0.76304 c 0.49973,-0.24723 1.43473,-0.58036 2.51481,-0.58036 1.46699,0 2.64917,0.62871 2.30525,2.56321 l -0.89199,5.06189 c -0.66096,0.34393 -1.62282,0.55887 -2.71904,0.55887"
       id="path1479" />
    <path
       style="fill:#00577a;fill-opacity:1;fill-rule:nonzero;stroke:none;stroke-width:1.37563121"
       d="m 116.7352,296.85432 0.99949,-5.66911 c 0.12369,-0.73079 -0.0374,-1.53684 -1.38638,-1.53684 -0.73617,0 -1.10159,0.10217 -1.5476,0.27959 l -1.21441,6.92651 h -1.28965 l 1.3219,-7.47999 c 0.76302,-0.33847 1.71954,-0.55883 2.98232,-0.55883 2.19241,0 2.6223,1.2144 2.42885,2.34285 l -1.01023,5.69597 z m 0,0"
       id="path1481" />
    <path
       style="fill:#00577a;fill-opacity:1;fill-rule:nonzero;stroke:none;stroke-width:1.37563121"
       d="m 124.15609,296.85432 -2.29451,-4.06781 h -0.0374 l -0.71468,4.06781 h -1.2574 l 2.02582,-11.49407 h 1.25742 l -1.27891,7.26506 h 0.0269 l 3.46595,-3.66476 h 1.33803 l -3.63254,3.69163 2.56856,4.20214 z m 0,0"
       id="path1483" />
  </g>
</svg>
