<?xml version="1.0" encoding="iso-8859-1"?>
<!-- Generator: Adobe Illustrator 19.0.0, SVG Export Plug-In . SVG Version: 6.00 Build 0)  -->
<svg version="1.1" id="Layer_1" xmlns="http://www.w3.org/2000/svg" xmlns:xlink="http://www.w3.org/1999/xlink" x="0px" y="0px"
	 viewBox="0 0 512 512" style="enable-background:new 0 0 512 512;" xml:space="preserve">
<path style="fill:#FFEA8A;" d="M251.203,141.946c-65.975,2.506-118.624,57.389-118.542,123.412
	c0.042,33.435,13.386,63.752,35.024,85.944c16.974,17.408,26.649,40.644,26.649,64.955v16.176h123.348V416.26
	c0-24.324,9.691-47.559,26.67-64.979c21.661-22.225,35.005-52.593,35.005-86.079C379.356,195.485,321.516,139.276,251.203,141.946z"
	/>
<path style="fill:#FFDB2D;" d="M256.008,141.865v290.569h61.673v-16.173c0-24.324,9.691-47.559,26.67-64.979
	c21.661-22.225,35.005-52.593,35.005-86.079C379.356,197.08,324.131,141.866,256.008,141.865z"/>
<path style="fill:#6DC180;" d="M511.936,260.505c-1.298-57.879-22.545-114.227-59.83-158.66
	c-43.952-52.38-105.67-84.509-173.787-90.468c-68.12-5.96-134.476,14.962-186.855,58.916
	c-52.38,43.952-84.509,105.67-90.468,173.786c-5.96,68.117,14.963,134.477,58.916,186.855l31.799-26.682
	c-36.825-43.886-54.355-99.483-49.361-156.554s31.911-108.78,75.797-145.606c43.886-36.825,99.482-54.363,156.556-49.361
	c57.071,4.992,108.78,31.912,145.605,75.797c61.961,73.843,67.147,178.148,13.951,257.244l-30.568-28.253l3.527,89.071l89.061-3.492
	l-31.232-28.867C496.545,369.708,513.165,315.378,511.936,260.505z"/>
<rect x="235.258" y="307.903" style="fill:#FFAF33;" width="41.511" height="124.534"/>
<path style="fill:#DFDFE1;" d="M256.008,501.619c45.852,0,83.023-37.171,83.023-83.023H172.986
	C172.986,464.449,210.156,501.619,256.008,501.619z"/>
<path style="fill:#CFCDD2;" d="M256.008,418.597v83.023c45.852,0,83.023-37.171,83.023-83.023H256.008z"/>
<path style="fill:#5CA15D;" d="M511.936,260.505c-1.298-57.879-22.545-114.227-59.83-158.66
	c-43.952-52.38-105.67-84.509-173.787-90.468c-7.464-0.653-14.905-0.963-22.311-0.977v41.51c6.205,0.011,12.44,0.273,18.693,0.821
	c57.071,4.992,108.78,31.912,145.605,75.797c61.961,73.843,67.147,178.148,13.951,257.244l-30.568-28.253l3.527,89.071l89.061-3.492
	l-31.232-28.867C496.545,369.708,513.165,315.378,511.936,260.505z"/>
<g>
</g>
<g>
</g>
<g>
</g>
<g>
</g>
<g>
</g>
<g>
</g>
<g>
</g>
<g>
</g>
<g>
</g>
<g>
</g>
<g>
</g>
<g>
</g>
<g>
</g>
<g>
</g>
<g>
</g>
</svg>
