<?xml version="1.0" encoding="UTF-8" standalone="no"?>
<!DOCTYPE svg PUBLIC "-//W3C//DTD SVG 1.1//EN" "http://www.w3.org/Graphics/SVG/1.1/DTD/svg11.dtd">
<svg version="1.1" xmlns="http://www.w3.org/2000/svg" xmlns:xlink="http://www.w3.org/1999/xlink" preserveAspectRatio="xMidYMid meet" viewBox="0 0 640 640" width="640" height="640"><defs><path d="M75.25 352.75C210.25 487.75 429.88 487.75 564.88 352.75C567.05 350.57 577.92 339.65 597.5 320C577.85 300.35 566.93 289.43 564.75 287.25C429.75 152.25 210.13 152.25 75.13 287.25C72.95 289.43 62.08 300.35 42.5 320C62.15 339.65 73.07 350.57 75.25 352.75ZM58.37 369.5C54.26 365.39 21.36 332.49 17.25 328.38C12.62 323.75 12.62 316.25 17.25 311.5C21.36 307.39 54.26 274.49 58.37 270.38C202.63 126.13 437.38 126.13 581.63 270.38C585.74 274.49 618.64 307.39 622.75 311.5C627.38 316.13 627.38 323.63 622.75 328.38C618.64 332.49 585.74 365.39 581.63 369.5C509.5 441.63 414.75 477.75 320 477.75C225.25 477.75 130.5 441.63 58.37 369.5Z" id="f2YaajFl20"></path><path d="M229.38 320C229.38 370 270 410.63 320 410.63C370 410.63 410.63 370 410.63 320C410.63 270 370 229.38 320 229.38C270 229.38 229.38 270 229.38 320ZM205.63 320C205.63 256.88 257 205.63 320 205.63C383 205.63 434.38 257 434.38 320C434.38 383.13 383.13 434.38 320 434.38C256.88 434.38 205.63 383 205.63 320Z" id="atgdAQ8sg"></path><path d="M169.43 517.13L470.57 122.81" id="d3Tzb3Mb7h"></path></defs><g><g><g><use xlink:href="#f2YaajFl20" opacity="1" fill="#707070" fill-opacity="1"></use><g><use xlink:href="#f2YaajFl20" opacity="1" fill-opacity="0" stroke="#000000" stroke-width="1" stroke-opacity="0"></use></g></g><g><use xlink:href="#atgdAQ8sg" opacity="1" fill="#707070" fill-opacity="1"></use><g><use xlink:href="#atgdAQ8sg" opacity="1" fill-opacity="0" stroke="#000000" stroke-width="1" stroke-opacity="0"></use></g></g><g><use xlink:href="#d3Tzb3Mb7h" opacity="1" fill="#707070" fill-opacity="1"></use><g><use xlink:href="#d3Tzb3Mb7h" opacity="1" fill-opacity="0" stroke="#707070" stroke-width="15" stroke-opacity="1"></use></g></g></g></g></svg>