<?xml version="1.0" encoding="utf-8"?>
<!-- Generator: Adobe Illustrator 21.1.0, SVG Export Plug-In . SVG Version: 6.00 Build 0)  -->
<svg version="1.1" id="Layer_1" xmlns="http://www.w3.org/2000/svg" xmlns:xlink="http://www.w3.org/1999/xlink" x="0px" y="0px"
	 viewBox="0 0 283.465 226.77" enable-background="new 0 0 283.465 226.77" xml:space="preserve">
<g>
	<path fill="#FFFFFF" d="M95.427,124.353c-0.924,0-1.452,0.528-1.452,1.452v25.916c0,0.924,0.528,1.452,1.452,1.452h14.344
		c0.924,0,1.452-0.528,1.452-1.452v-3.872c0-0.924-0.528-1.452-1.452-1.452h-8.492v-4.488h7.612c0.924,0,1.452-0.528,1.452-1.452
		v-3.828c0-0.924-0.528-1.452-1.452-1.452h-7.612v-4.048h8.492c0.924,0,1.452-0.528,1.452-1.452v-3.872
		c0-0.924-0.528-1.452-1.452-1.452H95.427z M71.756,124.353c-0.924,0-1.452,0.528-1.452,1.452v3.872
		c0,0.924,0.528,1.452,1.452,1.452h5.852v20.592c0,0.924,0.528,1.452,1.452,1.452h4.4c0.924,0,1.452-0.528,1.452-1.452v-20.592
		h5.852c0.924,0,1.452-0.528,1.452-1.452v-3.872c0-0.924-0.528-1.452-1.452-1.452H71.756z M62.692,124.353
		c-0.924,0-1.452,0.528-1.452,1.452v25.916c0,0.924,0.528,1.452,1.452,1.452h4.4c0.924,0,1.452-0.528,1.452-1.452v-25.916
		c0-0.924-0.528-1.452-1.452-1.452H62.692z M43.772,124.353c-0.924,0-1.452,0.528-1.452,1.452v25.916
		c0,0.924,0.528,1.452,1.452,1.452h14.476c0.924,0,1.452-0.528,1.452-1.452v-3.828c0-0.924-0.528-1.452-1.452-1.452h-8.624v-20.636
		c0-0.924-0.528-1.452-1.452-1.452H43.772z"/>
</g>
<g>
	<g>
		<g>
			<path fill="#00A44C" d="M204.324,112.187h-24.897c-3.759,0-3.736,0.122-3.736-2.895V94.967c0-0.522,0.401-0.949,0.894-0.978
				h14.474c0.491,0.029,1.091,0.34,1.4,0.729l12.268,16.72C205.001,111.851,204.832,112.187,204.324,112.187 M248.159,88.869h-7.131
				c-0.794,0-1.531,0.77-1.54,0.789L223.67,110.63c-0.314,0.431-0.826,0.419-1.131-0.026l-15.106-20.874
				c-0.011-0.019-0.596-0.814-1.701-0.814h-29.08c-0.525,0-0.959-0.446-0.955-0.982l0.015-7.046c0-1.1-0.853-1.982-1.906-1.982
				h-11.566h-1.561h-1.015c-1.051,0-1.904,0.881-1.904,1.982v0.858v29.007c0.222,3.669,2.746,7.738,9.746,7.738h58.28
				c1.384,0,2.09-0.924,2.09-0.924l20.748-28.038C248.625,89.528,249.072,88.869,248.159,88.869"/>
			<path fill="#EC2027" d="M126.488,113.156c-6.127,0-10.979-5.345-11.067-14.35c-0.09-9.008,4.645-15.187,10.751-15.187
				c6.062,0,10.669,5.963,10.759,14.969C137.017,107.597,132.418,113.156,126.488,113.156 M129.379,78.27v-0.028h-1.945h-0.978
				h-1.935v0.028c-19.239,0.585-26.088,9.318-26.834,17.861h-5.5h-1.837h-6.361h-0.445h-3.157h-6.99
				c-0.495,0.029-0.892,0.457-0.892,0.977v3.415c0,0.521,0.397,0.948,0.892,0.978h6.065v0.003h2.618
				c0.541,0.018,0.976,0.475,0.976,1.039l0.007,0.005v5.15v0.016v2.04c0,2.088-0.76,2.587-7.498,2.587
				c-11.384,0-21.006-4.911-21.006-13.637v-0.006v-0.007c0-8.977,8.512-13.98,22.26-13.98h3.74v0.015h11.547
				c0.495-0.026,0.892-0.455,0.892-0.975V79.88c0-0.524-0.397-0.949-0.892-0.978H80.802h-0.243h-7.528
				c-28.995,0-36.281,10.812-36.281,19.789v0.007v0.006c0,8.978,7.286,19.79,36.281,19.79h10.903
				c5.704-0.006,9.821-0.427,13.039-2.382c1.2-0.73,3.333-1.956,3.56-4.269l0.004,0v-0.051c0.014-0.149,0.04-0.29,0.04-0.448v-1.49
				c0-0.54-0.003-0.817-0.003-0.947c0,0,0.24,0.388,0.555,0.814l0.222,0.302c3.469,5.204,10.584,8.717,23.17,9.1v0.032h1.935h0.978
				h1.945v-0.032c20.707-0.634,25.989-11.42,25.989-20.419v-0.007v-0.005C155.367,89.69,150.086,78.902,129.379,78.27"/>
		</g>
	</g>
</g>
</svg>
