<?xml version="1.0" standalone="no"?>
<!DOCTYPE svg PUBLIC "-//W3C//DTD SVG 20010904//EN"
 "http://www.w3.org/TR/2001/REC-SVG-20010904/DTD/svg10.dtd">
<svg version="1.0" xmlns="http://www.w3.org/2000/svg"
 width="114.000000pt" height="68.000000pt" viewBox="0 0 114.000000 68.000000"
 preserveAspectRatio="xMidYMid meet">
<metadata>
Created by potrace 1.15, written by Peter Selinger 2001-2017
</metadata>
<g transform="translate(0.000000,68.000000) scale(0.100000,-0.100000)"
fill="#000000" stroke="none">
<path d="M477 662 c-64 -23 -142 -92 -167 -149 -15 -34 -20 -67 -20 -129 0
-46 3 -84 8 -84 4 0 18 -20 32 -45 14 -25 28 -45 32 -45 14 0 9 16 -12 40 -11
13 -20 29 -20 35 0 15 33 30 38 17 6 -19 52 -75 52 -65 0 7 -5 15 -10 18 -23
14 -50 86 -50 132 0 36 -5 51 -19 60 -13 8 -17 19 -14 37 3 14 10 26 15 26 5
0 7 3 5 8 -8 13 28 41 42 33 11 -7 10 -15 -5 -42 -11 -19 -23 -37 -28 -40 -4
-4 -3 -9 2 -13 6 -3 14 3 17 15 11 34 67 91 110 110 22 10 33 19 25 18 -8 0
-26 -6 -40 -14 -34 -19 -40 -19 -40 6 0 14 5 19 14 16 8 -3 16 2 19 12 2 10
10 18 18 19 8 1 35 4 62 8 36 5 47 4 47 -7 0 -12 2 -12 9 0 6 8 14 10 22 5 8
-5 22 -10 33 -11 10 -2 31 -12 46 -23 16 -11 33 -20 39 -20 17 0 13 -30 -5
-37 -8 -3 -25 3 -37 14 -27 24 -77 46 -77 34 0 -5 11 -12 25 -15 34 -9 100
-69 115 -106 7 -17 15 -29 17 -26 2 2 -4 22 -15 44 -17 35 -17 42 -5 46 18 7
35 -2 28 -15 -4 -5 -2 -9 3 -9 10 0 32 -44 32 -65 0 -8 -9 -15 -20 -15 -17 0
-20 -7 -20 -50 0 -49 -27 -121 -50 -135 -16 -10 -12 -25 5 -19 8 3 14 9 13 12
-5 17 25 52 42 52 24 0 26 -23 5 -44 -8 -8 -15 -18 -15 -22 0 -12 -71 -74 -85
-74 -24 0 -26 31 -3 51 19 16 15 15 -17 -3 -57 -32 -154 -32 -209 0 -23 14
-34 17 -27 8 7 -8 21 -18 32 -21 11 -4 17 -11 14 -16 -3 -5 1 -6 9 -3 11 4 16
0 16 -10 0 -18 4 -19 28 -7 22 12 121 29 127 23 10 -10 5 -39 -7 -40 -104 -14
-149 -12 -192 7 -24 12 -53 32 -64 46 -14 18 -23 22 -28 14 -9 -15 26 -44 84
-70 58 -26 165 -26 224 0 52 23 96 63 128 116 13 22 28 43 34 47 5 4 12 35 14
70 3 51 -1 75 -19 119 -30 68 -44 86 -94 125 -79 62 -177 78 -268 46z"/>
<path d="M510 574 c-85 -30 -132 -94 -133 -183 0 -68 24 -115 81 -159 31 -24
44 -27 112 -27 69 0 80 3 114 29 131 99 100 289 -55 339 -61 20 -62 20 -119 1z"/>
<path d="M220 139 c0 -69 3 -129 7 -132 3 -4 15 1 26 10 18 17 19 17 32 -1 21
-29 35 -9 35 50 0 47 -5 62 -42 117 -23 34 -45 66 -50 72 -4 5 -8 -47 -8 -116z"/>
<path d="M873 198 c-40 -61 -43 -71 -43 -132 0 -66 10 -82 29 -48 10 16 12 16
26 -2 28 -36 36 -6 33 124 l-3 124 -42 -66z"/>
</g>
</svg>
