<?xml version="1.0" standalone="no"?>
<!DOCTYPE svg PUBLIC "-//W3C//DTD SVG 20010904//EN"
 "http://www.w3.org/TR/2001/REC-SVG-20010904/DTD/svg10.dtd">
<svg version="1.0" xmlns="http://www.w3.org/2000/svg"
 width="57.000000pt" height="34.000000pt" viewBox="0 0 57.000000 34.000000"
 preserveAspectRatio="xMidYMid meet">
<metadata>
Created by potrace 1.15, written by Peter Selinger 2001-2017
</metadata>
<g transform="translate(0.000000,34.000000) scale(0.100000,-0.100000)"
fill="#000000" stroke="none">
<path d="M223 264 c-15 -15 -21 -21 -12 -15 21 14 31 3 18 -20 -5 -11 -7 -35
-3 -54 6 -31 4 -35 -12 -29 -14 4 -12 -1 8 -19 15 -14 25 -27 23 -28 -2 -2 16
-4 40 -4 24 0 42 2 40 4 -2 1 8 14 23 28 19 18 22 23 9 19 -17 -5 -18 -2 -12
36 l6 43 -21 -27 c-28 -36 -40 -35 -40 2 0 25 4 30 25 30 14 0 24 3 24 8 -3
19 3 23 19 12 9 -7 4 -1 -11 14 -38 35 -86 35 -124 0z"/>
</g>
</svg>
