<?xml version="1.0" encoding="iso-8859-1"?>
<!-- Generator: Adobe Illustrator 19.0.0, SVG Export Plug-In . SVG Version: 6.00 Build 0)  -->
<svg version="1.1" id="Layer_1" xmlns="http://www.w3.org/2000/svg" xmlns:xlink="http://www.w3.org/1999/xlink" x="0px" y="0px"
	 viewBox="0 0 512 512" style="enable-background:new 0 0 512 512;" fill="#123C68" xml:space="preserve">
<g>
	<g>
		<g>
			<path d="M464.983,81.27c-1.898-3.422-5.502-5.544-9.416-5.544h-10.245c-42.632,0-79.699-27.377-92.237-68.124
				C351.694,3.083,347.52,0,342.793,0H169.208c-4.727,0-8.902,3.083-10.292,7.602c-12.538,40.747-49.606,68.124-92.238,68.124
				H56.434c-3.913,0-7.518,2.123-9.416,5.544c-72.398,130.523,66.93,279.55,150.175,368.59
				c22.038,23.573,41.071,43.93,49.795,57.267c1.989,3.041,5.377,4.873,9.011,4.873c3.634,0,7.022-1.833,9.011-4.873
				c8.724-13.337,27.756-33.693,49.794-57.266C398.052,360.82,537.381,211.792,464.983,81.27z M428.469,272.559
				c-34.815,61.432-89.48,119.902-129.395,162.595c-17.692,18.923-32.604,34.874-43.074,47.944
				c-10.471-13.071-25.383-29.021-43.074-47.944c-39.915-42.694-94.58-101.164-129.395-162.595
				C44.857,204.317,38.089,146.89,62.927,97.26h3.752c25.426,0,49.676-7.984,70.128-23.089
				c18.287-13.506,32.025-31.587,40.074-52.635H335.12c8.049,21.049,21.787,39.13,40.073,52.635
				c20.452,15.105,44.702,23.089,70.128,23.089h3.754C473.912,146.89,467.145,204.317,428.469,272.559z"/>
			<path d="M428.153,117.762c-43.557-5.277-82.46-31.161-104.064-69.237c-1.912-3.371-5.489-5.454-9.366-5.454H197.277
				c-3.876,0-7.452,2.084-9.366,5.454c-21.603,38.076-60.506,63.959-104.064,69.237c-4.241,0.515-7.779,3.488-9.013,7.578
				c-4.961,16.437-6.161,33.551-3.669,52.322c3.383,25.48,13.846,53.835,31.099,84.28c33.556,59.209,85.03,114.266,126.39,158.504
				c6.876,7.355,13.371,14.303,19.414,20.88c2.039,2.22,4.915,3.482,7.929,3.482s5.89-1.263,7.929-3.482
				c5.945-6.471,12.382-13.356,19.197-20.646l0.218-0.234c41.361-44.238,92.834-99.295,126.391-158.504
				c17.252-30.442,27.716-58.798,31.099-84.28c2.493-18.771,1.293-35.885-3.669-52.322
				C435.931,121.249,432.395,118.276,428.153,117.762z M419.486,174.827c-3.018,22.731-12.604,48.467-28.488,76.496
				c-32.297,56.988-82.803,111.009-123.387,154.416l-0.217,0.234c-3.928,4.201-7.731,8.27-11.394,12.209
				c-3.737-4.02-7.611-8.163-11.613-12.443c-40.582-43.407-91.089-97.429-123.384-154.416
				c-15.884-28.029-25.47-53.766-28.488-76.496c-1.748-13.159-1.35-25.247,1.224-36.742c22.316-3.759,43.797-12.241,62.527-24.739
				c18.91-12.618,35.103-29.382,47.136-48.74H308.6c12.033,19.358,28.225,36.122,47.135,48.741
				c18.729,12.497,40.211,20.979,62.527,24.739C420.836,149.58,421.234,161.669,419.486,174.827z"/>
			<path d="M294.331,195.437c2.583-5.157,4.045-10.967,4.045-17.116v-27.323c0-20.968-17.059-38.026-38.027-38.026h-8.37
				c-21.15,0-38.357,17.206-38.357,38.355v26.993c0,6.148,1.462,11.96,4.045,17.116c-20.853,2.437-37.092,20.201-37.092,41.699
				v58.089c0,5.946,4.821,10.768,10.768,10.768h129.31c5.947,0,10.768-4.822,10.768-10.768v-58.089
				C331.424,215.639,315.185,197.874,294.331,195.437z M235.16,151.328c0-9.274,7.546-16.82,16.821-16.82h8.37
				c9.093,0,16.492,7.397,16.492,16.491v27.323c0,9.274-7.546,16.82-16.821,16.82h-8.04c-9.275,0-16.821-7.546-16.821-16.82V151.328
				z M271.135,216.677l-15.134,23.412l-15.134-23.412H271.135z M202.113,284.458v-47.322c0-8.961,5.799-16.576,13.835-19.337
				l31.009,47.971c1.984,3.069,5.389,4.922,9.043,4.922c3.653,0,7.059-1.854,9.043-4.922l31.009-47.971
				c8.036,2.761,13.835,10.376,13.835,19.337v47.322H202.113z"/>
		</g>
	</g>
</g>
<g>
</g>
<g>
</g>
<g>
</g>
<g>
</g>
<g>
</g>
<g>
</g>
<g>
</g>
<g>
</g>
<g>
</g>
<g>
</g>
<g>
</g>
<g>
</g>
<g>
</g>
<g>
</g>
<g>
</g>
</svg>
