<?xml version="1.0" encoding="iso-8859-1"?>
<!-- Generator: Adobe Illustrator 19.0.0, SVG Export Plug-In . SVG Version: 6.00 Build 0)  -->
<svg version="1.1" id="Layer_1" xmlns="http://www.w3.org/2000/svg" xmlns:xlink="http://www.w3.org/1999/xlink" x="0px" y="0px"
	 viewBox="0 0 496 496" style="enable-background:new 0 0 496 496;" fill="#123C68" xml:space="preserve">
<g>
	<g>
		<g>
			<rect x="88" y="456" width="64" height="16"/>
			<path d="M376,0c-53.36,0-98.648,35.024-114.2,83.28C251.8,81.136,241.808,80,232,80c-42.504,0-80.64,18.616-107.024,48H40
				c-22.056,0-40,17.944-40,40v288c0,22.056,17.944,40,40,40h160c22.056,0,40-17.944,40-40v-88.392
				c70.008-3.872,127.072-57.92,134.776-127.672c0.416,0.008,0.808,0.064,1.224,0.064c66.168,0,120-53.832,120-120S442.168,0,376,0z
				 M204.968,98.936c-13.328,12.504-29.44,31.84-40.408,58.896c-14.832-4.896-25.4-10.528-31.784-14.544
				C150.816,121.144,176.088,105.168,204.968,98.936z M164.528,290.104c10.968,27.096,27.096,46.448,40.44,58.968
				c-28.888-6.24-54.176-22.232-72.216-44.384C139.104,300.648,149.648,295,164.528,290.104z M123.504,291.592
				c-10.944-17.512-17.744-37.8-19.096-59.592h47.96c0.664,15.784,3.056,30.16,6.848,42.976
				C142.608,280.472,130.776,286.896,123.504,291.592z M159.216,173.024c-3.792,12.816-6.192,27.192-6.848,42.976h-47.96
				c1.352-21.792,8.152-42.08,19.096-59.592C130.776,161.104,142.608,167.528,159.216,173.024z M40,144h72.352
				c-5.056,7.536-9.44,15.552-13.016,24H16C16,154.768,26.768,144,40,144z M224,456c0,13.232-10.768,24-24,24H40
				c-13.232,0-24-10.768-24-24v-8h208V456z M224,432H16V184h77.768C90.08,196.72,88,210.112,88,224
				c0,76.696,60.328,139.408,136,143.592V432z M224,344.368c-12.32-10.088-31.312-29.304-43.728-58.648
				c12.392-2.904,26.944-4.992,43.728-5.52V344.368z M224,264.208c-18.96,0.56-35.352,2.984-49.256,6.368
				c-3.48-11.528-5.712-24.432-6.368-38.576H224V264.208z M224,216h-55.632c0.648-14.184,2.856-27.08,6.28-38.6
				c13.92,3.392,30.344,5.832,49.352,6.392V216z M224,167.792c-16.816-0.536-31.432-2.664-43.88-5.608
				c12.384-29.544,31.488-48.736,43.88-58.744V167.792z M240,103.68c4.656,3.816,10.216,8.912,16.048,15.312
				c0,0.336-0.048,0.664-0.048,1.008c0,16.184,3.264,31.608,9.096,45.712c-8.192,1.152-16.592,1.832-25.096,2.104V103.68z
				 M240,183.816c11.112-0.344,22.04-1.392,32.648-3.136c6.104,10.36,13.712,19.696,22.528,27.76c0.24,2.576,0.464,5.12,0.584,7.56
				H240V183.816z M240,232h55.632c-0.648,14.184-2.856,27.08-6.28,38.6c-13.92-3.392-30.344-5.832-49.352-6.392V232z M240,344.56
				v-64.352c16.824,0.536,31.432,2.664,43.88,5.608C271.488,315.368,252.4,334.552,240,344.56z M259.08,349.024
				c13.312-12.504,29.4-31.824,40.352-58.848c14.744,4.872,25.264,10.456,31.664,14.472
				C313.08,326.816,287.872,342.784,259.08,349.024z M340.472,291.576c-7.272-4.688-19.104-11.112-35.688-16.6
				c3.792-12.816,6.192-27.192,6.848-42.976h21.64c8.144,3.12,16.696,5.352,25.576,6.632
				C356.648,257.952,350.232,275.904,340.472,291.576z M432,207.496C415.816,217.888,396.624,224,376,224
				c-20.624,0-39.816-6.112-56-16.504V200c0-30.872,25.128-56,56-56s56,25.128,56,56V207.496z M447.752,195.096
				C445.216,157.68,414.048,128,376,128c-38.048,0-69.216,29.68-71.752,67.096C284.424,176.152,272,149.52,272,120
				c0-57.344,46.656-104,104-104s104,46.656,104,104C480,149.52,467.576,176.152,447.752,195.096z"/>
			<path d="M424,80c0-26.472-21.528-48-48-48s-48,21.528-48,48s21.528,48,48,48S424,106.472,424,80z M376,112
				c-17.648,0-32-14.352-32-32s14.352-32,32-32s32,14.352,32,32S393.648,112,376,112z"/>
			<rect x="32" y="400" width="16" height="16"/>
			<rect x="32" y="368" width="16" height="16"/>
			<rect x="32" y="336" width="16" height="16"/>
			<rect x="64" y="400" width="16" height="16"/>
			<rect x="96" y="400" width="16" height="16"/>
			<rect x="64" y="368" width="16" height="16"/>
			<rect x="256" y="432" width="16" height="16"/>
			<rect x="288" y="432" width="16" height="16"/>
			<rect x="320" y="432" width="16" height="16"/>
			<rect x="352" y="432" width="16" height="16"/>
			<rect x="384" y="432" width="16" height="16"/>
			<rect x="416" y="432" width="16" height="16"/>
			<rect x="416" y="400" width="16" height="16"/>
			<rect x="416" y="368" width="16" height="16"/>
			<rect x="416" y="336" width="16" height="16"/>
			<rect x="416" y="304" width="16" height="16"/>
			<rect x="416" y="272" width="16" height="16"/>
			<rect x="416" y="240" width="16" height="16"/>
		</g>
	</g>
</g>
<g>
</g>
<g>
</g>
<g>
</g>
<g>
</g>
<g>
</g>
<g>
</g>
<g>
</g>
<g>
</g>
<g>
</g>
<g>
</g>
<g>
</g>
<g>
</g>
<g>
</g>
<g>
</g>
<g>
</g>
</svg>
