<svg width="65" height="65" viewBox="0 0 65 65" fill="none" xmlns="http://www.w3.org/2000/svg">
<path d="M42.2883 22.8516L38.3114 21.3041L40.7644 19.043C44.0021 15.3866 45.8301 10.5878 45.8301 5.71289C45.8301 4.64636 44.9923 3.80859 43.9258 3.80859C43.6589 3.80859 42.8973 2.97058 42.4785 2.51354C41.4501 1.40918 40.1935 0 38.2129 0C36.2323 0 34.9757 1.40918 33.9473 2.51354C33.5284 2.97058 32.7669 3.80859 32.5 3.80859C32.2331 3.80859 31.4716 2.97058 31.0527 2.51354C30.0243 1.40918 28.7677 0 26.7871 0C24.8447 0 23.6257 1.33288 22.4453 2.62793C22.0264 3.04688 21.3411 3.80859 21.0742 3.80859C20.0077 3.80859 19.1699 4.64636 19.1699 5.71289C19.1699 10.5878 20.9979 15.3866 24.2356 19.043L30.4971 21.3041L22.7117 22.8516C16.8086 27.536 7.74414 36.7401 7.74414 47.8613C7.74414 63.2098 21.8739 65 32.5 65C43.1261 65 57.2559 63.2098 57.2559 47.8613C57.2559 36.7401 48.1914 27.536 42.2883 22.8516Z" fill="url(#paint0_linear)"/>
<path d="M47.7344 15.2344C46.6678 15.2344 45.8301 16.0721 45.8301 17.1387C45.8301 18.205 44.9923 19.043 43.9258 19.043H40.7644H24.2356C24.6322 19.5531 24.8254 19.73 25.6824 20.6426C24.8828 21.2139 23.8544 21.9375 22.7117 22.8516H42.2883H43.9258C47.0872 22.8516 49.6387 20.2997 49.6387 17.1387C49.6387 16.0721 48.8009 15.2344 47.7344 15.2344ZM33.8329 31.2941C33.1092 30.5324 31.8906 30.5324 31.167 31.2941L19.7412 42.7199C18.9795 43.4435 18.9795 44.6621 19.7412 45.3857C20.4265 46.1477 21.7221 46.1475 22.4071 45.3857L22.9785 44.8528V51.6699C22.9785 52.7365 23.8163 53.5742 24.8828 53.5742H30.5957V47.8613C30.5957 46.7948 31.4335 45.957 32.5 45.957C33.5665 45.957 34.4043 46.7948 34.4043 47.8613V53.5742H40.1172C41.1837 53.5742 42.0215 52.7365 42.0215 51.6699V44.8527L42.5929 45.3856C43.2782 46.1476 44.5737 46.1473 45.2588 45.3856C46.0205 44.662 46.0205 43.4434 45.2588 42.7197L33.8329 31.2941Z" fill="url(#paint1_linear)"/>
<defs>
<linearGradient id="paint0_linear" x1="32.5" y1="65" x2="32.5" y2="0" gradientUnits="userSpaceOnUse">
<stop stop-color="#FD5900"/>
<stop offset="1" stop-color="#FFDE00"/>
</linearGradient>
<linearGradient id="paint1_linear" x1="34.4043" y1="53.5742" x2="34.4043" y2="15.2344" gradientUnits="userSpaceOnUse">
<stop stop-color="#FFE59A"/>
<stop offset="1" stop-color="#FFFFD5"/>
</linearGradient>
</defs>
</svg>
