<?xml version="1.0" standalone="no"?>
<!DOCTYPE svg PUBLIC "-//W3C//DTD SVG 20010904//EN"
 "http://www.w3.org/TR/2001/REC-SVG-20010904/DTD/svg10.dtd">
<svg version="1.0" xmlns="http://www.w3.org/2000/svg"
 width="339.000000pt" height="226.000000pt" viewBox="0 0 339.000000 226.000000"
 preserveAspectRatio="xMidYMid meet">
<metadata>
Created by potrace 1.15, written by Peter Selinger 2001-2017
</metadata>
<g transform="translate(0.000000,226.000000) scale(0.100000,-0.100000)"
fill="#000000" stroke="none">
<path d="M905 1979 c-59 -13 -110 -60 -134 -122 -11 -28 -31 -79 -45 -112 -13
-33 -25 -78 -26 -100 -4 -90 -1 -105 34 -143 l35 -37 43 41 c24 23 60 48 81
55 43 15 46 26 12 58 -14 13 -25 29 -25 36 0 7 -9 15 -20 18 -13 3 -20 14 -20
30 0 31 16 43 35 27 12 -10 15 -9 15 5 0 10 15 34 33 54 l33 37 30 -18 c16
-11 41 -17 56 -15 23 3 28 -1 33 -24 9 -41 -5 -116 -26 -143 -27 -35 -24 -53
12 -61 17 -4 46 -20 64 -37 33 -28 35 -29 64 -14 16 9 33 21 36 27 12 19 -5
76 -30 101 -31 31 -45 69 -45 122 0 103 -55 194 -131 216 -39 12 -59 11 -114
-1z"/>
<path d="M2181 1947 c-33 -19 -50 -55 -51 -103 0 -47 27 -83 36 -48 3 11 24
27 49 37 42 18 45 18 94 0 45 -16 51 -21 51 -47 0 -23 3 -26 14 -17 11 9 17 8
29 -3 17 -18 12 -55 -9 -63 -15 -5 -47 -63 -39 -71 10 -11 58 32 72 65 17 41
20 146 5 183 -5 14 -22 36 -37 50 -23 22 -37 25 -108 28 -56 1 -90 -2 -106
-11z"/>
<path d="M2375 1508 c-45 -12 -94 -18 -138 -16 l-68 3 7 -85 c12 -143 5 -135
117 -138 l96 -3 7 51 c6 47 9 51 29 46 13 -3 37 -3 55 1 31 6 32 7 26 47 -8
47 -36 109 -51 112 -5 0 -41 -7 -80 -18z"/>
<path d="M2180 1198 c0 -13 -5 -77 -10 -143 -8 -104 -12 -121 -31 -135 l-21
-17 10 -272 c6 -150 13 -275 16 -278 8 -8 84 -9 91 -1 4 4 10 122 13 262 4
214 7 256 20 261 8 3 16 4 17 3 1 -2 7 -56 13 -121 7 -73 18 -133 29 -155 19
-38 189 -184 208 -179 6 2 20 19 33 37 l23 34 -65 65 c-35 36 -70 77 -77 91
-16 33 -27 399 -11 409 6 3 14 34 18 69 l7 62 -64 0 c-35 1 -93 7 -129 15 -86
19 -90 19 -90 -7z"/>
<path d="M549 1168 c-13 -24 -31 -134 -29 -178 0 -14 0 -58 0 -97 l0 -73 39 0
c36 0 39 2 43 33 6 41 1 184 -9 266 -9 69 -24 86 -44 49z"/>
<path d="M814 1053 c-10 -89 -11 -330 -1 -366 14 -51 58 -67 183 -67 132 0
209 18 218 53 8 29 8 156 0 195 -6 28 -11 31 -56 37 -44 6 -51 11 -63 39 -7
17 -16 59 -20 94 l-7 63 -42 -6 c-37 -6 -127 4 -183 21 -20 5 -22 1 -29 -63z"/>
</g>
</svg>
