<svg width="18" height="18" viewBox="0 0 18 18" fill="none" xmlns="http://www.w3.org/2000/svg">
<g clip-path="url(#clip0)">
<path d="M16.4465 15.1823L15.1588 13.0358C14.564 12.045 14.2498 10.9102 14.2498 9.75526V7.875C14.2498 5.50125 12.6658 3.49351 10.4998 2.84625V1.50001C10.4998 0.67275 9.82702 0 8.99976 0C8.1725 0 7.49975 0.67275 7.49975 1.50001V2.84625C5.33377 3.49351 3.74977 5.50125 3.74977 7.875V9.75526C3.74977 10.9102 3.43551 12.0442 2.84151 13.035L1.55377 15.1815C1.48402 15.2978 1.48251 15.4418 1.54927 15.5595C1.61603 15.6773 1.73978 15.75 1.87478 15.75H16.1248C16.2598 15.75 16.3843 15.6773 16.451 15.5603C16.5178 15.4433 16.5155 15.2978 16.4465 15.1823Z" fill="white"/>
<path d="M6.638 16.5C7.061 17.3835 7.9565 18 8.99973 18C10.043 18 10.9385 17.3835 11.3615 16.5H6.638Z" fill="white"/>
</g>
<defs>
<clipPath id="clip0">
<rect width="18" height="18" fill="white"/>
</clipPath>
</defs>
</svg>
