<svg width="13" height="17" viewBox="0 0 13 17" fill="none" xmlns="http://www.w3.org/2000/svg">
<path d="M1.29998 17H11.7C12.4189 17 13 16.4142 13 15.6923V7.84616C13 7.12432 12.4189 6.53849 11.7 6.53849V5.23076C11.7 2.346 9.36775 0 6.49997 0C3.63219 0 1.29998 2.346 1.29998 5.23076V6.53843C0.581101 6.53843 4.79226e-09 7.12426 4.79226e-09 7.8461V15.6923C-6.09328e-05 16.4142 0.58104 17 1.29998 17ZM3.89995 5.23076C3.89995 3.78835 5.06605 2.61535 6.49997 2.61535C7.93389 2.61535 9.09999 3.78835 9.09999 5.23076V6.53843H3.90001V5.23076H3.89995Z" fill="white"/>
</svg>
