<svg xmlns="http://www.w3.org/2000/svg" width="18.77" height="31" viewBox="0 0 18.77 31"><defs><style>.a{fill:#fff;}</style></defs><g transform="translate(-101)"><g transform="translate(103.422 12.109)"><path class="a" d="M153.109,200H142.816A1.818,1.818,0,0,0,141,201.816v2.422a1.818,1.818,0,0,0,1.816,1.816h10.293a1.818,1.818,0,0,0,1.816-1.816v-2.422A1.818,1.818,0,0,0,153.109,200Zm.606,4.238a.606.606,0,0,1-.606.605H142.816a.606.606,0,0,1-.605-.605v-2.422a.606.606,0,0,1,.605-.606h10.293a.606.606,0,0,1,.606.606Z" transform="translate(-141 -200)"/></g><g transform="translate(113.412 14.531)"><path class="a" d="M306.606,240a.605.605,0,1,0,.605.605A.606.606,0,0,0,306.606,240Z" transform="translate(-306 -240)"/></g><g transform="translate(110.99 14.531)"><path class="a" d="M266.605,240a.605.605,0,1,0,.605.605A.606.606,0,0,0,266.605,240Z" transform="translate(-266 -240)"/></g><g transform="translate(106.146 14.531)"><path class="a" d="M189.027,240h-2.422a.605.605,0,1,0,0,1.211h2.422a.605.605,0,1,0,0-1.211Z" transform="translate(-186 -240)"/></g><g transform="translate(101)"><path class="a" d="M116.742,4.844h-.605V1.816A1.818,1.818,0,0,0,114.32,0h-7.871a1.818,1.818,0,0,0-1.816,1.816V4.844h-.605A3.031,3.031,0,0,0,101,7.871v20.1A3.031,3.031,0,0,0,104.027,31h12.715a3.031,3.031,0,0,0,3.027-3.027V7.871A3.031,3.031,0,0,0,116.742,4.844Zm-3.027-3.633h.605a.606.606,0,0,1,.605.605V7.266h-1.211Zm-2.422,0H112.5V7.266h-1.211Zm-5.449.605a.606.606,0,0,1,.605-.605h3.633V7.266h-4.238Zm12.715,26.156a1.818,1.818,0,0,1-1.816,1.816H104.027a1.818,1.818,0,0,1-1.816-1.816V12.715a1.818,1.818,0,0,1,1.816-1.816h12.715a1.818,1.818,0,0,1,1.816,1.816Zm0-17.678a3.012,3.012,0,0,0-1.816-.607H104.027a3.012,3.012,0,0,0-1.816.607V7.871a1.818,1.818,0,0,1,1.816-1.816h.605V7.266h-.605a.605.605,0,0,0,0,1.211h12.715a.605.605,0,1,0,0-1.211h-.605V6.055h.605a1.818,1.818,0,0,1,1.816,1.816Z" transform="translate(-101)"/></g><g transform="translate(104.936 19.436)"><path class="a" d="M166.605,321a.605.605,0,1,0,.605.605A.606.606,0,0,0,166.605,321Z" transform="translate(-166 -321)"/></g><g transform="translate(109.779 19.436)"><path class="a" d="M246.605,321a.605.605,0,1,0,.605.605A.606.606,0,0,0,246.605,321Z" transform="translate(-246 -321)"/></g><g transform="translate(114.623 19.436)"><path class="a" d="M326.605,321a.605.605,0,1,0,.605.605A.606.606,0,0,0,326.605,321Z" transform="translate(-326 -321)"/></g><g transform="translate(109.779 21.857)"><path class="a" d="M246.605,361a.605.605,0,1,0,.605.605A.606.606,0,0,0,246.605,361Z" transform="translate(-246 -361)"/></g><g transform="translate(104.936 21.857)"><path class="a" d="M166.605,361a.605.605,0,1,0,.605.605A.606.606,0,0,0,166.605,361Z" transform="translate(-166 -361)"/></g><g transform="translate(114.623 21.857)"><path class="a" d="M326.605,361a.605.605,0,1,0,.605.605A.606.606,0,0,0,326.605,361Z" transform="translate(-326 -361)"/></g><g transform="translate(114.623 24.279)"><path class="a" d="M326.605,401a.605.605,0,1,0,.605.606A.606.606,0,0,0,326.605,401Z" transform="translate(-326 -401)"/></g><g transform="translate(104.936 24.279)"><path class="a" d="M166.605,401a.605.605,0,1,0,.605.606A.606.606,0,0,0,166.605,401Z" transform="translate(-166 -401)"/></g><g transform="translate(109.779 24.279)"><path class="a" d="M246.605,401a.605.605,0,1,0,.605.606A.606.606,0,0,0,246.605,401Z" transform="translate(-246 -401)"/></g><g transform="translate(104.936 26.701)"><path class="a" d="M166.605,441a.605.605,0,1,0,.605.606A.606.606,0,0,0,166.605,441Z" transform="translate(-166 -441)"/></g><g transform="translate(109.779 26.701)"><path class="a" d="M246.605,441a.605.605,0,1,0,.605.606A.606.606,0,0,0,246.605,441Z" transform="translate(-246 -441)"/></g><g transform="translate(114.623 26.701)"><path class="a" d="M326.605,441a.605.605,0,1,0,.605.606A.606.606,0,0,0,326.605,441Z" transform="translate(-326 -441)"/></g></g></svg>