<svg width="65" height="65" viewBox="0 0 65 65" fill="none" xmlns="http://www.w3.org/2000/svg">
<path d="M65 32.5003C65.0017 34.4404 64.8276 36.3765 64.48 38.2852C63.6497 42.8605 61.8488 47.2047 59.1983 51.0252C56.9747 54.2081 54.208 56.9747 51.025 59.1984C47.2042 61.8486 42.8601 63.6496 38.285 64.4801C34.4595 65.1734 30.5405 65.1734 26.715 64.4801C22.1399 63.6496 17.7958 61.8485 13.975 59.1984C10.792 56.9748 8.02545 54.2081 5.80174 51.0252C-1.93314 39.8864 -1.93314 25.1142 5.80174 13.9754C8.02532 10.7924 10.792 8.02588 13.975 5.80218C17.7955 3.15154 22.1397 1.35047 26.715 0.520454C30.5405 -0.172833 34.4595 -0.172833 38.285 0.520454C42.8603 1.35047 47.2045 3.15154 51.025 5.80218C54.208 8.02575 56.9745 10.7924 59.1983 13.9754C61.8489 17.7959 63.65 22.1401 64.48 26.7153C64.8276 28.624 65.0017 30.5602 65 32.5003Z" fill="#ECF0F1"/>
<path d="M39.706 0.806941L36.4896 10.4448C33.8513 9.96668 31.1486 9.96668 28.5103 10.4448L25.294 0.806941C30.0377 -0.26898 34.9622 -0.26898 39.706 0.806941Z" fill="#E64C3C"/>
<path d="M19.724 14.0871C17.529 15.6209 15.6209 17.529 14.0869 19.7241L4.99809 15.1853C7.58908 11.0703 11.0703 7.58914 15.1853 4.99829L19.724 14.0871Z" fill="#E64C3C"/>
<path d="M10.0861 32.4998C10.0852 33.8378 10.2052 35.1731 10.4448 36.4894L0.806851 39.7058C-0.26895 34.9621 -0.26895 30.0376 0.806851 25.2938L10.4448 28.5101C10.2052 29.8266 10.0852 31.1619 10.0861 32.4998Z" fill="#E64C3C"/>
<path d="M19.724 50.9126L15.1852 60.0014C11.0702 57.4106 7.58906 53.9294 4.9982 49.8144L14.087 45.2756C15.6209 47.4707 17.529 49.3788 19.724 50.9126Z" fill="#E64C3C"/>
<path d="M39.7059 64.1927C34.9622 65.2685 30.0377 65.2685 25.2938 64.1927L28.5102 54.5549C31.1485 55.033 33.8512 55.033 36.4894 54.5549L39.7059 64.1927Z" fill="#E64C3C"/>
<path d="M60.0017 49.8144C57.4108 53.9294 53.9296 57.4106 49.8146 60.0014L45.2758 50.9126C47.4708 49.3788 49.3789 47.4707 50.9129 45.2756L60.0017 49.8144Z" fill="#E64C3C"/>
<path d="M65 32.4998C65.0006 34.9244 64.7299 37.3414 64.1931 39.7058L54.5551 36.4894C55.0333 33.8511 55.0333 31.1484 54.5551 28.5102L64.1931 25.2939C64.7299 27.6582 65.0006 30.0753 65 32.4998Z" fill="#E64C3C"/>
<path d="M54.5552 28.5103C55.0333 31.1486 55.0333 33.8513 54.5552 36.4895C53.9825 39.6447 52.7406 42.6407 50.9129 45.2756C49.379 47.4706 47.4709 49.3787 45.2758 50.9127C42.6407 52.7403 39.6448 53.9822 36.4896 54.5549C33.8512 55.033 31.1485 55.033 28.5103 54.5549C25.355 53.9822 22.3591 52.7404 19.7241 50.9127C17.5291 49.3788 15.621 47.4707 14.087 45.2756C8.75336 37.5935 8.75336 27.4062 14.087 19.724C15.6209 17.529 17.529 15.6209 19.7241 14.0869C22.3592 12.2593 25.3552 11.0174 28.5103 10.4447C31.1487 9.96658 33.8514 9.96658 36.4896 10.4447C39.6449 11.0174 42.6409 12.2592 45.2758 14.0869L49.8146 4.99817C53.9297 7.58901 57.4108 11.0702 60.0017 15.1852L50.9129 19.724C52.7405 22.359 53.9825 25.355 54.5552 28.5103Z" fill="#E64C3C"/>
<path d="M54.9138 32.4999C54.9147 33.8378 54.7947 35.1731 54.5552 36.4895C53.9825 39.6448 52.7406 42.6407 50.9129 45.2756C49.379 47.4706 47.4709 49.3787 45.2758 50.9127C42.6407 52.7403 39.6448 53.9823 36.4896 54.5549C33.8512 55.033 31.1485 55.033 28.5103 54.5549C25.355 53.9823 22.3591 52.7404 19.7241 50.9127C17.5291 49.3788 15.621 47.4707 14.087 45.2756C8.75336 37.5935 8.75336 27.4062 14.087 19.724C15.6209 17.529 17.529 15.6209 19.7241 14.087C22.3592 12.2594 25.3552 11.0174 28.5103 10.4447C31.1487 9.96659 33.8514 9.96659 36.4896 10.4447C39.6449 11.0174 42.6409 12.2592 45.2758 14.087C47.4708 15.6208 49.3789 17.5289 50.9129 19.724C52.7405 22.3591 53.9825 25.355 54.5552 28.5101C54.7947 29.8266 54.9147 31.1619 54.9138 32.4999Z" fill="#C03A2B"/>
<path d="M14.569 33.6206C13.9501 33.6206 13.4482 33.1189 13.4482 32.4999C13.4599 21.9829 21.9828 13.4599 32.5 13.4482C33.1188 13.4482 33.6207 13.95 33.6207 14.569C33.6207 15.188 33.119 15.6897 32.5 15.6897C23.2202 15.7001 15.7001 23.2201 15.6896 32.4999C15.6896 33.1188 15.1879 33.6206 14.569 33.6206Z" fill="#E64C3C"/>
<path d="M32.5 51.5515C31.8811 51.5515 31.3792 51.0498 31.3792 50.4308C31.3792 49.8118 31.8809 49.31 32.5 49.31C41.7797 49.2995 49.2998 41.7795 49.3103 32.4998C49.3103 31.8809 49.8121 31.379 50.4311 31.379C51.05 31.379 51.5518 31.8807 51.5518 32.4998C51.5399 43.0169 43.017 51.5398 32.5 51.5515Z" fill="#E64C3C"/>
<path d="M33.6207 3.36206H31.3793C30.7605 3.36206 30.2586 3.86378 30.2586 4.4828C30.2586 5.10182 30.7603 5.60353 31.3793 5.60353H33.6207C34.2396 5.60353 34.7415 5.10182 34.7415 4.4828C34.7415 3.86378 34.2396 3.36206 33.6207 3.36206Z" fill="#C03A2B"/>
<path d="M12.6884 11.1038L11.1038 12.6884C10.8124 12.9697 10.6956 13.3865 10.7982 13.7783C10.9008 14.1701 11.2067 14.4762 11.5986 14.5787C11.9904 14.6813 12.4072 14.5645 12.6885 14.2732L14.2731 12.6885C14.5645 12.4072 14.6813 11.9904 14.5787 11.5987C14.4761 11.2069 14.1702 10.9008 13.7783 10.7982C13.3864 10.6956 12.9697 10.8124 12.6884 11.1038Z" fill="#C03A2B"/>
<path d="M4.48264 30.2585C3.86374 30.2585 3.36189 30.7602 3.36189 31.3792V33.6206C3.36189 34.2395 3.86361 34.7413 4.48264 34.7413C5.10166 34.7413 5.60338 34.2396 5.60338 33.6206V31.3792C5.60338 30.7602 5.10166 30.2585 4.48264 30.2585Z" fill="#C03A2B"/>
<path d="M12.6884 50.7266C12.2486 50.3019 11.5496 50.3079 11.1173 50.7403C10.6851 51.1726 10.679 51.8716 11.1036 52.3113L12.6883 53.8959C13.128 54.3206 13.827 54.3146 14.2593 53.8822C14.6916 53.45 14.6977 52.751 14.273 52.3112L12.6884 50.7266Z" fill="#C03A2B"/>
<path d="M33.6207 59.3962H31.3793C30.7605 59.3962 30.2586 59.898 30.2586 60.517C30.2586 61.136 30.7603 61.6377 31.3793 61.6377H33.6207C34.2396 61.6377 34.7415 61.136 34.7415 60.517C34.7415 59.898 34.2396 59.3962 33.6207 59.3962Z" fill="#C03A2B"/>
<path d="M52.3115 50.7266L50.7269 52.3112C50.4355 52.5926 50.3187 53.0092 50.4213 53.4011C50.5239 53.7929 50.8298 54.099 51.2217 54.2016C51.6136 54.3041 52.0302 54.1873 52.3116 53.896L53.8963 52.3114C54.3209 51.8716 54.315 51.1726 53.8826 50.7403C53.4503 50.3079 52.7513 50.3018 52.3115 50.7266Z" fill="#C03A2B"/>
<path d="M60.5173 30.2585C59.8984 30.2585 59.3965 30.7602 59.3965 31.3792V33.6206C59.3965 34.2395 59.8982 34.7413 60.5173 34.7413C61.1363 34.7413 61.638 34.2396 61.638 33.6206V31.3792C61.6379 30.7602 61.1362 30.2585 60.5173 30.2585Z" fill="#C03A2B"/>
<path d="M52.3115 11.1038C51.8717 10.6791 51.1727 10.6851 50.7404 11.1175C50.3082 11.5498 50.3021 12.2488 50.7267 12.6885L52.3114 14.2731C52.7511 14.6978 53.4501 14.6918 53.8824 14.2594C54.3147 13.8272 54.3208 13.1282 53.8961 12.6884L52.3115 11.1038Z" fill="#C03A2B"/>
<path d="M34.7413 37.0196V40.0959C34.7413 41.4653 34.9901 43.7067 37.4803 43.7067H27.5196C30.0098 43.7067 30.2586 41.4653 30.2586 40.0959V37.0196C28.2605 38.0016 25.879 37.7702 24.1071 36.4223C22.0148 34.6169 22.0148 31.006 24.1071 27.394C25.5763 24.6798 29.3496 21.9778 32.5 20.1724C35.6502 21.9778 39.4236 24.6798 40.8928 27.394C42.9851 31.006 42.9851 34.6169 40.8928 36.4223C39.1209 37.7702 36.7394 38.0014 34.7413 37.0196Z" fill="#ECF0F1"/>
</svg>
