<svg xmlns="http://www.w3.org/2000/svg" xmlns:xlink="http://www.w3.org/1999/xlink" width="38.386" height="43.331" viewBox="0 0 38.386 43.331"><defs><style>.a{fill:url(#a);}</style><linearGradient id="a" x1="0.5" x2="0.5" y2="1" gradientUnits="objectBoundingBox"><stop offset="0" stop-color="#123c68"/><stop offset="1" stop-color="#26507d"/></linearGradient></defs><g transform="translate(-17.126)"><path class="a" d="M21.746,37.513a14.6,14.6,0,0,1,9.133-13.519l2.729-5.482A19.194,19.194,0,0,0,31.146,56l.525-4.671A14.6,14.6,0,0,1,21.746,37.513Z" transform="translate(0 -15.84)"/><path class="a" d="M185.442,40.583A19.227,19.227,0,0,0,171.427,22.1l-.537,4.667a14.573,14.573,0,0,1,.892,27.3l-2.8,5.517A19.222,19.222,0,0,0,185.442,40.583Z" transform="translate(-129.93 -18.91)"/><path class="a" d="M95.2,19.347a1.067,1.067,0,0,0-1.03-1.572h-8.78l1.89-16.433A1.219,1.219,0,0,0,86.466.049,1.175,1.175,0,0,0,86.131,0,1.152,1.152,0,0,0,85.1.641L73.229,24.5a1.257,1.257,0,0,0,.052,1.175,1.226,1.226,0,0,0,.982.617h8.665L81.151,42.107a1.1,1.1,0,0,0,.817,1.182,1.142,1.142,0,0,0,.331.042,1.155,1.155,0,0,0,1.03-.632Z" transform="translate(-47.9 0)"/></g></svg>