<svg width="100" height="120" viewBox="0 0 100 120" fill="none" xmlns="http://www.w3.org/2000/svg">
<path d="M81.2537 28.1075C80.9291 27.5455 80.3296 27.1991 79.6804 27.1991H49.2421H18.8038C18.1548 27.1991 17.555 27.5453 17.2304 28.1075L2.40551 53.7845C2.1702 54.1923 2.22293 54.7051 2.53653 55.0562L48.3815 106.403C48.8148 106.888 49.5742 106.889 50.008 106.404L95.946 55.0564C96.2603 54.7051 96.3132 54.1918 96.0777 53.7838L81.2537 28.1075Z" fill="#C9BEB9"/>
<path d="M2.27004 54.4679H33.4984L17.8954 27.4426C17.7597 27.5211 17.6338 27.617 17.522 27.7286C17.41 27.8401 17.3115 27.9672 17.2304 28.1076L2.40551 53.7845C2.28317 53.9966 2.24051 54.2366 2.27004 54.4679Z" fill="#F9F6F6"/>
<path d="M49.6079 106.684C49.7558 106.624 49.8936 106.532 50.008 106.404L95.9462 55.0564C96.2605 54.7051 96.3134 54.1918 96.0779 53.7838L81.2537 28.1073C80.9291 27.5453 80.3293 27.1989 79.6803 27.1989H68.1777L83.9213 54.4677L49.6079 106.684Z" fill="#9E9595"/>
<path d="M96.2134 54.4679C96.2429 54.2364 96.2003 53.9961 96.0779 53.784L81.2537 28.1076C81.1726 27.9669 81.0742 27.8399 80.9622 27.7286C80.8501 27.617 80.7245 27.5211 80.5888 27.4426L64.9857 54.4679H96.2134Z" fill="#F9F6F6"/>
<path d="M81.2537 28.1076C81.1726 27.9669 81.0742 27.8399 80.9622 27.7286C80.8501 27.617 80.7245 27.5211 80.5888 27.4426L74.4536 38.0692L83.9214 54.4682H96.2134C96.2429 54.2366 96.2003 53.9964 96.0779 53.7843L81.2537 28.1076Z" fill="#EEDFDA"/>
<path d="M58.7357 50.0115H39.748L33.4982 54.4679L48.7911 106.687C49.0506 106.79 49.3405 106.79 49.6 106.687L64.9855 54.4679L58.7357 50.0115Z" fill="#EEDFDA"/>
<path d="M49.2418 27.1991L33.4984 54.4679H64.9855L49.2418 27.1991Z" fill="#F9F6F6"/>
</svg>
