<?xml version="1.0" encoding="iso-8859-1"?>
<!-- Generator: Adobe Illustrator 16.0.0, SVG Export Plug-In . SVG Version: 6.00 Build 0)  -->
<!DOCTYPE svg PUBLIC "-//W3C//DTD SVG 1.1//EN" "http://www.w3.org/Graphics/SVG/1.1/DTD/svg11.dtd">
<svg version="1.1" id="Capa_1" xmlns="http://www.w3.org/2000/svg" xmlns:xlink="http://www.w3.org/1999/xlink" x="0px" y="0px"
	 width="487.688px" fill="#123C68" height="487.688px" viewBox="0 0 487.688 487.688" style="enable-background:new 0 0 487.688 487.688;"
	 xml:space="preserve">
<g>
	<g>
		<path d="M444.207,94.43H43.49C19.507,94.43,0,113.947,0,137.93v211.848c0,23.982,19.507,43.48,43.49,43.48h300.224
			c21.669,0,52.394-9.936,69.95-22.635l41.616-30.073c18.168-13.13,32.407-40.995,32.407-63.409V137.93
			C487.688,113.947,468.18,94.43,444.207,94.43z M473.344,277.15c0,18.006-11.877,41.233-26.46,51.771l-41.615,30.083
			c-15.186,10.987-42.802,19.909-61.545,19.909H43.49c-16.075,0-29.146-13.071-29.146-29.137V137.93
			c0-16.084,13.072-29.156,29.146-29.156h400.707c16.074,0,29.146,13.072,29.146,29.156V277.15z"/>
		<path d="M263.819,136.753H78.594c-22.003,0-39.904,17.911-39.904,39.914v136.792c0,22.003,17.901,39.914,39.904,39.914h185.226
			c22.004,0,39.904-17.911,39.904-39.914V176.667C303.724,154.664,285.823,136.753,263.819,136.753z M55.434,177.231h80.832
			c5.278,0,7.114,3.538,4.6,8.186c-3.309,6.12-6.856,14.162-9.515,23.944c-1.386,5.097-6.416,9.314-11.695,9.314H55.434
			c-5.278,0-9.562-4.284-9.562-9.562v-22.319C45.871,181.506,50.155,177.231,55.434,177.231z M55.434,225.847h63.16
			c5.279,0,9.027,3.882,8.711,8.702c-0.182,2.821-0.277,5.719-0.229,8.74c0.067,4.542,0.459,8.884,1.109,13.043
			c0.822,5.222-2.324,9.362-7.612,9.362h-65.14c-5.278,0-9.562-4.284-9.562-9.562V235.4
			C45.871,230.122,50.155,225.847,55.434,225.847z M55.434,272.876h67.301c5.279,0,10.92,4.063,13.11,8.864
			c4.074,8.932,8.998,16.285,13.464,21.917c3.28,4.141,1.989,7.22-3.29,7.22H55.434c-5.278,0-9.562-4.284-9.562-9.562v-18.886
			C45.871,277.15,50.155,272.876,55.434,272.876z M113.268,346.201H78.604c-13.139,0-24.403-7.804-29.577-19.011
			c-2.209-4.791,1.587-9.132,6.866-9.132h57.375c5.278,0,9.562,4.284,9.562,9.562v9.018
			C122.83,341.917,118.556,346.201,113.268,346.201z M211.331,346.201h-71.767c-5.278,0-9.562-4.284-9.562-9.562v-9.027
			c0-5.278,4.284-9.562,9.562-9.562h71.767c5.278,0,9.562,4.284,9.562,9.562v9.018C220.894,341.917,216.609,346.201,211.331,346.201
			z M237.628,346.201c-5.278,0-9.562-4.284-9.562-9.562v-9.027c0-5.278,4.284-9.562,9.562-9.562h48.893
			c5.279,0,9.085,4.342,6.876,9.132c-5.174,11.208-16.438,19.011-29.577,19.011h-26.191V346.201z M286.989,310.877h-90.585
			c-5.278,0-6.569-3.079-3.299-7.229c4.762-6.024,10.031-14.009,14.258-23.763c2.094-4.848,7.65-8.94,12.938-8.94h66.688
			c5.278,0,9.562,4.284,9.562,9.562v20.808C296.552,306.593,292.277,310.877,286.989,310.877z M286.989,263.772h-64.69
			c-5.279,0-8.511-4.16-7.793-9.391c0.488-3.558,0.793-7.248,0.841-11.093c0.048-3.404-0.067-6.675-0.296-9.84
			c-0.382-5.269,3.251-9.515,8.53-9.515h63.399c5.279,0,9.562,4.284,9.562,9.562v20.713
			C296.552,259.498,292.277,263.772,286.989,263.772z M286.989,216.763h-64.633c-5.278,0-10.385-4.198-11.857-9.275
			c-2.591-8.941-5.881-16.352-8.97-22.089c-2.505-4.647-0.66-8.176,4.619-8.176h80.832c5.279,0,9.562,4.284,9.562,9.562V207.2
			C296.552,212.488,292.277,216.763,286.989,216.763z M184.021,173.043l2.687,2.984c0.22,0.239,22.051,25.044,21.468,67.157
			c-0.392,28.669-15.137,49.859-24.518,60.464c-3.5,3.959-9.266,6.828-12.45,6.828c-3.175,0-8.951-2.869-12.451-6.828
			c-9.381-10.614-24.126-31.805-24.518-60.463c-0.574-42.114,21.248-66.919,21.468-67.158c0,0,1.205-1.339,2.687-2.984
			c1.492-1.654-1.587-2.983-6.875-2.983H56.093c-5.278,0-8.816-4.303-6.292-8.95c5.546-10.232,16.371-17.184,28.792-17.184h185.226
			c12.422,0,23.247,6.952,28.793,17.184c2.515,4.647-1.014,8.95-6.302,8.95h-95.424C185.618,170.06,182.539,171.398,184.021,173.043
			z"/>
	</g>
</g>
<g>
</g>
<g>
</g>
<g>
</g>
<g>
</g>
<g>
</g>
<g>
</g>
<g>
</g>
<g>
</g>
<g>
</g>
<g>
</g>
<g>
</g>
<g>
</g>
<g>
</g>
<g>
</g>
<g>
</g>
</svg>
