<svg xmlns="http://www.w3.org/2000/svg" width="35.547" height="43.383" viewBox="0 0 35.547 43.383"><defs><style>.a{fill:#123c68;}</style></defs><g transform="translate(3.418 0)"><path class="a" d="M124.84,47.672h6.051a.711.711,0,1,0,0-1.422H124.84a.711.711,0,1,0,0,1.422Zm0,0" transform="translate(-118.475 -42.961)"/><path class="a" d="M143.069,504.449a2.573,2.573,0,1,0,2.573,2.573A2.573,2.573,0,0,0,143.069,504.449Zm0,3.724a1.151,1.151,0,1,1,1.151-1.151A1.15,1.15,0,0,1,143.069,508.173Zm0,0" transform="translate(-133.679 -468.572)"/><path class="a" d="M22.186,10.254V4.3A4.284,4.284,0,0,0,17.938,0H.844A4.3,4.3,0,0,0-3.418,4.3V39.084a4.3,4.3,0,0,0,4.261,4.3H17.938a4.284,4.284,0,0,0,4.248-4.3V33.13a11.55,11.55,0,0,0,0-22.876Zm4.664,15.992a15.417,15.417,0,0,0,.63-3.842H30.7a10.073,10.073,0,0,1-1.988,5.343,11.416,11.416,0,0,0-1.864-1.5ZM16.077,26.9a10.108,10.108,0,0,1,3.8-1.03v5.612A9.445,9.445,0,0,1,16.077,26.9Zm3.8-2.455a11.38,11.38,0,0,0-4.254,1.1,14.1,14.1,0,0,1-.48-3.143h4.733Zm-4.733-3.467a14.094,14.094,0,0,1,.48-3.142,11.37,11.37,0,0,0,4.254,1.1v2.044ZM19.874,11.9v5.613a10.072,10.072,0,0,1-3.8-1.03A9.449,9.449,0,0,1,19.874,11.9ZM21.3,18.94a11.345,11.345,0,0,0,4.27-1.09,14.118,14.118,0,0,1,.49,3.131H21.3Zm0-1.426V11.9a9.469,9.469,0,0,1,3.8,4.593A10,10,0,0,1,21.3,17.514Zm-6.445-1.761a10.118,10.118,0,0,1-1.434-1.2,10.145,10.145,0,0,1,3.891-2.443,11.308,11.308,0,0,0-2.457,3.641Zm-2.366-.118a11.516,11.516,0,0,0,1.865,1.493,15.426,15.426,0,0,0-.634,3.853H10.5a10.075,10.075,0,0,1,1.991-5.346ZM13.717,22.4a15.428,15.428,0,0,0,.634,3.853,11.5,11.5,0,0,0-1.865,1.493A10.075,10.075,0,0,1,10.5,22.4Zm1.135,5.228a11.315,11.315,0,0,0,2.456,3.64,10.143,10.143,0,0,1-3.89-2.443,10.1,10.1,0,0,1,1.434-1.2ZM21.3,31.485V25.869a9.986,9.986,0,0,1,3.8,1.022,9.469,9.469,0,0,1-3.8,4.594Zm0-7.042V22.4h4.76a14.115,14.115,0,0,1-.49,3.131A11.334,11.334,0,0,0,21.3,24.443Zm6.183-3.463a15.392,15.392,0,0,0-.631-3.842,11.4,11.4,0,0,0,1.864-1.5A10.073,10.073,0,0,1,30.7,20.981Zm.3-6.423a9.953,9.953,0,0,1-1.432,1.2,11.317,11.317,0,0,0-2.461-3.65,10.147,10.147,0,0,1,3.893,2.445ZM.843,1.423H17.938A2.86,2.86,0,0,1,20.763,4.3V7.023H-2V4.3A2.871,2.871,0,0,1,.843,1.423ZM17.938,41.961H.843A2.871,2.871,0,0,1-2,39.084V34.938H20.763v4.146a2.86,2.86,0,0,1-2.826,2.878Zm2.826-8.446H-2V8.446H20.763v1.7l-.174,0a11.551,11.551,0,0,0,0,23.1l.177,0Zm3.125-2.244a11.311,11.311,0,0,0,2.46-3.65,9.969,9.969,0,0,1,1.432,1.2A10.152,10.152,0,0,1,23.888,31.271Zm0,0" transform="translate(0 0)"/></g></svg>