<?xml version="1.0" encoding="iso-8859-1"?>
<!-- Generator: Adobe Illustrator 19.0.0, SVG Export Plug-In . SVG Version: 6.00 Build 0)  -->
<svg version="1.1" id="Layer_1" xmlns="http://www.w3.org/2000/svg" xmlns:xlink="http://www.w3.org/1999/xlink" x="0px" y="0px"
	 viewBox="0 0 512 512" style="enable-background:new 0 0 512 512;" xml:space="preserve">
<circle style="fill:#88C5CC;" cx="256" cy="256" r="256"/>
<g>
	<path style="fill:#E6E6E6;" d="M355.812,72h-28c-2.212,0-4-1.788-4-4s1.788-4,4-4h28c2.212,0,4,1.788,4,4S358.024,72,355.812,72z"
		/>
	<path style="fill:#E6E6E6;" d="M128,136c-2.208,0-4-1.788-4-4v-20c0-2.208,1.792-4,4-4c2.208,0,4,1.792,4,4v20
		C132,134.212,130.208,136,128,136z"/>
	<path style="fill:#E6E6E6;" d="M127.812,176c-2.208,0-4-1.788-4-4v-8c0-2.208,1.792-4,4-4c2.208,0,4,1.792,4,4v8
		C131.812,174.212,130.02,176,127.812,176z"/>
	<path style="fill:#E6E6E6;" d="M127.812,204c-2.208,0-4-1.788-4-4v-8c0-2.208,1.792-4,4-4c2.208,0,4,1.792,4,4v8
		C131.812,202.212,130.02,204,127.812,204z"/>
	<path style="fill:#E6E6E6;" d="M376.048,68H143.956c-8.812,0-15.952,7.14-15.952,15.952v393.716
		C165.668,499.46,209.36,512,256.004,512c49.984,0,96.588-14.384,136-39.148v-388.9C392,75.14,384.856,68,376.048,68z"/>
</g>
<path style="fill:#395F73;" d="M136,482.14C171.796,501.176,212.628,512,256,512c46.644,0,90.336-12.54,128-34.332V116H136V482.14z"
	/>
<g>
	<path style="fill:#406A80;" d="M144,486.244C177.832,502.728,215.832,512,256,512c43.372,0,84.204-10.824,120-29.86V124H144
		V486.244z"/>
	<circle style="fill:#406A80;" cx="255.812" cy="84" r="4"/>
	<path style="fill:#406A80;" d="M279.812,104h-48c-2.212,0-4-1.788-4-4c0-2.208,1.788-4,4-4h48c2.212,0,4,1.792,4,4
		C283.812,102.212,282.024,104,279.812,104z"/>
</g>
<g>
	<circle style="fill:#F5F5F5;" cx="256" cy="342.28" r="16"/>
	<path style="fill:#F5F5F5;" d="M278.628,323.66c-1.028,0-2.052-0.396-2.828-1.172c-10.916-10.916-28.68-10.916-39.6,0
		c-1.564,1.568-4.088,1.568-5.656,0c-1.564-1.568-1.564-4.088,0-5.656c14.036-14.032,36.868-14.032,50.916,0
		c1.564,1.568,1.564,4.088,0,5.656C280.676,323.264,279.652,323.66,278.628,323.66z"/>
	<path style="fill:#F5F5F5;" d="M219.232,309.52c-1.024,0-2.048-0.392-2.828-1.172c-1.564-1.568-1.564-4.088,0-5.656
		c10.58-10.584,24.64-16.412,39.596-16.412c14.952,0,29.016,5.828,39.592,16.412c1.568,1.568,1.568,4.088,0,5.656
		s-4.088,1.568-5.656,0c-9.064-9.068-21.12-14.068-33.936-14.068c-12.82,0-24.872,5-33.94,14.068
		C221.276,309.128,220.252,309.52,219.232,309.52z"/>
	<path style="fill:#F5F5F5;" d="M306.916,295.376c-1.024,0-2.052-0.392-2.828-1.172c-26.516-26.504-69.656-26.508-96.168,0
		c-1.564,1.564-4.092,1.564-5.656,0s-1.564-4.092,0-5.656c29.628-29.632,77.836-29.624,107.488,0c1.564,1.564,1.564,4.092,0,5.656
		C308.96,294.984,307.936,295.376,306.916,295.376z"/>
</g>
<g>
</g>
<g>
</g>
<g>
</g>
<g>
</g>
<g>
</g>
<g>
</g>
<g>
</g>
<g>
</g>
<g>
</g>
<g>
</g>
<g>
</g>
<g>
</g>
<g>
</g>
<g>
</g>
<g>
</g>
</svg>
