<?xml version="1.0" encoding="iso-8859-1"?>
<!-- Generator: Adobe Illustrator 19.0.0, SVG Export Plug-In . SVG Version: 6.00 Build 0)  -->
<svg version="1.1" id="Layer_1" xmlns="http://www.w3.org/2000/svg" xmlns:xlink="http://www.w3.org/1999/xlink" x="0px" y="0px"
	 viewBox="0 0 512 512" style="enable-background:new 0 0 512 512;" xml:space="preserve">
<circle style="fill:#88C5CC;" cx="256" cy="256" r="256"/>
<path style="fill:#E6E6E6;" d="M384.048,68H127.956c-8.812,0-15.952,7.14-15.952,15.952V467.66
	c41.032,27.968,90.596,44.34,144,44.34s102.968-16.372,144-44.34V83.952C400,75.14,392.86,68,384.048,68z"/>
<path style="fill:#395F73;" d="M136,482.136C171.796,501.176,212.628,512,256,512c44.996,0,87.256-11.648,124-32.036V116H136
	V482.136z"/>
<path style="fill:#406A80;" d="M144,486.236C177.832,502.728,215.832,512,256,512c41.772,0,81.168-10.072,116-27.812V124H144
	V486.236z"/>
<g>
	<circle style="fill:#CCCCCC;" cx="255.812" cy="84" r="4"/>
	<path style="fill:#CCCCCC;" d="M279.812,104h-48c-2.212,0-4-1.788-4-4s1.788-4,4-4h48c2.212,0,4,1.788,4,4S282.024,104,279.812,104
		z"/>
</g>
<g>
	<path style="fill:#E6E6E6;" d="M371.812,72h-28c-2.212,0-4-1.788-4-4s1.788-4,4-4h28c2.212,0,4,1.788,4,4S374.024,72,371.812,72z"
		/>
	<path style="fill:#E6E6E6;" d="M112,136c-2.212,0-4-1.788-4-4v-20c0-2.212,1.788-4,4-4s4,1.788,4,4v20
		C116,134.212,114.212,136,112,136z"/>
	<path style="fill:#E6E6E6;" d="M111.812,176c-2.212,0-4-1.788-4-4v-8c0-2.212,1.788-4,4-4s4,1.788,4,4v8
		C115.812,174.212,114.024,176,111.812,176z"/>
	<path style="fill:#E6E6E6;" d="M111.812,204c-2.212,0-4-1.788-4-4v-8c0-2.212,1.788-4,4-4s4,1.788,4,4v8
		C115.812,202.212,114.024,204,111.812,204z"/>
</g>
<g>
	<path style="fill:#F5F5F5;" d="M260,272c-17.648,0-32-14.356-32-32s14.352-32,32-32s32,14.356,32,32S277.648,272,260,272z M260,216
		c-13.236,0-24,10.764-24,24s10.764,24,24,24s24-10.764,24-24S273.236,216,260,216z"/>
	<path style="fill:#F5F5F5;" d="M260,288c-26.468,0-48-21.532-48-48s21.532-48,48-48s48,21.532,48,48S286.468,288,260,288z M260,200
		c-22.056,0-40,17.944-40,40s17.944,40,40,40s40-17.944,40-40S282.056,200,260,200z"/>
	<circle style="fill:#F5F5F5;" cx="260" cy="240" r="12"/>
	<path style="fill:#F5F5F5;" d="M260,312c-2.212,0-4-1.788-4-4v-68c0-2.212,1.788-4,4-4s4,1.788,4,4v68
		C264,310.212,262.212,312,260,312z"/>
	<path style="fill:#F5F5F5;" d="M308.16,376h-92.32c-8.824,0-16-7.18-16-16v-40c0-8.82,7.176-16,16-16h92.32c8.824,0,16,7.18,16,16
		v40C324.16,368.82,316.984,376,308.16,376z M215.84,312c-4.412,0-8,3.584-8,8v40c0,4.416,3.588,8,8,8h92.32c4.412,0,8-3.584,8-8
		v-40c0-4.416-3.588-8-8-8H215.84z"/>
	<path style="fill:#F5F5F5;" d="M242.952,356v-6.916h-14.064v-5.764l14.908-21.82h5.532v21.796h4.264v5.788h-4.264V356H242.952z
		 M242.952,343.296v-11.748l-7.9,11.748H242.952z"/>
	<path style="fill:#F5F5F5;" d="M274.172,343.368v-5.788h14.952v13.692c-1.452,1.408-3.564,2.644-6.316,3.716
		s-5.552,1.604-8.38,1.604c-3.592,0-6.732-0.752-9.404-2.26s-4.68-3.664-6.024-6.468s-2.016-5.856-2.016-9.152
		c0-3.58,0.752-6.752,2.252-9.54c1.5-2.784,3.696-4.916,6.584-6.404c2.204-1.136,4.94-1.712,8.232-1.712
		c4.26,0,7.592,0.9,9.992,2.688c2.404,1.784,3.94,4.256,4.628,7.416l-6.892,1.288c-0.484-1.688-1.396-3.024-2.732-3.996
		c-1.336-0.976-3.008-1.464-5.008-1.464c-3.032,0-5.436,0.96-7.232,2.884c-1.792,1.924-2.684,4.772-2.684,8.56
		c0,4.08,0.908,7.132,2.72,9.176c1.812,2.04,4.188,3.06,7.124,3.06c1.452,0,2.916-0.284,4.372-0.856
		c1.46-0.576,2.716-1.26,3.76-2.08v-4.36h-7.928V343.368z"/>
</g>
<g>
</g>
<g>
</g>
<g>
</g>
<g>
</g>
<g>
</g>
<g>
</g>
<g>
</g>
<g>
</g>
<g>
</g>
<g>
</g>
<g>
</g>
<g>
</g>
<g>
</g>
<g>
</g>
<g>
</g>
</svg>
