<?xml version="1.0" encoding="iso-8859-1"?>
<!-- Generator: Adobe Illustrator 19.0.0, SVG Export Plug-In . SVG Version: 6.00 Build 0)  -->
<svg version="1.1" id="Layer_1" xmlns="http://www.w3.org/2000/svg" xmlns:xlink="http://www.w3.org/1999/xlink" x="0px" y="0px"
	 viewBox="0 0 392.533 392.533" style="enable-background:new 0 0 392.533 392.533;" xml:space="preserve">
<path style="fill:#194F82;" d="M318.836,291.265c-6.012,0-10.925,4.848-10.925,10.925v34.263h-42.408
	c-6.012,0-10.925,4.848-10.925,10.925s4.848,10.925,10.925,10.925h53.333c6.012,0,10.925-4.848,10.925-10.925v-45.123
	C329.697,296.242,324.848,291.265,318.836,291.265z"/>
<g>
	<path style="fill:#FFFFFF;" d="M155.863,151.046c0-38.335,18.36-72.469,46.739-94.125V32.743c0-6.012-4.848-10.925-10.925-10.925
		H32.711c-6.012,0-10.925,4.848-10.925,10.925V359.79c0,6.012,4.848,10.925,10.925,10.925h159.03
		c6.012,0,10.925-4.848,10.925-10.925V245.172C174.222,223.515,155.863,189.446,155.863,151.046z"/>
	<path style="fill:#FFFFFF;" d="M311.661,62.093c6.465,12.606,11.313,28.251,14.287,45.253h34.263
		C349.802,87.111,332.671,70.949,311.661,62.093z"/>
	<path style="fill:#FFFFFF;" d="M244.558,107.281h59.281c-6.594-33.099-19.717-52.752-29.673-52.752
		C264.275,54.529,251.152,74.246,244.558,107.281z"/>
	<path style="fill:#FFFFFF;" d="M240.485,151.046c0,7.628,0.388,14.998,1.034,21.915h65.552c0.646-6.982,1.034-14.222,1.034-21.915
		c0-7.628-0.388-14.998-1.034-21.915h-65.616C240.873,136.048,240.485,143.354,240.485,151.046z"/>
	<path style="fill:#FFFFFF;" d="M368.097,172.962c1.616-7.046,2.65-14.352,2.65-21.915c0-7.564-0.905-14.804-2.65-21.915h-39.305
		c0.646,7.24,0.905,14.61,0.905,21.915s-0.259,14.61-0.905,21.915H368.097z"/>
	<path style="fill:#FFFFFF;" d="M180.299,129.131c-1.616,7.046-2.651,14.352-2.651,21.915c0,7.564,0.905,14.869,2.651,21.915h39.305
		c-0.646-7.24-0.905-14.61-0.905-21.915s0.323-14.61,0.905-21.915H180.299z"/>
	<path style="fill:#FFFFFF;" d="M303.838,194.747h-59.281c6.594,33.099,19.717,52.752,29.673,52.752
		C284.121,247.564,297.244,227.911,303.838,194.747z"/>
	<path style="fill:#FFFFFF;" d="M325.947,194.747c-3.038,16.937-7.822,32.711-14.287,45.253
		c21.01-8.857,38.141-25.018,48.549-45.253H325.947z"/>
	<path style="fill:#FFFFFF;" d="M188.251,107.281h34.263c3.038-16.937,7.822-32.711,14.287-45.253
		C215.725,70.949,198.594,87.111,188.251,107.281z"/>
	<path style="fill:#FFFFFF;" d="M236.735,240.065c-6.465-12.606-11.313-28.251-14.287-45.253h-34.263
		C198.594,214.982,215.725,231.143,236.735,240.065z"/>
</g>
<g>
	<path style="fill:#194F82;" d="M126.901,42.44h-29.35c-6.012,0-10.925,4.848-10.925,10.925c0,6.012,4.848,10.925,10.925,10.925
		h29.349c6.012,0,10.925-4.848,10.925-10.925C137.762,47.354,132.913,42.44,126.901,42.44z"/>
	<path style="fill:#194F82;" d="M126.901,339.426h-29.35c-6.012,0-10.925,4.848-10.925,10.925s4.848,10.925,10.925,10.925h29.349
		c6.012,0,10.925-4.848,10.925-10.925C137.762,344.275,132.913,339.426,126.901,339.426z"/>
	<path style="fill:#194F82;" d="M274.23,32.743c-17.778,0-34.586,3.943-49.778,11.055V32.743c0-18.036-14.675-32.711-32.711-32.711
		H32.711C14.675,0.032,0,14.707,0,32.743V359.79c0,18.036,14.675,32.711,32.711,32.711h159.03c18.036,0,32.711-14.675,32.711-32.711
		V258.36c15.127,7.046,32,11.055,49.778,11.055c65.228,0,118.303-53.075,118.303-118.303S339.459,32.743,274.23,32.743z
		 M202.602,359.725c0,6.012-4.848,10.925-10.925,10.925H32.711c-6.012,0-10.925-4.848-10.925-10.925V32.743
		c0-6.012,4.848-10.925,10.925-10.925h159.03c6.012,0,10.925,4.848,10.925,10.925v24.178c-28.38,21.657-46.739,55.79-46.739,94.125
		s18.36,72.469,46.739,94.125v114.554H202.602z M328.792,129.131h39.305c1.616,7.046,2.65,14.352,2.65,21.915
		c0,7.564-0.905,14.869-2.65,21.915h-39.305c0.646-7.24,0.905-14.61,0.905-21.915S329.438,136.436,328.792,129.131z
		 M325.947,107.281c-3.038-16.937-7.822-32.711-14.287-45.253c21.01,8.857,38.141,25.018,48.549,45.253H325.947z M307.911,151.046
		c0,7.628-0.388,14.998-1.034,21.915H241.39c-0.646-6.982-1.034-14.222-1.034-21.915c0-7.628,0.388-14.998,1.034-21.915h65.552
		C307.588,136.048,307.911,143.354,307.911,151.046z M303.838,107.281h-59.281c6.594-33.099,19.717-52.752,29.673-52.752
		C284.121,54.529,297.244,74.246,303.838,107.281z M219.604,172.962h-39.305c-1.616-7.046-2.65-14.352-2.65-21.915
		c0-7.564,0.905-14.804,2.65-21.915h39.305c-0.646,7.24-0.905,14.61-0.905,21.915S218.958,165.721,219.604,172.962z
		 M222.448,194.747c3.038,16.937,7.822,32.711,14.287,45.253c-21.01-8.857-38.141-25.018-48.549-45.253H222.448z M222.448,107.281
		h-34.263c10.343-20.234,27.539-36.396,48.549-45.253C230.271,74.699,225.487,90.343,222.448,107.281z M244.558,194.747h59.281
		c-6.594,33.099-19.717,52.752-29.673,52.752C264.275,247.564,251.152,227.911,244.558,194.747z M311.661,240.065
		c6.465-12.606,11.313-28.251,14.287-45.253h34.263C349.802,214.982,332.671,231.143,311.661,240.065z"/>
</g>
<g>
	<path style="fill:#56ACE0;" d="M323.362,94.933c1.034,4.008,1.875,8.21,2.65,12.412h8.727
		C331.442,102.82,327.564,98.618,323.362,94.933z"/>
	<path style="fill:#56ACE0;" d="M225.099,207.224c-1.034-4.008-1.875-8.21-2.651-12.412h-8.727
		C217.083,199.337,220.832,203.475,225.099,207.224z"/>
	<path style="fill:#56ACE0;" d="M202.731,129.131c-2.133,6.982-3.297,14.287-3.297,21.915c0,7.628,1.164,14.998,3.297,21.915h16.873
		c-0.646-7.24-0.905-14.61-0.905-21.915s0.323-14.61,0.905-21.915H202.731z"/>
	<path style="fill:#56ACE0;" d="M295.693,222.61c3.168-7.758,6.012-17.067,8.21-27.798h-59.281
		c2.133,10.731,4.913,20.105,8.21,27.798c6.788,2.004,13.964,3.168,21.463,3.168S288.84,224.679,295.693,222.61z"/>
	<path style="fill:#56ACE0;" d="M345.665,129.131h-16.873c0.646,7.24,0.905,14.61,0.905,21.915s-0.323,14.61-0.905,21.915h16.873
		c2.133-6.982,3.297-14.287,3.297-21.915C348.962,143.483,347.798,136.048,345.665,129.131z"/>
	<path style="fill:#56ACE0;" d="M334.675,194.747h-8.727c-0.776,4.267-1.616,8.339-2.651,12.412
		C327.564,203.475,331.442,199.337,334.675,194.747z"/>
	<path style="fill:#56ACE0;" d="M241.455,129.131c-0.646,6.982-1.034,14.222-1.034,21.915c0,7.628,0.388,14.998,1.034,21.915h65.551
		c0.646-6.982,1.034-14.222,1.034-21.915c0-7.628-0.388-14.998-1.034-21.915H241.455z"/>
	<path style="fill:#56ACE0;" d="M252.768,79.483c-3.168,7.758-6.012,17.067-8.21,27.798h59.281
		c-2.133-10.731-4.913-20.105-8.21-27.798c-6.788-2.004-13.964-3.168-21.463-3.168S259.556,77.479,252.768,79.483z"/>
	<path style="fill:#56ACE0;" d="M213.721,107.281h8.727c0.776-4.267,1.616-8.339,2.651-12.412
		C220.832,98.618,217.083,102.82,213.721,107.281z"/>
</g>
<path style="fill:#FFC10D;" d="M74.537,216.081H43.572v108.671h137.244v-83.717v-17.519c-15.58-20.04-24.954-45.188-24.954-72.469
	c0-23.855,7.111-46.158,19.394-64.776H43.572v59.863h52.752c6.012,0,10.925,4.848,10.925,10.925c0,6.012-4.848,10.925-10.925,10.925
	H43.572v26.311h30.966c6.012,0,10.925,4.848,10.925,10.925C85.463,211.297,80.614,216.081,74.537,216.081z"/>
<g>
</g>
<g>
</g>
<g>
</g>
<g>
</g>
<g>
</g>
<g>
</g>
<g>
</g>
<g>
</g>
<g>
</g>
<g>
</g>
<g>
</g>
<g>
</g>
<g>
</g>
<g>
</g>
<g>
</g>
</svg>
