<svg xmlns="http://www.w3.org/2000/svg" width="49.548" height="27.97" viewBox="0 0 49.548 27.97"><defs><style>.a{fill:#fff;}</style></defs><g transform="translate(-7.999 -120)"><path class="a" d="M50.3,127.266l-.009-.011a.047.047,0,0,0-.011-.009,24.773,24.773,0,0,0-35.015,0l-.011.009a.048.048,0,0,0-.009.011A24.61,24.61,0,0,0,8,144.774a.8.8,0,0,0,.8.8h6.393a.8.8,0,0,0,.8-.8,16.782,16.782,0,1,1,33.565,0,.8.8,0,0,0,.8.8h6.393a.8.8,0,0,0,.8-.8A24.61,24.61,0,0,0,50.3,127.266ZM14.409,143.975H9.61a23,23,0,0,1,6.22-15.013l3.4,3.4a18.311,18.311,0,0,0-4.821,11.614Zm17.565-17.564a18.317,18.317,0,0,0-11.615,4.819l-3.4-3.4a23,23,0,0,1,15.013-6.218Zm1.6,0v-4.8a23,23,0,0,1,15.013,6.218l-3.4,3.4A18.317,18.317,0,0,0,33.572,126.411Zm17.565,17.564a18.311,18.311,0,0,0-4.821-11.614l3.4-3.4a23,23,0,0,1,6.22,15.013Z" transform="translate(0 0)"/><path class="a" d="M227.994,271.294V264.8a.8.8,0,1,0-1.6,0v6.494a3.2,3.2,0,1,0,1.6,0Zm-.8,4.694a1.6,1.6,0,1,1,1.6-1.6A1.6,1.6,0,0,1,227.194,275.987Z" transform="translate(-194.421 -129.615)"/></g></svg>