<svg xmlns="http://www.w3.org/2000/svg" width="33.386" height="39.205" viewBox="0 0 33.386 39.205"><defs><style>.a{fill:#123c68;}.b{fill:#fff;}.c{fill:#e1ebf0;}.d{fill:#b4d2d7;}.e{fill:#6fa5aa;}</style></defs><g transform="translate(-0.5 0)"><path class="a" d="M32.122,26.181a19.779,19.779,0,0,1-4.737,7.38,24.8,24.8,0,0,1-9.258,5.485,2.833,2.833,0,0,1-.9.159h-.034a2.873,2.873,0,0,1-.552-.054,2.992,2.992,0,0,1-.38-.1,24.8,24.8,0,0,1-9.269-5.482,19.742,19.742,0,0,1-4.736-7.378C.343,20.994.452,15.274.539,10.677v-.071c.018-.38.029-.778.035-1.219A4.155,4.155,0,0,1,4.489,5.317,16.124,16.124,0,0,0,15.463.691l.026-.024a2.511,2.511,0,0,1,3.409,0l.025.024A16.127,16.127,0,0,0,29.9,5.317a4.155,4.155,0,0,1,3.913,4.071c.006.443.018.841.035,1.219v.03C33.934,15.242,34.043,20.973,32.122,26.181Zm0,0"/><path class="a" d="M233.844,26.184a19.779,19.779,0,0,1-4.737,7.38,24.8,24.8,0,0,1-9.258,5.485,2.832,2.832,0,0,1-.9.159V0a2.515,2.515,0,0,1,1.671.667l.025.024A16.127,16.127,0,0,0,231.62,5.321a4.155,4.155,0,0,1,3.913,4.071c.006.443.018.841.035,1.219v.03C235.656,15.245,235.765,20.976,233.844,26.184Zm0,0" transform="translate(-201.722 -0.003)"/><path class="b" d="M110.436,138.169a9.783,9.783,0,0,1-9.736,9.771h-.034a9.771,9.771,0,1,1,0-19.542h.034A9.783,9.783,0,0,1,110.436,138.169Zm0,0" transform="translate(-83.473 -118.566)"/><path class="c" d="M228.685,138.169a9.783,9.783,0,0,1-9.736,9.771V128.4A9.783,9.783,0,0,1,228.685,138.169Zm0,0" transform="translate(-201.722 -118.566)"/><path class="d" d="M163.538,213.943l-4.4,4.4-.951.951a1.152,1.152,0,0,1-1.627,0l-2.044-2.045a1.15,1.15,0,0,1,1.627-1.627l1.232,1.232,4.538-4.538a1.15,1.15,0,0,1,1.627,1.626Zm0,0" transform="translate(-141.91 -195.748)"/><path class="e" d="M223.35,213.943l-4.4,4.4V215.09l2.774-2.774a1.15,1.15,0,0,1,1.627,1.626Zm0,0" transform="translate(-201.722 -195.748)"/></g></svg>