<svg width="25" height="25" viewBox="0 0 25 25" fill="none" xmlns="http://www.w3.org/2000/svg">
<path d="M11.7058 20.6084C7.60601 20.2436 4.39453 16.7034 4.39453 12.5488C4.39453 9.83579 5.78311 7.23628 7.97837 5.75503L8.93555 7.03125C9.30498 7.52373 10.0827 7.36665 10.232 6.76943L11.6969 0.910059C11.8125 0.447559 11.462 0 10.9863 0H5.12695C4.5248 0 4.17925 0.689502 4.54102 1.17188L5.33394 2.2291C2.02505 4.54712 0 8.4293 0 12.5488C0 18.8154 4.65415 24.1453 10.826 24.9464C11.1929 24.9942 11.5403 24.76 11.6309 24.3978L12.3514 21.5156C12.4605 21.0793 12.1537 20.6483 11.7058 20.6084ZM21.8831 4.20552C19.8811 1.91353 17.1432 0.438965 14.174 0.0535156C13.8051 0.00561523 13.4593 0.241602 13.3692 0.602197L12.6485 3.48438C12.5395 3.9207 12.8462 4.35171 13.2942 4.39155C17.394 4.7564 20.6055 8.31802 20.6055 12.5C20.6055 15.2296 19.2474 17.7592 17.0225 19.2461L16.0645 17.9688C15.6951 17.4763 14.9173 17.6333 14.768 18.2306L13.3031 24.0899C13.1875 24.5524 13.538 25 14.0137 25H19.873C20.4752 25 20.8208 24.3104 20.459 23.8281L19.6662 22.771C21.1661 21.7217 22.4291 20.3381 23.3474 18.7312C24.4285 16.8392 25 14.6844 25 12.5C25 9.45234 23.8931 6.50664 21.8831 4.20552Z" fill="url(#paint0_linear)"/>
<defs>
<linearGradient id="paint0_linear" x1="12.5" y1="25" x2="12.5" y2="0" gradientUnits="userSpaceOnUse">
<stop stop-color="#77B856"/>
<stop offset="1" stop-color="#BCE7A7"/>
</linearGradient>
</defs>
</svg>
