<?xml version="1.0" encoding="iso-8859-1"?>
<!-- Generator: Adobe Illustrator 19.0.0, SVG Export Plug-In . SVG Version: 6.00 Build 0)  -->
<svg version="1.1" id="Layer_1" xmlns="http://www.w3.org/2000/svg" xmlns:xlink="http://www.w3.org/1999/xlink" x="0px" y="0px"
	 viewBox="0 0 495 495" style="enable-background:new 0 0 495 495;" xml:space="preserve">
<g>
	<polygon style="fill:#BDDBFF;" points="247.5,424.833 247.5,364.833 60,364.833 60,146.309 247.5,146.309 247.5,86.309 0,86.309 
		0,424.833 227.5,424.833 227.5,454.833 267.5,454.833 267.5,424.833 	"/>
	<rect x="110" y="454.833" style="fill:#9BC9FF;" width="275" height="40"/>
	<polygon style="fill:#2488FF;" points="247.251,78.024 172.058,2.831 143.773,31.115 198.967,86.309 238.967,86.309 	"/>
	<polygon style="fill:#005ECE;" points="295.536,86.309 353.394,28.451 325.109,0.167 238.967,86.309 	"/>
	<polygon style="fill:#9BC9FF;" points="247.5,86.309 247.5,146.309 435,146.309 435,364.833 247.5,364.833 247.5,424.833 
		495,424.833 495,86.309 	"/>
	<rect x="60" y="146.309" style="fill:#00479B;" width="187.5" height="218.525"/>
	<rect x="247.5" y="146.309" style="fill:#003068;" width="187.5" height="218.525"/>
</g>
<g>
</g>
<g>
</g>
<g>
</g>
<g>
</g>
<g>
</g>
<g>
</g>
<g>
</g>
<g>
</g>
<g>
</g>
<g>
</g>
<g>
</g>
<g>
</g>
<g>
</g>
<g>
</g>
<g>
</g>
</svg>
