<svg xmlns="http://www.w3.org/2000/svg" xmlns:xlink="http://www.w3.org/1999/xlink" width="43.385" height="34.088" viewBox="0 0 43.385 34.088"><defs><style>.a{fill:url(#a);}</style><linearGradient id="a" x1="0.5" x2="0.5" y2="1" gradientUnits="objectBoundingBox"><stop offset="0" stop-color="#123c68"/><stop offset="1" stop-color="#173c64"/></linearGradient></defs><path class="a" d="M42.931,62.5,32.084,51.652a1.55,1.55,0,0,0-2.645,1.1V57.4H18.593a1.55,1.55,0,0,0,0,3.1h12.4a1.549,1.549,0,0,0,1.55-1.55V56.488l7.106,7.106L32.538,70.7V68.242a1.549,1.549,0,0,0-1.55-1.549H13.945V62.044a1.549,1.549,0,0,0-2.645-1.1L.453,71.8a1.549,1.549,0,0,0,0,2.191L11.3,84.832a1.55,1.55,0,0,0,1.1.454,1.53,1.53,0,0,0,.593-.118,1.549,1.549,0,0,0,.956-1.432V79.088H24.791a1.549,1.549,0,1,0,0-3.1H12.4a1.549,1.549,0,0,0-1.55,1.549V80L3.74,72.891l7.106-7.106v2.457a1.549,1.549,0,0,0,1.55,1.55H29.439V74.44a1.549,1.549,0,0,0,2.645,1.1L42.931,64.689A1.55,1.55,0,0,0,42.931,62.5Z" transform="translate(0 -51.198)"/></svg>