<svg width="62" height="62" viewBox="0 0 62 62" fill="none" xmlns="http://www.w3.org/2000/svg">
<g clip-path="url(#clip0)">
<path d="M60.0625 38.75C58.993 38.75 58.125 37.882 58.125 36.8125C58.125 29.3338 52.0412 23.25 44.5625 23.25H25.8333V31.6459C25.8333 33.3509 23.7847 34.2137 22.5577 33.046L8.34933 19.4835C7.967 19.1193 7.75 18.613 7.75 18.0834C7.75 17.5538 7.967 17.0475 8.34933 16.6832L22.5577 3.12071C23.7873 1.94529 25.8333 2.82104 25.8333 4.52087V12.9167H41.9792C53.0177 12.9167 62 21.899 62 32.9375V36.8125C62 37.882 61.132 38.75 60.0625 38.75Z" fill="#FF8D78"/>
<path d="M55.3892 18.0834H7.75C7.75 18.613 7.967 19.1193 8.34933 19.4835L22.5577 33.046C22.9452 33.4154 23.4179 33.5834 23.8803 33.5834C24.8775 33.5834 25.8333 32.811 25.8333 31.6459V23.25H44.5625C52.0412 23.25 58.125 29.3338 58.125 36.8125C58.125 37.882 58.993 38.75 60.0625 38.75C61.132 38.75 62 37.882 62 36.8125V32.9375C62 27.0501 59.4477 21.7491 55.3892 18.0834Z" fill="#FF6C52"/>
<path d="M36.1667 57.4792V49.0833H20.0208C8.98225 49.0833 0 40.1011 0 29.0625V25.1875C0 24.118 0.868 23.25 1.9375 23.25C3.007 23.25 3.875 24.118 3.875 25.1875C3.875 32.6663 9.95875 38.75 17.4375 38.75H36.1667V30.3542C36.1667 28.6543 38.2101 27.7734 39.4423 28.954L53.6507 42.5165C54.033 42.8808 54.25 43.3871 54.25 43.9167C54.25 44.4463 54.033 44.9526 53.6507 45.3168L39.4423 58.8793C38.2127 60.0548 36.1667 59.179 36.1667 57.4792Z" fill="#FF8D78"/>
<path d="M54.25 43.9167H6.61072C10.1628 47.1278 14.8671 49.0834 20.0208 49.0834H36.1666V57.4792C36.1666 58.6417 37.1225 59.4167 38.1196 59.4167C38.5821 59.4167 39.0522 59.2514 39.4423 58.8794L53.6506 45.3169C54.033 44.9526 54.25 44.4463 54.25 43.9167Z" fill="#FF6C52"/>
</g>
<defs>
<clipPath id="clip0">
<rect width="62" height="62" fill="white"/>
</clipPath>
</defs>
</svg>
