<?xml version="1.0" encoding="iso-8859-1"?>
<!-- Generator: Adobe Illustrator 17.1.0, SVG Export Plug-In . SVG Version: 6.00 Build 0)  -->
<!DOCTYPE svg PUBLIC "-//W3C//DTD SVG 1.1//EN" "http://www.w3.org/Graphics/SVG/1.1/DTD/svg11.dtd">
<svg version="1.1" id="Capa_1" xmlns="http://www.w3.org/2000/svg" xmlns:xlink="http://www.w3.org/1999/xlink" x="0px" y="0px"
	 viewBox="0 0 512.02 512.02" style="enable-background:new 0 0 512.02 512.02;" xml:space="preserve">
<g>
	<path d="M175.544,192.971c0,23.736,8.446,47.686,23.173,65.707c15.533,19.007,35.897,29.475,57.343,29.475
		c21.442,0,41.784-10.462,57.276-29.46c14.678-17.999,23.097-41.938,23.097-65.68v-20.292c15.39-49.191,9.629-89.626,4.365-101.591
		c-0.012-0.027-0.027-0.052-0.04-0.079c-0.073-0.16-0.153-0.315-0.235-0.469c-0.044-0.083-0.087-0.168-0.134-0.249
		c-0.081-0.138-0.168-0.271-0.257-0.404c-0.061-0.091-0.119-0.184-0.183-0.273c-0.08-0.109-0.165-0.213-0.25-0.318
		c-0.082-0.102-0.162-0.205-0.248-0.302c-0.077-0.086-0.16-0.167-0.241-0.25c-0.1-0.104-0.199-0.208-0.305-0.306
		c-0.082-0.076-0.17-0.146-0.255-0.219c-0.11-0.093-0.217-0.188-0.331-0.274c-0.101-0.077-0.207-0.146-0.312-0.218
		c-0.104-0.071-0.205-0.146-0.312-0.212c-0.131-0.082-0.267-0.154-0.403-0.228c-0.085-0.046-0.169-0.097-0.256-0.14
		c-0.16-0.08-0.325-0.149-0.491-0.218c-0.068-0.028-0.135-0.061-0.203-0.087c-0.176-0.068-0.355-0.125-0.536-0.18
		c-0.065-0.02-0.128-0.043-0.194-0.061c-0.171-0.048-0.345-0.084-0.519-0.12c-0.082-0.017-0.163-0.038-0.245-0.052
		c-0.149-0.026-0.3-0.042-0.451-0.06c-0.115-0.013-0.229-0.029-0.344-0.038c-0.12-0.008-0.24-0.009-0.361-0.012
		c-0.151-0.004-0.301-0.009-0.453-0.004c-0.095,0.003-0.19,0.012-0.285,0.018c-0.177,0.011-0.354,0.025-0.531,0.049
		c-0.027,0.003-0.054,0.003-0.081,0.007c-12.467,1.78-27.916-1.32-44.271-4.605c-26.779-5.377-57.021-11.45-80.424,4.538
		c-0.089-0.003-0.175-0.013-0.264-0.013c-24.733,0-42.007,20.279-42.007,49.315c0,21.089,8.656,59.853,10.166,66.45V192.971z
		 M256.061,272.153c-34.369,0-64.517-37.001-64.517-79.182v-5.882c0-16.702,8.908-40.833,12.983-50.998
		c59.379,0.703,97.087,12.973,107.391,16.78l8.516,20.263v19.879C320.434,235.171,290.353,272.153,256.061,272.153z M207.386,82.352
		c0.492,0,0.972-0.051,1.44-0.136c2.128,0.384,4.402-0.082,6.26-1.493c17.943-13.628,44.325-8.331,69.838-3.208
		c13.852,2.781,27.103,5.442,39.477,5.442c1.136,0,2.261-0.032,3.382-0.078c2.603,11.145,4.604,34.565-1.164,63.675l-1.26-2.999
		c-0.796-1.895-2.292-3.411-4.176-4.233c-1.802-0.786-44.987-19.24-121.831-19.264c-0.022,0-0.043,0-0.065,0
		c-0.028,0-0.056,0-0.085,0c-0.063,0-0.124,0.008-0.187,0.01c-0.188,0.004-0.375,0.01-0.561,0.028
		c-0.114,0.01-0.225,0.029-0.337,0.044c-0.141,0.02-0.282,0.037-0.421,0.064c-0.142,0.027-0.281,0.063-0.421,0.097
		c-0.107,0.027-0.214,0.051-0.32,0.082c-0.152,0.044-0.301,0.097-0.449,0.15c-0.093,0.033-0.187,0.065-0.278,0.102
		c-0.145,0.058-0.286,0.123-0.427,0.189c-0.095,0.044-0.19,0.088-0.283,0.136c-0.127,0.066-0.249,0.137-0.372,0.21
		c-0.104,0.061-0.208,0.122-0.309,0.188c-0.104,0.068-0.204,0.14-0.304,0.213c-0.113,0.081-0.226,0.163-0.335,0.25
		c-0.084,0.067-0.164,0.138-0.245,0.209c-0.115,0.101-0.23,0.202-0.34,0.309c-0.073,0.071-0.141,0.146-0.211,0.219
		c-0.107,0.113-0.213,0.225-0.313,0.345c-0.073,0.086-0.14,0.177-0.209,0.266c-0.086,0.112-0.173,0.222-0.254,0.339
		c-0.083,0.119-0.157,0.243-0.233,0.367c-0.058,0.094-0.118,0.187-0.172,0.284c-0.092,0.165-0.175,0.336-0.255,0.508
		c-0.026,0.055-0.057,0.106-0.082,0.162c-0.007,0.015-0.024,0.056-0.034,0.078c-0.008,0.019-0.017,0.039-0.026,0.058
		c-0.525,1.199-3.874,8.947-7.406,19.356c-1.697-10.372-3.037-20.989-3.037-28.654C181.379,99.084,189.42,82.352,207.386,82.352z"/>
	<path d="M376.078,302.937c-0.163-0.045-0.328-0.086-0.493-0.121l-54.064-11.504c-3.455-0.769-5.867-3.776-5.867-7.315
		c0-4.418-3.582-8-8-8s-8,3.582-8,8c0,9.591,5.66,17.929,14.236,21.581c-14.065,14.157-35.293,22.629-57.88,22.629
		c-22.581,0-43.807-8.469-57.872-22.622c8.552-3.633,14.228-11.983,14.228-21.589c0-4.418-3.582-8-8-8s-8,3.582-8,8
		c0,3.539-2.413,6.546-5.795,7.299l-54.136,11.52c-0.166,0.035-0.33,0.076-0.493,0.121c-26.278,7.362-40.027,33.194-40.027,54.906
		v12.809c0,11.892,10.539,21.566,23.493,21.566h273.206c12.954,0,23.493-9.675,23.493-21.566v-12.809
		C416.106,336.131,402.357,310.299,376.078,302.937z M400.106,370.652c0,3.017-3.432,5.566-7.493,5.566H119.407
		c-4.062,0-7.493-2.549-7.493-5.566v-12.809c0-15.617,9.654-34.131,28.111-39.434l40.525-8.624
		c16.702,21.331,45.161,34.421,75.459,34.421c30.302,0,58.758-13.089,75.459-34.421l40.525,8.624
		c18.457,5.302,28.111,23.816,28.111,39.433V370.652z"/>
	<path d="M424.116,0H87.904c-30.895,0-56.03,25.135-56.03,56.03v336.212c0,30.895,25.135,56.03,56.03,56.03h87.764l52.044,52.044
		c7.803,7.803,18.049,11.704,28.298,11.703c10.247,0,20.498-3.902,28.299-11.703l52.044-52.044h87.764
		c30.895,0,56.03-25.135,56.03-56.03V56.03C480.146,25.135,455.011,0,424.116,0z M464.146,392.243
		c0,22.073-17.958,40.03-40.03,40.03h-91.077c-2.122,0-4.157,0.843-5.657,2.343l-54.387,54.387c-9.366,9.365-24.605,9.365-33.97,0
		l-54.387-54.387c-1.5-1.5-3.535-2.343-5.657-2.343H87.904c-22.073,0-40.03-17.958-40.03-40.03V56.03
		c0-22.073,17.958-40.03,40.03-40.03h336.212c22.073,0,40.03,17.958,40.03,40.03V392.243z"/>
</g>
<g>
</g>
<g>
</g>
<g>
</g>
<g>
</g>
<g>
</g>
<g>
</g>
<g>
</g>
<g>
</g>
<g>
</g>
<g>
</g>
<g>
</g>
<g>
</g>
<g>
</g>
<g>
</g>
<g>
</g>
</svg>
