<svg xmlns="http://www.w3.org/2000/svg" width="28.5" height="34.161" viewBox="0 0 28.5 34.161"><defs><style>.a{fill:#fff;}</style></defs><g transform="translate(0 0)"><path class="a" d="M95.26,16.455a7.961,7.961,0,0,0,5.818-2.41,7.961,7.961,0,0,0,2.41-5.817,7.962,7.962,0,0,0-2.411-5.817,8.226,8.226,0,0,0-11.635,0,7.961,7.961,0,0,0-2.411,5.817,7.961,7.961,0,0,0,2.411,5.818A7.963,7.963,0,0,0,95.26,16.455Zm0,0" transform="translate(-81.225 0)"/><path class="a" d="M28.431,257.083a20.322,20.322,0,0,0-.277-2.159,17,17,0,0,0-.531-2.17,10.718,10.718,0,0,0-.892-2.024,7.639,7.639,0,0,0-1.345-1.753,5.931,5.931,0,0,0-1.933-1.214,6.679,6.679,0,0,0-2.467-.447,2.5,2.5,0,0,0-1.337.567c-.4.261-.87.564-1.393.9a7.981,7.981,0,0,1-1.8.794,7,7,0,0,1-4.409,0,7.965,7.965,0,0,1-1.8-.794c-.518-.331-.987-.634-1.394-.9a2.5,2.5,0,0,0-1.337-.567,6.671,6.671,0,0,0-2.467.447,5.925,5.925,0,0,0-1.933,1.214,7.638,7.638,0,0,0-1.345,1.753,10.739,10.739,0,0,0-.892,2.024,17.046,17.046,0,0,0-.531,2.17,20.247,20.247,0,0,0-.277,2.159C.023,257.737,0,258.416,0,259.1a5.672,5.672,0,0,0,1.685,4.291,6.065,6.065,0,0,0,4.341,1.583H22.474a6.063,6.063,0,0,0,4.341-1.583A5.67,5.67,0,0,0,28.5,259.1c0-.688-.023-1.367-.069-2.018Zm0,0" transform="translate(0 -230.815)"/></g></svg>