<?xml version="1.0" standalone="no"?>
<!DOCTYPE svg PUBLIC "-//W3C//DTD SVG 20010904//EN"
 "http://www.w3.org/TR/2001/REC-SVG-20010904/DTD/svg10.dtd">
<svg version="1.0" xmlns="http://www.w3.org/2000/svg"
 width="76.000000pt" height="40.000000pt" viewBox="0 0 76.000000 40.000000"
 preserveAspectRatio="xMidYMid meet">
<metadata>
Created by potrace 1.15, written by Peter Selinger 2001-2017
</metadata>
<g transform="translate(0.000000,40.000000) scale(0.100000,-0.100000)"
fill="#000000" stroke="none">
<path d="M340 337 c0 -7 -13 -20 -28 -29 -27 -16 -29 -16 -50 5 -17 16 -22 18
-22 6 0 -8 5 -20 10 -25 18 -18 -10 -64 -42 -71 -36 -7 -36 -23 0 -23 26 0 28
-3 27 -33 -1 -19 -5 -39 -9 -45 -5 -8 0 -12 13 -12 30 0 61 -49 50 -79 -13
-34 -4 -38 16 -7 20 30 41 33 67 9 16 -14 18 -14 18 -1 0 9 6 21 14 27 12 10
18 7 31 -13 19 -29 41 -35 30 -8 -16 38 -18 55 -7 48 7 -4 12 -1 12 8 0 12 5
14 25 6 28 -11 33 1 10 20 -25 21 -13 42 30 55 l40 12 -37 7 c-28 6 -37 13
-41 34 -3 17 1 34 11 46 16 18 16 19 -11 12 -37 -9 -59 8 -51 40 7 29 0 30
-26 4 -11 -11 -27 -20 -36 -20 -9 0 -18 9 -21 20 -6 22 -23 27 -23 7z"/>
</g>
</svg>
