<?xml version="1.0" standalone="no"?>
<!DOCTYPE svg PUBLIC "-//W3C//DTD SVG 20010904//EN"
 "http://www.w3.org/TR/2001/REC-SVG-20010904/DTD/svg10.dtd">
<svg version="1.0" xmlns="http://www.w3.org/2000/svg"
 width="152.000000pt" height="80.000000pt" viewBox="0 0 152.000000 80.000000"
 preserveAspectRatio="xMidYMid meet">
<metadata>
Created by potrace 1.15, written by Peter Selinger 2001-2017
</metadata>
<g transform="translate(0.000000,80.000000) scale(0.100000,-0.100000)"
fill="#000000" stroke="none">
<path d="M860 670 c-26 -40 -35 -48 -46 -39 -11 9 -16 6 -23 -12 -8 -21 -10
-22 -16 -6 -7 17 -8 17 -20 0 -11 -15 -15 -10 -31 40 -9 31 -21 54 -25 51 -4
-2 -10 -22 -14 -44 -7 -40 -19 -51 -29 -27 -3 8 -9 6 -21 -8 -9 -11 -21 -20
-27 -20 -6 0 -14 -8 -17 -17 -5 -15 -17 -8 -69 38 -34 31 -62 53 -62 49 0 -4
16 -35 35 -69 19 -35 35 -66 35 -69 0 -4 -9 -7 -21 -7 -15 0 -19 -5 -15 -15 3
-9 -1 -18 -9 -21 -7 -3 -11 -12 -9 -19 4 -9 -18 -20 -68 -36 l-73 -24 73 -3
c67 -3 82 -9 65 -25 -12 -12 -12 -57 0 -57 7 0 6 -4 -3 -10 -12 -8 -13 -11 -1
-19 9 -6 10 -11 2 -15 -6 -4 -9 -12 -6 -17 4 -5 -6 -20 -22 -34 -29 -25 -22
-31 19 -16 13 4 36 11 51 15 26 6 27 5 18 -13 -15 -27 -14 -31 6 -24 12 5 15
2 10 -10 -4 -11 -2 -14 9 -10 10 4 14 -2 14 -22 0 -23 2 -26 15 -15 20 16 19
5 -5 -65 -11 -32 -20 -62 -20 -67 0 -21 18 -3 54 54 31 50 40 58 47 45 5 -9
16 -14 24 -11 9 4 16 0 16 -7 1 -8 5 0 9 16 l7 30 11 -27 c38 -90 36 -88 42
-28 4 48 7 52 17 35 11 -19 12 -18 24 8 7 15 15 27 18 27 3 -1 28 -30 56 -65
27 -35 51 -62 53 -60 2 2 -10 42 -28 90 -18 48 -30 89 -27 91 3 3 14 -6 25
-20 26 -34 36 -33 29 4 -7 35 -6 35 57 14 26 -9 49 -14 52 -11 3 3 -13 26 -36
51 -24 25 -37 46 -29 46 10 0 10 3 1 12 -21 21 -13 26 66 44 42 9 81 20 86 24
4 5 -26 14 -68 21 -55 9 -75 17 -72 26 3 8 -2 13 -12 13 -15 1 -15 2 2 15 17
13 17 15 2 30 -23 24 -21 29 32 74 53 46 46 50 -28 21 -63 -25 -74 -25 -67 -1
3 12 0 18 -7 15 -6 -2 -17 0 -25 5 -12 8 -13 18 -2 66 7 31 11 59 8 61 -2 3
-19 -18 -37 -46z"/>
</g>
</svg>
