<?xml version="1.0" encoding="iso-8859-1"?>
<!-- Generator: Adobe Illustrator 19.0.0, SVG Export Plug-In . SVG Version: 6.00 Build 0)  -->
<svg version="1.1" id="Layer_1" xmlns="http://www.w3.org/2000/svg" xmlns:xlink="http://www.w3.org/1999/xlink" x="0px" y="0px"
	 viewBox="0 0 512 512" style="enable-background:new 0 0 512 512;" xml:space="preserve">
<path style="fill:#EC5565;" d="M512,256.006C512,397.402,397.394,512.004,256.004,512C114.606,512.004,0,397.402,0,256.006
	C-0.007,114.61,114.606,0,256.004,0C397.394,0,512,114.614,512,256.006z"/>
<g>
	<path style="fill:#D94453;" d="M502.686,324.406c-0.151-0.174-0.297-0.352-0.473-0.509c-0.158-0.176-0.299-0.353-0.473-0.515
		c-0.225-0.242-0.492-0.417-0.746-0.628c-0.171-0.206-236.937-236.98-237.511-237.412c-0.433-0.576-0.918-1.061-1.494-1.494
		c-1.391-1.851-3.499-3.124-5.99-3.124c-4.208,0-7.62,3.409-7.62,7.621v236.24c0,2.494,1.275,4.602,3.124,5.99
		c0.433,0.576,140.586,140.821,140.674,140.905c0.095,0.101,0.185,0.196,0.285,0.291c0.083,0.087,0.161,0.172,0.25,0.256
		c0.068,0.071,0.129,0.143,0.201,0.212c0,0,0.016,0.013,0.022,0.02C445.847,438.689,485.571,386.267,502.686,324.406z"/>
	<path style="fill:#D94453;" d="M268.981,407.466c-0.467-0.533-0.957-1.034-1.493-1.493c-2.798-3.201-6.882-5.18-11.481-5.18h-0.275
		c-8.407,0-15.12,6.753-14.971,15.511c0.076,4.672,2.116,8.606,5.243,11.284c0.466,0.533,74.178,74.255,74.715,74.715
		c0.348,0.398,0.731,0.756,1.115,1.115c11.046-2.931,21.798-6.577,32.206-10.895C353.605,492.036,269.518,407.926,268.981,407.466z"
		/>
</g>
<g>
	<path style="fill:#F4F6F9;" d="M256.007,400.793h-0.276c-8.407,0-15.12,6.753-14.971,15.513
		c0.142,8.683,6.935,14.971,15.231,14.971h0.276c8.407-0.156,15.12-6.753,14.971-15.513
		C271.09,407.079,264.304,400.793,256.007,400.793z"/>
	<path style="fill:#F4F6F9;" d="M256,332.207c4.208,0,7.62-3.408,7.62-7.62V88.346c0-4.212-3.412-7.62-7.62-7.62
		c-4.208,0-7.62,3.408-7.62,7.62v236.24C248.38,328.798,251.792,332.207,256,332.207z"/>
</g>
<g>
</g>
<g>
</g>
<g>
</g>
<g>
</g>
<g>
</g>
<g>
</g>
<g>
</g>
<g>
</g>
<g>
</g>
<g>
</g>
<g>
</g>
<g>
</g>
<g>
</g>
<g>
</g>
<g>
</g>
</svg>
