<?xml version="1.0" encoding="iso-8859-1"?>
<!-- Generator: Adobe Illustrator 16.0.0, SVG Export Plug-In . SVG Version: 6.00 Build 0)  -->
<!DOCTYPE svg PUBLIC "-//W3C//DTD SVG 1.1//EN" "http://www.w3.org/Graphics/SVG/1.1/DTD/svg11.dtd">
<svg version="1.1" id="Capa_1" xmlns="http://www.w3.org/2000/svg" xmlns:xlink="http://www.w3.org/1999/xlink" x="0px" y="0px"
	 width="65.396px" height="65.396px" viewBox="0 0 65.396 65.396" fill="#123C68" style="enable-background:new 0 0 65.396 65.396;"
	 xml:space="preserve">
<g>
	<g>
		<g>
			<g>
				<path d="M32.697,59.966c-4.28,0-7.763-3.481-7.763-7.762c0-4.281,3.482-7.764,7.763-7.764c4.281,0,7.764,3.48,7.764,7.764
					C40.46,56.484,36.979,59.966,32.697,59.966z M32.697,48.93c-1.806,0-3.274,1.468-3.274,3.274c0,1.805,1.469,3.273,3.274,3.273
					s3.274-1.469,3.274-3.273C35.972,50.397,34.502,48.93,32.697,48.93z"/>
			</g>
		</g>
		<g>
			<g>
				<path d="M60.099,27.38c-1.416,0-2.748-0.551-3.748-1.552c-6.315-6.317-14.715-9.796-23.652-9.796
					c-8.936,0-17.336,3.479-23.653,9.796c-2.004,2-5.491,2-7.493,0.004c-2.07-2.073-2.069-5.435-0.002-7.501
					C9.87,10.013,20.933,5.431,32.699,5.431c11.77,0,22.831,4.582,31.148,12.903c2.065,2.066,2.065,5.428,0.002,7.495
					C62.845,26.832,61.515,27.38,60.099,27.38z M32.699,11.543c10.136,0,19.663,3.946,26.826,11.111
					c0.205,0.206,0.448,0.237,0.574,0.237c0.127,0,0.368-0.031,0.575-0.237c0.314-0.315,0.314-0.831-0.002-1.148
					C53.201,14.035,43.269,9.919,32.7,9.919c-10.569,0-20.506,4.116-27.979,11.587c-0.316,0.317-0.315,0.833,0.002,1.151
					c0.204,0.203,0.446,0.234,0.572,0.234c0.127,0,0.369-0.031,0.576-0.238C13.037,15.49,22.563,11.543,32.699,11.543z"/>
			</g>
		</g>
		<g>
			<g>
				<path d="M50.965,36.516c-1.416,0-2.748-0.552-3.749-1.554c-3.877-3.876-9.031-6.012-14.519-6.012
					c-5.488,0-10.643,2.136-14.52,6.016c-2.013,2-5.494,1.998-7.495,0.002c-2.069-2.069-2.069-5.435-0.005-7.5
					c5.885-5.881,13.703-9.119,22.02-9.119c8.317,0,16.134,3.239,22.015,9.12c1.001,0.999,1.555,2.33,1.555,3.748
					c0,1.416-0.553,2.748-1.553,3.748C53.708,35.966,52.378,36.516,50.965,36.516z M32.692,24.461c6.69,0,12.975,2.602,17.697,7.327
					c0.208,0.208,0.448,0.238,0.575,0.238c0.125,0,0.369-0.031,0.578-0.24c0.203-0.203,0.234-0.446,0.234-0.571
					s-0.031-0.367-0.236-0.573c-5.035-5.035-11.727-7.807-18.843-7.807c-7.117,0-13.811,2.771-18.844,7.802
					c-0.317,0.317-0.317,0.835,0.001,1.154c0.203,0.202,0.446,0.232,0.573,0.232c0.127,0,0.371-0.031,0.58-0.238
					C19.728,27.064,26.011,24.461,32.692,24.461z"/>
			</g>
		</g>
		<g>
			<g>
				<path d="M23.564,45.647c-1.417,0-2.75-0.552-3.752-1.557c-0.999-0.998-1.552-2.33-1.55-3.745c0-1.416,0.552-2.747,1.553-3.748
					c3.438-3.435,8.012-5.325,12.883-5.325c4.87,0,9.445,1.891,12.88,5.324c1.002,1.002,1.554,2.333,1.555,3.748
					c0.002,1.417-0.551,2.748-1.551,3.75c-2.011,2.007-5.504,2.003-7.5-0.002c-1.434-1.432-3.347-2.223-5.384-2.223
					c-2.039,0-3.952,0.791-5.389,2.228C26.312,45.096,24.981,45.647,23.564,45.647z M32.699,35.762
					c-3.674,0-7.121,1.424-9.711,4.012c-0.206,0.206-0.236,0.448-0.236,0.574s0.03,0.366,0.236,0.573
					c0.209,0.209,0.451,0.24,0.577,0.24c0.125,0,0.364-0.031,0.569-0.236c2.287-2.284,5.328-3.543,8.564-3.543
					c3.235,0,6.275,1.259,8.56,3.539c0.197,0.199,0.423,0.24,0.574,0.24c0.125,0,0.367-0.031,0.576-0.24
					c0.207-0.207,0.237-0.447,0.237-0.573c0-0.125-0.031-0.368-0.238-0.575C39.819,37.186,36.37,35.762,32.699,35.762z"/>
			</g>
		</g>
	</g>
</g>
<g>
</g>
<g>
</g>
<g>
</g>
<g>
</g>
<g>
</g>
<g>
</g>
<g>
</g>
<g>
</g>
<g>
</g>
<g>
</g>
<g>
</g>
<g>
</g>
<g>
</g>
<g>
</g>
<g>
</g>
</svg>
