<svg xmlns="http://www.w3.org/2000/svg" width="42.033" height="48.39" viewBox="0 0 42.033 48.39"><defs><style>.a{fill:#123c68;}</style></defs><path class="a" d="M40.073,4.08H1.96A2.153,2.153,0,0,0,0,6.385V13.2a2.153,2.153,0,0,0,1.96,2.3H7.786v9.219c-1.028,1.383-5.348,7.386-5.87,11.36a1.206,1.206,0,0,0,0,.154V51.446a.957.957,0,0,0,.871,1.024H13.343a.842.842,0,0,0,.714-.44l4.459-7.549a1.12,1.12,0,0,0,.122-.318c0-.164.462-1.987.975-4.487H33.375a.957.957,0,0,0,.871-1.024V15.5h5.827a2.153,2.153,0,0,0,1.96-2.3V6.385A2.153,2.153,0,0,0,40.073,4.08ZM19.658,28.787A148.3,148.3,0,0,1,17,43.446l-4.12,6.966H3.649V36.357c.34-2.336,2.465-5.921,4.137-8.389V38.652a.957.957,0,0,0,.871,1.024H11.8a.758.758,0,0,0,.314-.072l.1-.061a.874.874,0,0,0,.174-.133l.078-.1a1.057,1.057,0,0,0,.1-.184l.052-.133v-.072c.871-3.79,2.77-10.336,4.207-11.79.975-1.024,1.542-1.137,1.785-1.137a.548.548,0,0,1,.47.266A4.56,4.56,0,0,1,19.658,28.787ZM32.5,37.627H20.032c.54-2.776,1.089-5.972,1.359-8.594a6.823,6.823,0,0,0-.984-4.1,2.194,2.194,0,0,0-1.742-.953,4.42,4.42,0,0,0-2.926,1.629c-2.021,2.049-3.954,9.516-4.573,12.057H9.528V10.861H32.5Zm7.786-24.441a.239.239,0,0,1-.218.256H34.246V10.861h1.576a.957.957,0,0,0,.871-1.024.957.957,0,0,0-.871-1.024H6.21a.957.957,0,0,0-.871,1.024.957.957,0,0,0,.871,1.024H7.8v2.633H1.96a.239.239,0,0,1-.218-.256V6.385a.239.239,0,0,1,.218-.256H40.073a.239.239,0,0,1,.218.256Z" transform="translate(0 -4.08)"/></svg>