<svg width="885" height="200" viewBox="0 0 885 200" fill="none" xmlns="http://www.w3.org/2000/svg">
<rect width="885" height="200" rx="5" fill="#3E215B"/>
<rect x="220" y="88" width="4" height="2" fill="white"/>
<rect x="40" y="48" width="4" height="2" fill="white"/>
<rect x="146" y="176" width="4" height="2" fill="white"/>
<rect x="338" y="178" width="4" height="2" fill="white"/>
<rect x="530" y="60" width="4" height="2" fill="white"/>
<rect x="342" y="62" width="4" height="2" fill="white"/>
<rect x="474" y="134" width="4" height="2" fill="white"/>
<rect x="606" y="166" width="4" height="2" fill="white"/>
<rect x="858" y="88" width="4" height="2" fill="white"/>
<rect x="650" y="20" width="4" height="2" fill="white"/>
<rect x="228" y="88" width="4" height="2" fill="white"/>
<rect x="48" y="48" width="4" height="2" fill="white"/>
<rect x="154" y="176" width="4" height="2" fill="white"/>
<rect x="346" y="178" width="4" height="2" fill="white"/>
<rect x="538" y="60" width="4" height="2" fill="white"/>
<rect x="350" y="62" width="4" height="2" fill="white"/>
<rect x="482" y="134" width="4" height="2" fill="white"/>
<rect x="614" y="166" width="4" height="2" fill="white"/>
<rect x="866" y="88" width="4" height="2" fill="white"/>
<rect x="658" y="20" width="4" height="2" fill="white"/>
<rect x="225" y="86" width="4" height="2" transform="rotate(-90 225 86)" fill="white"/>
<rect x="45" y="46" width="4" height="2" transform="rotate(-90 45 46)" fill="white"/>
<rect x="151" y="174" width="4" height="2" transform="rotate(-90 151 174)" fill="white"/>
<rect x="343" y="176" width="4" height="2" transform="rotate(-90 343 176)" fill="white"/>
<rect x="535" y="58" width="4" height="2" transform="rotate(-90 535 58)" fill="white"/>
<rect x="347" y="60" width="4" height="2" transform="rotate(-90 347 60)" fill="white"/>
<rect x="479" y="132" width="4" height="2" transform="rotate(-90 479 132)" fill="white"/>
<rect x="611" y="164" width="4" height="2" transform="rotate(-90 611 164)" fill="white"/>
<rect x="863" y="86" width="4" height="2" transform="rotate(-90 863 86)" fill="white"/>
<rect x="655" y="18" width="4" height="2" transform="rotate(-90 655 18)" fill="white"/>
<rect x="224.876" y="94.658" width="3.52941" height="2.11765" transform="rotate(-88.4747 224.876 94.658)" fill="white"/>
<rect x="44.876" y="54.658" width="3.52941" height="2.11765" transform="rotate(-88.4747 44.876 54.658)" fill="white"/>
<rect x="150.876" y="182.658" width="3.52941" height="2.11765" transform="rotate(-88.4747 150.876 182.658)" fill="white"/>
<rect x="342.876" y="184.658" width="3.52941" height="2.11765" transform="rotate(-88.4747 342.876 184.658)" fill="white"/>
<rect x="534.876" y="66.658" width="3.52941" height="2.11765" transform="rotate(-88.4747 534.876 66.658)" fill="white"/>
<rect x="346.876" y="68.658" width="3.52941" height="2.11765" transform="rotate(-88.4747 346.876 68.658)" fill="white"/>
<rect x="478.876" y="140.658" width="3.52941" height="2.11765" transform="rotate(-88.4747 478.876 140.658)" fill="white"/>
<rect x="610.876" y="172.658" width="3.52941" height="2.11765" transform="rotate(-88.4747 610.876 172.658)" fill="white"/>
<rect x="862.876" y="94.658" width="3.52941" height="2.11765" transform="rotate(-88.4747 862.876 94.658)" fill="white"/>
<rect x="654.876" y="26.658" width="3.52941" height="2.11765" transform="rotate(-88.4747 654.876 26.658)" fill="white"/>
</svg>
