<svg width="134" height="29" viewBox="0 0 134 79" fill="none" xmlns="http://www.w3.org/2000/svg">
<path d="M58.9158 49.6395C56.3088 49.92 54.0102 50.0602 51.9919 50.0602C51.0388 50.0602 50.282 49.7797 49.7213 49.1906C49.1607 48.6295 48.8524 47.8441 48.8524 46.9183V42.0932C48.8524 41.0552 49.1607 40.2136 49.7494 39.6245C50.338 39.0354 51.151 38.7268 52.2162 38.7268H58.9158V41.5602H53.3655C52.8048 41.5602 52.5245 41.8407 52.5245 42.4018V46.4975C52.5245 46.6939 52.5806 46.8902 52.7207 47.0305C52.8609 47.1708 53.0291 47.2269 53.2534 47.2269C54.5148 47.2269 56.3929 47.1147 58.9158 46.9183V49.6395Z" fill="#173C68"/>
<path d="M65.1949 39.1477V49.8359H61.5227V41.981H59.9529V39.1477H65.1949ZM61.5227 34.9397H65.1949V37.8853H61.5227V34.9397Z" fill="#00B378"/>
<path d="M77.1365 49.6395C74.5295 49.92 72.2309 50.0602 70.2126 50.0602C69.2595 50.0602 68.5027 49.7797 67.942 49.1906C67.3814 48.6295 67.0731 47.8441 67.0731 46.9183V42.0932C67.0731 41.0552 67.3814 40.2136 67.9701 39.6245C68.5587 39.0354 69.3717 38.7268 70.4369 38.7268H77.1365V41.5602H71.5862C71.0255 41.5602 70.7452 41.8407 70.7452 42.4018V46.4975C70.7452 46.6939 70.8013 46.8902 70.9414 47.0305C71.0816 47.1708 71.2498 47.2269 71.4741 47.2269C72.7355 47.2269 74.6136 47.1147 77.1365 46.9183V49.6395Z" fill="#173C68"/>
<path d="M90.1433 46.6939C90.1433 47.7319 89.8349 48.5735 89.2462 49.1626C88.6576 49.7517 87.8446 50.0603 86.7794 50.0603H81.9579C80.9208 50.0603 80.0798 49.7517 79.4911 49.1626C78.9025 48.5735 78.5941 47.76 78.5941 46.6939V41.8688C78.5941 40.8308 78.9025 39.9893 79.4911 39.4001C80.0798 38.811 80.8927 38.5024 81.9579 38.5024H86.7794C87.8166 38.5024 88.6576 38.811 89.2462 39.4001C89.8349 39.9893 90.1433 40.8028 90.1433 41.8688V46.6939ZM86.4711 42.1774C86.4711 41.6163 86.1908 41.3358 85.6301 41.3358H83.1073C82.5466 41.3358 82.2663 41.6163 82.2663 42.1774V46.3854C82.2663 46.9464 82.5466 47.227 83.1073 47.227H85.6301C86.1908 47.227 86.4711 46.9464 86.4711 46.3854V42.1774Z" fill="#173C68"/>
<path d="M100.935 41.0834L101.664 41.364C101.44 42.0933 100.935 42.458 100.179 42.458C99.7862 42.458 99.4778 42.3458 99.2536 42.0933C99.0013 41.8409 98.8892 41.5323 98.8892 41.1115C98.8892 40.4943 99.0573 39.9894 99.3657 39.6247C99.674 39.26 100.066 39.0636 100.543 39.0636C100.964 39.0636 101.272 39.1758 101.496 39.4283C101.72 39.6808 101.833 39.9894 101.833 40.3821L101.104 40.4382C101.104 40.2418 101.076 40.1016 100.992 39.9613C100.907 39.821 100.767 39.7649 100.543 39.7649C100.291 39.7649 100.095 39.8771 99.9263 40.1296C99.7862 40.354 99.7021 40.6626 99.7021 41.0273C99.7021 41.5042 99.8983 41.7286 100.291 41.7286C100.403 41.7286 100.487 41.7006 100.571 41.6725C100.655 41.6445 100.711 41.5884 100.767 41.5042C100.823 41.4201 100.851 41.364 100.879 41.3078C100.879 41.2517 100.907 41.1676 100.935 41.0834Z" fill="#00B378"/>
<path d="M104.439 42.3739H103.711L103.767 42.0092C103.683 42.1214 103.57 42.2336 103.43 42.3178C103.262 42.4019 103.094 42.458 102.842 42.458C102.561 42.458 102.309 42.3458 102.113 42.1214C101.917 41.897 101.804 41.5884 101.804 41.1956C101.804 40.6065 101.973 40.1016 102.281 39.6808C102.589 39.26 102.982 39.0636 103.402 39.0636C103.739 39.0636 103.991 39.2039 104.131 39.4563H104.159L104.215 39.1758H105L104.439 42.3739ZM103.935 40.7748L103.991 40.4382C104.019 40.2418 104.019 40.0735 103.907 39.9332C103.823 39.821 103.655 39.7369 103.458 39.7369C103.206 39.7369 103.01 39.8771 102.842 40.1296C102.673 40.3821 102.589 40.7187 102.589 41.0834C102.589 41.4762 102.758 41.6725 103.066 41.6725C103.234 41.6725 103.43 41.5884 103.599 41.4201C103.739 41.3078 103.879 41.0834 103.935 40.7748Z" fill="#00B378"/>
<path d="M104.86 41.2517L105.589 41.1114C105.617 41.3359 105.673 41.5042 105.785 41.5883C105.897 41.7005 106.065 41.7286 106.262 41.7286C106.626 41.7286 106.794 41.6164 106.794 41.392C106.794 41.3078 106.738 41.2517 106.654 41.1956C106.57 41.1395 106.374 41.0553 106.037 40.9151C105.673 40.8028 105.449 40.6626 105.308 40.5223C105.168 40.382 105.112 40.2137 105.112 39.9893C105.112 39.7368 105.224 39.5124 105.421 39.316C105.617 39.1197 105.925 39.0074 106.346 39.0074C106.71 39.0074 107.018 39.0916 107.243 39.288C107.467 39.4843 107.607 39.7368 107.635 40.0174L106.934 40.1296C106.906 39.9893 106.822 39.8771 106.738 39.7929C106.626 39.7088 106.514 39.6527 106.318 39.6527C106.149 39.6527 106.037 39.6807 105.953 39.7368C105.869 39.7929 105.841 39.849 105.841 39.9332C105.841 39.9893 105.897 40.0735 105.981 40.1296C106.093 40.1857 106.318 40.2698 106.654 40.4101C106.99 40.5223 107.215 40.6626 107.327 40.8028C107.439 40.9431 107.495 41.1114 107.495 41.3358C107.495 41.6164 107.383 41.8689 107.159 42.0933C106.934 42.2897 106.598 42.4019 106.205 42.4019C105.757 42.4019 105.421 42.2897 105.168 42.0652C105 41.8969 104.888 41.6164 104.86 41.2517Z" fill="#00B378"/>
<path d="M107.579 42.3738L108.364 37.9695H109.149L108.897 39.4282C108.953 39.3441 109.065 39.288 109.205 39.2038C109.345 39.1197 109.513 39.0916 109.709 39.0916C110.046 39.0916 110.298 39.2038 110.466 39.4282C110.635 39.6527 110.691 39.9613 110.606 40.354L110.242 42.4019H109.485L109.822 40.4382C109.85 40.2698 109.822 40.1015 109.766 39.9893C109.681 39.8771 109.569 39.821 109.373 39.821C109.205 39.821 109.065 39.8771 108.953 39.9613C108.812 40.0735 108.756 40.1857 108.7 40.3821L108.336 42.4019H107.579V42.3738Z" fill="#00B378"/>
<path d="M111.728 42.3738L112.288 39.1758H113.101L112.541 42.3738H111.728ZM112.372 38.6989L112.513 37.9695H113.298L113.157 38.6989H112.372Z" fill="#00B378"/>
<path d="M113.017 42.3738L113.578 39.1757H114.335L114.279 39.4843C114.503 39.2318 114.811 39.0916 115.176 39.0916C115.512 39.0916 115.764 39.2038 115.933 39.4282C116.101 39.6526 116.157 39.9893 116.101 40.4101L115.764 42.3738H114.979L115.316 40.4662C115.4 40.0173 115.232 39.7929 114.839 39.7929C114.671 39.7929 114.503 39.849 114.391 39.9331C114.279 40.0454 114.195 40.1576 114.167 40.3259L113.802 42.3457H113.017V42.3738Z" fill="#00B378"/>
<path d="M100.935 47.0867L101.664 47.3673C101.44 48.0966 100.935 48.4613 100.179 48.4613C99.7862 48.4613 99.4778 48.3491 99.2536 48.0966C99.0013 47.8442 98.8892 47.5356 98.8892 47.1148C98.8892 46.4976 99.0573 45.9926 99.3657 45.628C99.674 45.2633 100.066 45.0669 100.543 45.0669C100.964 45.0669 101.272 45.1791 101.496 45.4316C101.72 45.6841 101.833 45.9926 101.833 46.3854L101.104 46.4415C101.104 46.2451 101.076 46.1049 100.992 45.9646C100.907 45.8243 100.767 45.7682 100.543 45.7682C100.291 45.7682 100.095 45.8804 99.9263 46.1329C99.7581 46.3854 99.7021 46.6659 99.7021 47.0306C99.7021 47.5075 99.8983 47.7319 100.291 47.7319C100.403 47.7319 100.487 47.7039 100.571 47.6758C100.655 47.6478 100.711 47.5917 100.767 47.5075C100.823 47.4234 100.851 47.3672 100.879 47.3111C100.879 47.255 100.907 47.1989 100.935 47.0867Z" fill="#173C68"/>
<path d="M104.439 48.3772H103.711L103.767 48.0125C103.683 48.1247 103.57 48.2369 103.43 48.3211C103.262 48.4052 103.094 48.4613 102.842 48.4613C102.561 48.4613 102.309 48.3491 102.113 48.1247C101.917 47.9003 101.804 47.5917 101.804 47.1989C101.804 46.6098 101.973 46.1049 102.281 45.6841C102.589 45.2633 102.982 45.0669 103.402 45.0669C103.739 45.0669 103.991 45.2072 104.131 45.4596H104.159L104.215 45.1791H105L104.439 48.3772ZM103.935 46.7781L103.991 46.4415C104.019 46.2451 104.019 46.0768 103.907 45.9365C103.823 45.8243 103.655 45.7402 103.458 45.7402C103.206 45.7402 103.01 45.8804 102.842 46.1329C102.673 46.3854 102.589 46.722 102.589 47.0867C102.589 47.4795 102.758 47.6758 103.066 47.6758C103.234 47.6758 103.43 47.5917 103.599 47.4234C103.739 47.3111 103.879 47.0867 103.935 46.7781Z" fill="#173C68"/>
<path d="M104.86 47.255L105.589 47.1147C105.617 47.3391 105.673 47.5075 105.785 47.5916C105.897 47.7038 106.065 47.7319 106.262 47.7319C106.626 47.7319 106.794 47.6197 106.794 47.3953C106.794 47.3111 106.738 47.255 106.654 47.1989C106.57 47.1428 106.374 47.0586 106.037 46.9183C105.673 46.8061 105.449 46.6659 105.308 46.5256C105.168 46.3853 105.112 46.217 105.112 45.9926C105.112 45.7401 105.224 45.5157 105.421 45.3193C105.617 45.123 105.925 45.0107 106.346 45.0107C106.71 45.0107 107.018 45.0949 107.243 45.2913C107.467 45.4876 107.607 45.7401 107.635 46.0207L106.934 46.1329C106.906 45.9926 106.822 45.8804 106.738 45.7962C106.626 45.7121 106.514 45.656 106.318 45.656C106.149 45.656 106.037 45.684 105.953 45.7401C105.869 45.7962 105.841 45.8523 105.841 45.9365C105.841 45.9926 105.897 46.0768 105.981 46.1329C106.065 46.189 106.318 46.2731 106.654 46.4134C106.99 46.5256 107.215 46.6659 107.327 46.8061C107.439 46.9464 107.495 47.1147 107.495 47.3391C107.495 47.6197 107.383 47.8722 107.159 48.0966C106.934 48.293 106.598 48.4052 106.205 48.4052C105.757 48.4052 105.421 48.293 105.168 48.0685C105 47.9002 104.888 47.6197 104.86 47.255Z" fill="#173C68"/>
<path d="M107.579 48.3771L108.364 43.9728H109.149L108.897 45.4315C108.953 45.3474 109.065 45.2913 109.205 45.2071C109.345 45.1229 109.513 45.0949 109.709 45.0949C110.046 45.0949 110.298 45.2071 110.466 45.4315C110.635 45.656 110.691 45.9645 110.606 46.3573L110.242 48.4052H109.485L109.822 46.4414C109.85 46.2731 109.822 46.1048 109.766 45.9926C109.681 45.8804 109.569 45.8243 109.373 45.8243C109.205 45.8243 109.065 45.8804 108.953 45.9645C108.84 46.0487 108.756 46.189 108.7 46.3853L108.336 48.4052H107.579V48.3771Z" fill="#173C68"/>
<path d="M113.157 48.4612C112.765 48.4612 112.429 48.3209 112.176 48.0685C111.924 47.816 111.784 47.4513 111.784 47.0025C111.784 46.4695 111.952 46.0206 112.26 45.6559C112.569 45.2912 112.989 45.0948 113.466 45.0948C113.858 45.0948 114.195 45.2351 114.447 45.4876C114.699 45.7401 114.811 46.1048 114.811 46.5536C114.811 47.0866 114.643 47.5355 114.335 47.9002C114.054 48.2648 113.662 48.4612 113.157 48.4612ZM113.185 47.7318C113.438 47.7318 113.634 47.6196 113.802 47.3952C113.97 47.1708 114.054 46.8902 114.054 46.4975C114.054 46.2731 113.998 46.0767 113.886 45.9645C113.774 45.8242 113.606 45.7681 113.438 45.7681C113.185 45.7681 112.989 45.8803 112.821 46.1048C112.653 46.3292 112.569 46.6378 112.569 47.0025C112.569 47.2269 112.625 47.4233 112.737 47.5355C112.849 47.6757 113.017 47.7318 113.185 47.7318Z" fill="#173C68"/>
<path d="M114.923 47.1988L115.288 45.151H116.101L115.764 47.1147C115.708 47.5074 115.82 47.6757 116.157 47.6757C116.577 47.6757 116.83 47.5074 116.886 47.1427L117.222 45.1229H118.035L117.474 48.321H116.689L116.745 48.0124C116.661 48.1246 116.549 48.2087 116.409 48.2929C116.269 48.3771 116.073 48.4051 115.876 48.4051C115.092 48.4612 114.783 48.0404 114.923 47.1988Z" fill="#173C68"/>
<path d="M118.315 47.2269L118.568 45.8242H118.119L118.231 45.151H118.708L118.848 44.3655H119.605L119.465 45.151H120.277L120.165 45.8242H119.38L119.156 47.1427C119.128 47.2269 119.128 47.3111 119.128 47.3391C119.128 47.4233 119.156 47.5074 119.212 47.5355C119.268 47.5635 119.352 47.5916 119.493 47.5916H119.745L119.605 48.349H119.268C118.932 48.349 118.68 48.2929 118.511 48.1807C118.371 48.0685 118.287 47.8721 118.287 47.6196C118.287 47.5355 118.287 47.3952 118.315 47.2269Z" fill="#173C68"/>
<path d="M94.6284 37.8853V50.0322" stroke="#173D68" stroke-width="4" stroke-miterlimit="10"/>
</svg>
