<svg fill="none" xmlns="http://www.w3.org/2000/svg">
<path d="M58.9158 49.6395C56.3088 49.92 54.0102 50.0603 51.9919 50.0603C51.0388 50.0603 50.282 49.7798 49.7213 49.1907C49.1607 48.6296 48.8524 47.8441 48.8524 46.9184V42.0932C48.8524 41.0553 49.1607 40.2137 49.7494 39.6246C50.338 39.0354 51.151 38.7269 52.2162 38.7269H58.9158V41.5602H53.3655C52.8048 41.5602 52.5245 41.8408 52.5245 42.4018V46.4976C52.5245 46.6939 52.5806 46.8903 52.7207 47.0306C52.8609 47.1708 53.0291 47.2269 53.2534 47.2269C54.5148 47.2269 56.3929 47.1147 58.9158 46.9184V49.6395Z" fill="#173C68"/>
<path d="M65.1949 39.1477V49.8359H61.5227V41.981H59.9529V39.1477H65.1949ZM61.5227 34.9397H65.1949V37.8853H61.5227V34.9397Z" fill="#00B378"/>
<path d="M77.1365 49.6395C74.5295 49.92 72.2309 50.0603 70.2126 50.0603C69.2595 50.0603 68.5027 49.7798 67.942 49.1907C67.3814 48.6296 67.0731 47.8441 67.0731 46.9184V42.0932C67.0731 41.0553 67.3814 40.2137 67.9701 39.6246C68.5587 39.0354 69.3717 38.7269 70.4369 38.7269H77.1365V41.5602H71.5862C71.0255 41.5602 70.7452 41.8408 70.7452 42.4018V46.4976C70.7452 46.6939 70.8013 46.8903 70.9414 47.0306C71.0816 47.1708 71.2498 47.2269 71.4741 47.2269C72.7355 47.2269 74.6136 47.1147 77.1365 46.9184V49.6395Z" fill="#173C68"/>
<path d="M90.1433 46.6939C90.1433 47.7319 89.8349 48.5735 89.2462 49.1626C88.6576 49.7517 87.8446 50.0603 86.7794 50.0603H81.9579C80.9208 50.0603 80.0798 49.7517 79.4911 49.1626C78.9025 48.5735 78.5941 47.76 78.5941 46.6939V41.8688C78.5941 40.8308 78.9025 39.9893 79.4911 39.4001C80.0798 38.811 80.8927 38.5024 81.9579 38.5024H86.7794C87.8166 38.5024 88.6576 38.811 89.2462 39.4001C89.8349 39.9893 90.1433 40.8028 90.1433 41.8688V46.6939ZM86.4711 42.1774C86.4711 41.6163 86.1908 41.3358 85.6301 41.3358H83.1073C82.5466 41.3358 82.2663 41.6163 82.2663 42.1774V46.3854C82.2663 46.9464 82.5466 47.227 83.1073 47.227H85.6301C86.1908 47.227 86.4711 46.9464 86.4711 46.3854V42.1774Z" fill="#173C68"/>
<path d="M100.935 41.0833L101.664 41.3638C101.44 42.0932 100.935 42.4579 100.179 42.4579C99.7862 42.4579 99.4778 42.3457 99.2536 42.0932C99.0013 41.8407 98.8892 41.5322 98.8892 41.1114C98.8892 40.4942 99.0573 39.9892 99.3657 39.6245C99.674 39.2598 100.066 39.0635 100.543 39.0635C100.964 39.0635 101.272 39.1757 101.496 39.4282C101.72 39.6806 101.833 39.9892 101.833 40.382L101.104 40.4381C101.104 40.2417 101.076 40.1014 100.992 39.9612C100.907 39.8209 100.767 39.7648 100.543 39.7648C100.291 39.7648 100.095 39.877 99.9263 40.1295C99.7862 40.3539 99.7021 40.6625 99.7021 41.0272C99.7021 41.5041 99.8983 41.7285 100.291 41.7285C100.403 41.7285 100.487 41.7005 100.571 41.6724C100.655 41.6444 100.711 41.5883 100.767 41.5041C100.823 41.4199 100.851 41.3638 100.879 41.3077C100.879 41.2516 100.907 41.1675 100.935 41.0833Z" fill="#00B378"/>
<path d="M104.439 42.3737H103.711L103.767 42.0091C103.683 42.1213 103.57 42.2335 103.43 42.3176C103.262 42.4018 103.094 42.4579 102.842 42.4579C102.561 42.4579 102.309 42.3457 102.113 42.1213C101.917 41.8968 101.804 41.5883 101.804 41.1955C101.804 40.6064 101.973 40.1014 102.281 39.6806C102.589 39.2599 102.982 39.0635 103.402 39.0635C103.739 39.0635 103.991 39.2037 104.131 39.4562H104.159L104.215 39.1757H105L104.439 42.3737ZM103.935 40.7747L103.991 40.4381C104.019 40.2417 104.019 40.0734 103.907 39.9331C103.823 39.8209 103.655 39.7367 103.458 39.7367C103.206 39.7367 103.01 39.877 102.842 40.1295C102.673 40.382 102.589 40.7186 102.589 41.0833C102.589 41.476 102.758 41.6724 103.066 41.6724C103.234 41.6724 103.43 41.5883 103.599 41.4199C103.739 41.3077 103.879 41.0833 103.935 40.7747Z" fill="#00B378"/>
<path d="M104.86 41.2516L105.589 41.1114C105.617 41.3358 105.673 41.5041 105.785 41.5883C105.897 41.7005 106.065 41.7285 106.262 41.7285C106.626 41.7285 106.794 41.6163 106.794 41.3919C106.794 41.3077 106.738 41.2516 106.654 41.1955C106.57 41.1394 106.374 41.0553 106.037 40.915C105.673 40.8028 105.449 40.6625 105.308 40.5223C105.168 40.382 105.112 40.2137 105.112 39.9892C105.112 39.7368 105.224 39.5123 105.421 39.316C105.617 39.1196 105.925 39.0074 106.346 39.0074C106.71 39.0074 107.018 39.0915 107.243 39.2879C107.467 39.4843 107.607 39.7368 107.635 40.0173L106.934 40.1295C106.906 39.9892 106.822 39.877 106.738 39.7929C106.626 39.7087 106.514 39.6526 106.318 39.6526C106.149 39.6526 106.037 39.6807 105.953 39.7368C105.869 39.7929 105.841 39.849 105.841 39.9331C105.841 39.9892 105.897 40.0734 105.981 40.1295C106.093 40.1856 106.318 40.2698 106.654 40.41C106.99 40.5223 107.215 40.6625 107.327 40.8028C107.439 40.943 107.495 41.1114 107.495 41.3358C107.495 41.6163 107.383 41.8688 107.159 42.0932C106.934 42.2896 106.598 42.4018 106.205 42.4018C105.757 42.4018 105.421 42.2896 105.168 42.0652C105 41.8969 104.888 41.6163 104.86 41.2516Z" fill="#00B378"/>
<path d="M107.579 42.3738L108.364 37.9694H109.149L108.897 39.4282C108.953 39.344 109.065 39.2879 109.205 39.2038C109.345 39.1196 109.513 39.0915 109.709 39.0915C110.046 39.0915 110.298 39.2038 110.466 39.4282C110.635 39.6526 110.691 39.9612 110.606 40.3539L110.242 42.4018H109.485L109.822 40.4381C109.85 40.2698 109.822 40.1015 109.766 39.9892C109.681 39.877 109.569 39.8209 109.373 39.8209C109.205 39.8209 109.065 39.877 108.953 39.9612C108.812 40.0734 108.756 40.1856 108.7 40.382L108.336 42.4018H107.579V42.3738Z" fill="#00B378"/>
<path d="M111.728 42.3738L112.288 39.1757H113.101L112.541 42.3738H111.728ZM112.372 38.6988L112.513 37.9694H113.298L113.157 38.6988H112.372Z" fill="#00B378"/>
<path d="M113.017 42.3738L113.578 39.1757H114.335L114.279 39.4843C114.503 39.2318 114.811 39.0916 115.176 39.0916C115.512 39.0916 115.764 39.2038 115.933 39.4282C116.101 39.6526 116.157 39.9893 116.101 40.4101L115.764 42.3738H114.979L115.316 40.4662C115.4 40.0173 115.232 39.7929 114.839 39.7929C114.671 39.7929 114.503 39.849 114.391 39.9331C114.279 40.0454 114.195 40.1576 114.167 40.3259L113.802 42.3457H113.017V42.3738Z" fill="#00B378"/>
<path d="M100.935 47.0867L101.664 47.3672C101.44 48.0966 100.935 48.4613 100.179 48.4613C99.7862 48.4613 99.4778 48.349 99.2536 48.0966C99.0013 47.8441 98.8892 47.5355 98.8892 47.1147C98.8892 46.4975 99.0573 45.9926 99.3657 45.6279C99.674 45.2632 100.066 45.0668 100.543 45.0668C100.964 45.0668 101.272 45.1791 101.496 45.4315C101.72 45.684 101.833 45.9926 101.833 46.3853L101.104 46.4414C101.104 46.2451 101.076 46.1048 100.992 45.9645C100.907 45.8243 100.767 45.7682 100.543 45.7682C100.291 45.7682 100.095 45.8804 99.9263 46.1329C99.7581 46.3853 99.7021 46.6659 99.7021 47.0305C99.7021 47.5075 99.8983 47.7319 100.291 47.7319C100.403 47.7319 100.487 47.7038 100.571 47.6758C100.655 47.6477 100.711 47.5916 100.767 47.5075C100.823 47.4233 100.851 47.3672 100.879 47.3111C100.879 47.255 100.907 47.1989 100.935 47.0867Z" fill="#173C68"/>
<path d="M104.439 48.3771H103.711L103.767 48.0124C103.683 48.1246 103.57 48.2368 103.43 48.321C103.262 48.4052 103.094 48.4613 102.842 48.4613C102.561 48.4613 102.309 48.3491 102.113 48.1246C101.917 47.9002 101.804 47.5916 101.804 47.1989C101.804 46.6098 101.973 46.1048 102.281 45.684C102.589 45.2632 102.982 45.0668 103.402 45.0668C103.739 45.0668 103.991 45.2071 104.131 45.4596H104.159L104.215 45.1791H105L104.439 48.3771ZM103.935 46.7781L103.991 46.4414C104.019 46.2451 104.019 46.0767 103.907 45.9365C103.823 45.8243 103.655 45.7401 103.458 45.7401C103.206 45.7401 103.01 45.8804 102.842 46.1329C102.673 46.3853 102.589 46.722 102.589 47.0867C102.589 47.4794 102.758 47.6758 103.066 47.6758C103.234 47.6758 103.43 47.5916 103.599 47.4233C103.739 47.3111 103.879 47.0867 103.935 46.7781Z" fill="#173C68"/>
<path d="M104.86 47.255L105.589 47.1147C105.617 47.3391 105.673 47.5075 105.785 47.5916C105.897 47.7038 106.065 47.7319 106.262 47.7319C106.626 47.7319 106.794 47.6197 106.794 47.3953C106.794 47.3111 106.738 47.255 106.654 47.1989C106.57 47.1428 106.374 47.0586 106.037 46.9183C105.673 46.8061 105.449 46.6659 105.308 46.5256C105.168 46.3853 105.112 46.217 105.112 45.9926C105.112 45.7401 105.224 45.5157 105.421 45.3193C105.617 45.123 105.925 45.0107 106.346 45.0107C106.71 45.0107 107.018 45.0949 107.243 45.2913C107.467 45.4876 107.607 45.7401 107.635 46.0207L106.934 46.1329C106.906 45.9926 106.822 45.8804 106.738 45.7962C106.626 45.7121 106.514 45.656 106.318 45.656C106.149 45.656 106.037 45.684 105.953 45.7401C105.869 45.7962 105.841 45.8523 105.841 45.9365C105.841 45.9926 105.897 46.0768 105.981 46.1329C106.065 46.189 106.318 46.2731 106.654 46.4134C106.99 46.5256 107.215 46.6659 107.327 46.8061C107.439 46.9464 107.495 47.1147 107.495 47.3391C107.495 47.6197 107.383 47.8722 107.159 48.0966C106.934 48.293 106.598 48.4052 106.205 48.4052C105.757 48.4052 105.421 48.293 105.168 48.0685C105 47.9002 104.888 47.6197 104.86 47.255Z" fill="#173C68"/>
<path d="M107.579 48.3771L108.364 43.9728H109.149L108.897 45.4315C108.953 45.3474 109.065 45.2913 109.205 45.2071C109.345 45.1229 109.513 45.0949 109.709 45.0949C110.046 45.0949 110.298 45.2071 110.466 45.4315C110.635 45.656 110.691 45.9645 110.606 46.3573L110.242 48.4052H109.485L109.822 46.4414C109.85 46.2731 109.822 46.1048 109.766 45.9926C109.681 45.8804 109.569 45.8243 109.373 45.8243C109.205 45.8243 109.065 45.8804 108.953 45.9645C108.84 46.0487 108.756 46.189 108.7 46.3853L108.336 48.4052H107.579V48.3771Z" fill="#173C68"/>
<path d="M113.157 48.4613C112.765 48.4613 112.429 48.321 112.176 48.0685C111.924 47.8161 111.784 47.4514 111.784 47.0025C111.784 46.4695 111.952 46.0207 112.26 45.656C112.569 45.2913 112.989 45.0949 113.466 45.0949C113.858 45.0949 114.195 45.2352 114.447 45.4877C114.699 45.7401 114.811 46.1048 114.811 46.5537C114.811 47.0867 114.643 47.5355 114.335 47.9002C114.054 48.2649 113.662 48.4613 113.157 48.4613ZM113.185 47.7319C113.438 47.7319 113.634 47.6197 113.802 47.3953C113.97 47.1708 114.054 46.8903 114.054 46.4976C114.054 46.2731 113.998 46.0768 113.886 45.9646C113.774 45.8243 113.606 45.7682 113.438 45.7682C113.185 45.7682 112.989 45.8804 112.821 46.1048C112.653 46.3292 112.569 46.6378 112.569 47.0025C112.569 47.2269 112.625 47.4233 112.737 47.5355C112.849 47.6758 113.017 47.7319 113.185 47.7319Z" fill="#173C68"/>
<path d="M114.923 47.1989L115.288 45.151H116.101L115.764 47.1147C115.708 47.5075 115.82 47.6758 116.157 47.6758C116.577 47.6758 116.83 47.5075 116.886 47.1428L117.222 45.123H118.035L117.474 48.321H116.689L116.745 48.0124C116.661 48.1246 116.549 48.2088 116.409 48.2929C116.269 48.3771 116.073 48.4052 115.876 48.4052C115.092 48.4613 114.783 48.0405 114.923 47.1989Z" fill="#173C68"/>
<path d="M118.315 47.2269L118.568 45.8243H118.119L118.231 45.151H118.708L118.848 44.3655H119.605L119.465 45.151H120.277L120.165 45.8243H119.38L119.156 47.1428C119.128 47.2269 119.128 47.3111 119.128 47.3391C119.128 47.4233 119.156 47.5075 119.212 47.5355C119.268 47.5636 119.352 47.5916 119.493 47.5916H119.745L119.605 48.3491H119.268C118.932 48.3491 118.68 48.2929 118.511 48.1807C118.371 48.0685 118.287 47.8721 118.287 47.6197C118.287 47.5355 118.287 47.3952 118.315 47.2269Z" fill="#173C68"/>
<path d="M94.6284 37.8853V50.0322" stroke="#173D68" stroke-width="4" stroke-miterlimit="10"/>
</svg>
