<svg width="33" height="39" viewBox="0 0 33 39" fill="none" xmlns="http://www.w3.org/2000/svg">
<path d="M17.7005 16.2878C18.1549 16.2878 18.5245 16.6592 18.5245 17.1157C18.5245 17.5303 18.8047 17.8666 19.1502 17.8666C19.4957 17.8666 19.7759 17.5303 19.7759 17.1157C19.7759 16.0759 19.1657 15.1931 18.3262 14.8945V14.7901C18.3262 14.3755 18.0461 14.0393 17.7005 14.0393C17.355 14.0393 17.0749 14.3755 17.0749 14.7901V14.8945C16.2354 15.1932 15.6252 16.0759 15.6252 17.1157C15.6252 18.4002 16.5562 19.4453 17.7005 19.4453C18.1549 19.4453 18.5245 19.8167 18.5245 20.2732C18.5245 20.7297 18.1549 21.1011 17.7005 21.1011C17.2462 21.1011 16.8766 20.7297 16.8766 20.2732C16.8766 19.8586 16.5964 19.5224 16.2509 19.5224C15.9054 19.5224 15.6252 19.8586 15.6252 20.2732C15.6252 21.313 16.2354 22.1957 17.0749 22.4943V22.5987C17.0749 23.0133 17.355 23.3495 17.7005 23.3495C18.0461 23.3495 18.3262 23.0133 18.3262 22.5987V22.4943C19.1657 22.1957 19.7759 21.313 19.7759 20.2732C19.7759 18.9887 18.8449 17.9436 17.7005 17.9436C17.2462 17.9436 16.8766 17.5722 16.8766 17.1157C16.8766 16.6592 17.2462 16.2878 17.7005 16.2878Z" fill="#567DF4"/>
<path d="M31.9403 25.0813C31.695 24.0605 31.0046 23.2892 30.1386 23.0681C29.5841 22.9264 29.0073 23.0298 28.5148 23.344C28.8 21.2157 28.6502 19.0142 28.0633 16.9621C27.9511 16.5698 27.5952 16.3613 27.2684 16.4956C26.9415 16.6302 26.7675 17.0573 26.8796 17.4495C27.5728 19.873 27.5784 22.5316 26.8993 24.958L21.9131 30.2722C21.6055 30.6 21.2681 30.878 20.9095 31.1037C21.0109 30.6115 21.004 30.0903 20.8822 29.5952C20.69 28.8133 20.2283 28.1629 19.6156 27.8108L15.1984 25.272C13.2673 24.162 11.007 24.0336 8.99717 24.9191L8.54817 25.1169C7.30192 20.8922 8.16938 16.2069 10.8382 13.0043L15.2555 7.70365H20.1457L23.8884 12.1949C24.1328 12.4881 24.5289 12.4881 24.7734 12.1949C25.0177 11.9017 25.0177 11.4263 24.7734 11.133L21.1973 6.84192L22.49 2.37758C22.6633 1.77909 22.4719 1.12616 22.0246 0.789638C21.5773 0.453187 21.0041 0.531199 20.6307 0.978999L20.623 0.988234C20.3644 1.29871 19.9434 1.29871 19.6848 0.988234C18.5867 -0.329411 16.8 -0.329411 15.7019 0.988234C15.5766 1.13863 15.41 1.22137 15.2328 1.22137C15.0556 1.22137 14.889 1.13855 14.7637 0.988234C14.39 0.539759 13.8164 0.462122 13.3688 0.799624C12.9212 1.13705 12.7306 1.79088 12.9052 2.3896L14.2036 6.84237L9.95336 11.9426C8.38042 13.8302 7.33483 16.21 6.92975 18.8248C6.57442 21.1179 6.72834 23.4561 7.37249 25.6351L6.38609 26.0697C6.05785 25.5576 5.54259 25.2266 4.96388 25.2266H1.79368C0.804643 25.2267 0 26.1923 0 27.3791V36.289C0 37.4758 0.804643 38.4414 1.79368 38.4414H18.2847C20.875 38.4414 23.3245 37.2483 25.182 35.0819L31.3087 27.9366C31.9436 27.1962 32.1856 26.1022 31.9403 25.0813ZM15.2327 2.72312C15.7442 2.72312 16.225 2.48413 16.5867 2.05014C17.1969 1.31793 18.1897 1.31793 18.7999 2.05014C19.1616 2.48413 19.6425 2.72312 20.1539 2.72312C20.5171 2.72312 20.8647 2.60269 21.1653 2.37743L20.0578 6.20205H15.3427L14.229 2.38314C14.5279 2.60464 14.8726 2.72312 15.2327 2.72312ZM1.25139 36.289V27.3791C1.25139 27.0202 1.49466 26.7283 1.79368 26.7283H4.96382C5.26284 26.7283 5.50611 27.0202 5.50611 27.3791V36.289C5.50611 36.6478 5.26284 36.9397 4.96382 36.9397H1.79368C1.49466 36.9398 1.25139 36.6479 1.25139 36.289ZM30.4366 26.8598L24.3099 34.0051C22.6872 35.8975 20.5474 36.9398 18.2847 36.9398H6.67347C6.7279 36.7344 6.7575 36.5158 6.7575 36.289V27.5058L9.42846 26.3289C11.1233 25.5822 13.0295 25.6905 14.6579 26.6265L19.075 29.1653C19.3729 29.3365 19.5885 29.6402 19.682 30.0204C19.7754 30.4007 19.7318 30.7963 19.5591 31.1342C19.2815 31.6769 18.7344 31.9211 18.2287 31.7284L12.3605 29.4891C12.0313 29.3635 11.6794 29.5819 11.5746 29.9771C11.4699 30.3723 11.6519 30.7945 11.9813 30.9202L17.8494 33.1595C18.0911 33.2517 18.3372 33.296 18.5802 33.296C18.6095 33.296 18.6386 33.2939 18.6678 33.2926C20.1726 33.2666 21.6171 32.5963 22.744 31.3951L28.8825 24.8528C29.1526 24.565 29.525 24.447 29.8782 24.5371C30.2976 24.6441 30.6189 25.0032 30.7377 25.4976C30.8567 25.9919 30.7441 26.5011 30.4366 26.8598Z" fill="#567DF4"/>
<path d="M26.2003 14.9408C26.3648 14.9408 26.5262 14.8612 26.6425 14.7208C26.7589 14.5812 26.8259 14.3882 26.8259 14.19C26.8259 13.9926 26.759 13.7996 26.6425 13.6592C26.5262 13.5196 26.3648 13.4392 26.2003 13.4392C26.0356 13.4392 25.8749 13.5195 25.7579 13.6592C25.6415 13.7996 25.5746 13.9926 25.5746 14.19C25.5746 14.3882 25.6415 14.5812 25.7579 14.7208C25.8742 14.8613 26.0356 14.9408 26.2003 14.9408Z" fill="#567DF4"/>
</svg>
