<?xml version="1.0" encoding="iso-8859-1"?>
<!-- Generator: Adobe Illustrator 16.0.0, SVG Export Plug-In . SVG Version: 6.00 Build 0)  -->
<!DOCTYPE svg PUBLIC "-//W3C//DTD SVG 1.1//EN" "http://www.w3.org/Graphics/SVG/1.1/DTD/svg11.dtd">
<svg version="1.1" id="Capa_1" fill="#ff9c52" xmlns="http://www.w3.org/2000/svg" xmlns:xlink="http://www.w3.org/1999/xlink" x="0px" y="0px"
	 width="425.126px" height="425.125px" viewBox="0 0 425.126 425.125" style="enable-background:new 0 0 425.126 425.125;"
	 xml:space="preserve">
<g>
	<path d="M122.54,301.304c28.648,28.655,61.832,56.046,74.943,42.929c18.782-18.775,30.355-35.129,71.747-1.863
		c41.392,33.279,9.602,55.454-8.589,73.65c-20.991,20.992-99.239,1.102-176.583-76.234C6.722,262.442-13.175,184.195,7.83,163.196
		c18.197-18.197,40.372-49.98,73.63-8.582c33.272,41.385,16.925,52.965-1.856,71.74C66.5,239.472,93.884,272.649,122.54,301.304z
		 M425.126,104.601c0,57.066-58.452,103.326-130.553,103.326c-7.208,0-14.232-0.585-21.121-1.469
		c-19.618,20.081-49.585,29.838-83.626,32.381c13.94-13.94,23.915-34.17,27.043-51.34c-32.015-18.829-52.856-48.899-52.856-82.892
		c0-57.065,58.453-103.326,130.554-103.326S425.126,47.535,425.126,104.601z M212.972,104.601c0,11.268,9.133,20.4,20.401,20.4
		s20.4-9.132,20.4-20.4s-9.133-20.4-20.4-20.4S212.972,93.333,212.972,104.601z M314.973,104.601c0-11.268-9.132-20.4-20.399-20.4
		s-20.4,9.132-20.4,20.4s9.133,20.4,20.4,20.4S314.973,115.868,314.973,104.601z M376.173,104.601c0-11.268-9.132-20.4-20.399-20.4
		s-20.4,9.132-20.4,20.4s9.133,20.4,20.4,20.4S376.173,115.868,376.173,104.601z"/>
</g>
<g>
</g>
<g>
</g>
<g>
</g>
<g>
</g>
<g>
</g>
<g>
</g>
<g>
</g>
<g>
</g>
<g>
</g>
<g>
</g>
<g>
</g>
<g>
</g>
<g>
</g>
<g>
</g>
<g>
</g>
</svg>
