<svg width="830" height="171" viewBox="0 0 830 171" fill="none" xmlns="http://www.w3.org/2000/svg">
<rect x="180" y="74" width="4" height="2" fill="white"/>
<rect y="34" width="4" height="2" fill="white"/>
<rect x="106" y="162" width="4" height="2" fill="white"/>
<rect x="298" y="164" width="4" height="2" fill="white"/>
<rect x="490" y="46" width="4" height="2" fill="white"/>
<rect x="302" y="48" width="4" height="2" fill="white"/>
<rect x="434" y="120" width="4" height="2" fill="white"/>
<rect x="566" y="152" width="4" height="2" fill="white"/>
<rect x="818" y="74" width="4" height="2" fill="white"/>
<rect x="610" y="6" width="4" height="2" fill="white"/>
<rect x="188" y="74" width="4" height="2" fill="white"/>
<rect x="8" y="34" width="4" height="2" fill="white"/>
<rect x="114" y="162" width="4" height="2" fill="white"/>
<rect x="306" y="164" width="4" height="2" fill="white"/>
<rect x="498" y="46" width="4" height="2" fill="white"/>
<rect x="310" y="48" width="4" height="2" fill="white"/>
<rect x="442" y="120" width="4" height="2" fill="white"/>
<rect x="574" y="152" width="4" height="2" fill="white"/>
<rect x="826" y="74" width="4" height="2" fill="white"/>
<rect x="618" y="6" width="4" height="2" fill="white"/>
<rect x="185" y="72" width="4" height="2" transform="rotate(-90 185 72)" fill="white"/>
<rect x="5" y="32" width="4" height="2" transform="rotate(-90 5 32)" fill="white"/>
<rect x="111" y="160" width="4" height="2" transform="rotate(-90 111 160)" fill="white"/>
<rect x="303" y="162" width="4" height="2" transform="rotate(-90 303 162)" fill="white"/>
<rect x="495" y="44" width="4" height="2" transform="rotate(-90 495 44)" fill="white"/>
<rect x="307" y="46" width="4" height="2" transform="rotate(-90 307 46)" fill="white"/>
<rect x="439" y="118" width="4" height="2" transform="rotate(-90 439 118)" fill="white"/>
<rect x="571" y="150" width="4" height="2" transform="rotate(-90 571 150)" fill="white"/>
<rect x="823" y="72" width="4" height="2" transform="rotate(-90 823 72)" fill="white"/>
<rect x="615" y="4" width="4" height="2" transform="rotate(-90 615 4)" fill="white"/>
<rect x="184.876" y="80.658" width="3.52941" height="2.11765" transform="rotate(-88.4747 184.876 80.658)" fill="white"/>
<rect x="4.87604" y="40.658" width="3.52941" height="2.11765" transform="rotate(-88.4747 4.87604 40.658)" fill="white"/>
<rect x="110.876" y="168.658" width="3.52941" height="2.11765" transform="rotate(-88.4747 110.876 168.658)" fill="white"/>
<rect x="302.876" y="170.658" width="3.52941" height="2.11765" transform="rotate(-88.4747 302.876 170.658)" fill="white"/>
<rect x="494.876" y="52.658" width="3.52941" height="2.11765" transform="rotate(-88.4747 494.876 52.658)" fill="white"/>
<rect x="306.876" y="54.658" width="3.52941" height="2.11765" transform="rotate(-88.4747 306.876 54.658)" fill="white"/>
<rect x="438.876" y="126.658" width="3.52941" height="2.11765" transform="rotate(-88.4747 438.876 126.658)" fill="white"/>
<rect x="570.876" y="158.658" width="3.52941" height="2.11765" transform="rotate(-88.4747 570.876 158.658)" fill="white"/>
<rect x="822.876" y="80.658" width="3.52941" height="2.11765" transform="rotate(-88.4747 822.876 80.658)" fill="white"/>
<rect x="614.876" y="12.658" width="3.52941" height="2.11765" transform="rotate(-88.4747 614.876 12.658)" fill="white"/>
</svg>
