<?xml version="1.0" encoding="iso-8859-1"?>
<!-- Generator: Adobe Illustrator 16.0.0, SVG Export Plug-In . SVG Version: 6.00 Build 0)  -->
<!DOCTYPE svg PUBLIC "-//W3C//DTD SVG 1.1//EN" "http://www.w3.org/Graphics/SVG/1.1/DTD/svg11.dtd">
<svg version="1.1" id="Capa_1" fill="#ff547d" xmlns="http://www.w3.org/2000/svg" xmlns:xlink="http://www.w3.org/1999/xlink" x="0px" y="0px"
	 width="559.09px" height="559.091px" viewBox="0 0 559.09 559.091" style="enable-background:new 0 0 559.09 559.091;"
	 xml:space="preserve">
<g>
	<g>
		<path d="M414.138,491.427H140.717v29.146h273.421V491.427z M210.409,513.736h-7.583c-1.348,0-2.419-1.062-2.419-2.362
			s1.071-2.353,2.419-2.353h7.583c1.625,0,2.955-1.233,2.955-2.764c0-1.521-1.33-2.754-2.955-2.754h-6.397
			c-0.229,0.315-0.612,0.517-1.042,0.517c0,0-0.048,0-0.067,0c-0.182,0-0.344-0.028-0.498-0.096l-3.949-1.616
			c-0.478-0.2-0.784-0.65-0.784-1.157s0.306-0.966,0.784-1.166l3.949-1.626c0.469-0.191,1.023-0.096,1.406,0.268
			c0.058,0.048,0.105,0.105,0.144,0.163h6.455c4.284,0,7.774,3.356,7.774,7.468C218.183,510.38,214.693,513.736,210.409,513.736z
			 M284.901,507.453h-3.117v5.461c0,0.363-0.297,0.649-0.68,0.649h-3.012c-0.383,0-0.688-0.296-0.688-0.649v-4.457h-1.568v4.457
			c0,0.363-0.306,0.649-0.679,0.649h-3.528c-0.373,0-0.679-0.296-0.679-0.649v-5.461h-2.601c-0.268,0-0.526-0.162-0.622-0.411
			c-0.105-0.248-0.058-0.535,0.153-0.717l8.119-7.717c0.249-0.239,0.65-0.239,0.928,0l8.472,7.707
			c0.191,0.191,0.249,0.469,0.163,0.727C285.436,507.291,285.178,507.453,284.901,507.453z M350.795,504.537v4.781h-3.901v2.285
			c0,0.918-0.765,1.664-1.711,1.664h-13.445c-0.938,0-1.702-0.756-1.702-1.664v-7.066c0-0.918,0.765-1.664,1.702-1.664h2.859v-3.127
			h16.198V504.537z"/>
		<rect x="333.45" y="506.201" width="10.021" height="3.738"/>
		<path d="M414.138,436.796h4.245v-40.373h-4.245v-97.05h4.245V253.33h-4.245V17.452c0-6.263-5.068-11.332-11.342-11.332h-194.08V0
			h-35.419v6.12h-21.258c-6.244,0-11.332,5.068-11.332,11.332v466.803h273.421v-47.459H414.138z M377.781,23.122
			c3.127,0,5.671,2.534,5.671,5.671c0,3.136-2.544,5.661-5.671,5.661c-3.136,0-5.67-2.534-5.67-5.661
			C372.111,25.656,374.645,23.122,377.781,23.122z M234.678,36.825h85.957v6.139h-85.957V36.825z M174.932,30.457
			c1.52,0,2.754,1.234,2.754,2.764c0,1.53-1.234,2.754-2.754,2.754c-1.521,0-2.754-1.233-2.754-2.754S173.412,30.457,174.932,30.457
			z M192.775,476.461c-1.759,0-3.184-1.434-3.184-3.184c0-1.76,1.415-3.185,3.184-3.185c1.76,0,3.185,1.425,3.185,3.185
			C195.96,475.036,194.535,476.461,192.775,476.461z M277.423,476.461c-1.76,0-3.185-1.434-3.185-3.184
			c0-1.76,1.425-3.185,3.185-3.185c1.769,0,3.194,1.425,3.194,3.185C280.617,475.036,279.182,476.461,277.423,476.461z
			 M362.07,476.461c-1.76,0-3.185-1.434-3.185-3.184c0-1.76,1.425-3.185,3.185-3.185s3.185,1.425,3.185,3.185
			C365.254,475.036,363.83,476.461,362.07,476.461z M392.182,457.986H164.088V54.994h228.094V457.986z"/>
		<path d="M152.039,559.091h250.757c6.264,0,11.342-5.068,11.342-11.331v-20.005H140.717v20.005
			C140.717,554.014,145.795,559.091,152.039,559.091z"/>
	</g>
</g>
<g>
</g>
<g>
</g>
<g>
</g>
<g>
</g>
<g>
</g>
<g>
</g>
<g>
</g>
<g>
</g>
<g>
</g>
<g>
</g>
<g>
</g>
<g>
</g>
<g>
</g>
<g>
</g>
<g>
</g>
</svg>
