<?xml version="1.0" encoding="iso-8859-1"?>
<!-- Generator: Adobe Illustrator 19.0.0, SVG Export Plug-In . SVG Version: 6.00 Build 0)  -->
<svg version="1.1" id="Layer_1" fill="#0bc2ff" xmlns="http://www.w3.org/2000/svg" xmlns:xlink="http://www.w3.org/1999/xlink" x="0px" y="0px"
	 viewBox="0 0 512 512" style="enable-background:new 0 0 512 512;" xml:space="preserve">
<g>
	<g>
		<g>
			<path d="M256.006,85.344c6.741,0,13.376,0.491,19.925,1.259c0.469,0.043,0.939,0.021,1.408,0.085V1.077
				c-7.061-0.576-14.123-1.067-21.333-1.067c-7.211,0-14.272,0.491-21.333,1.067v85.611c0.469-0.064,0.939-0.043,1.408-0.085
				C242.63,85.835,249.265,85.344,256.006,85.344z"/>
			<path d="M414.108,192h89.472C480.348,102.272,409.734,31.659,320.006,8.427v89.472C362.694,115.243,396.764,149.312,414.108,192z
				"/>
			<path d="M192.006,97.899V8.427C102.278,31.659,31.665,102.272,8.433,192h89.472C115.249,149.312,149.318,115.243,192.006,97.899z
				"/>
			<path d="M510.933,234.677h-85.611c0.064,0.469,0.021,0.939,0.085,1.408c0.768,6.549,1.259,13.163,1.259,19.925
				c0,6.741-0.491,13.355-1.259,19.904c-0.064,0.469-0.021,0.939-0.085,1.429h85.611c0.576-7.061,1.067-14.144,1.067-21.333
				C512,248.8,511.509,241.717,510.933,234.677z"/>
			<path d="M377.99,294.72l0.555-1.835c0.064-0.235,0.107-0.469,0.171-0.683c1.536-5.248,2.645-10.56,3.52-15.915
				c0.192-1.152,0.384-2.325,0.533-3.477c0.747-5.589,1.237-11.2,1.237-16.811s-0.491-11.221-1.237-16.811
				c-0.149-1.152-0.341-2.325-0.533-3.477c-0.875-5.355-1.984-10.667-3.52-15.915c-0.064-0.213-0.107-0.448-0.171-0.683
				l-0.555-1.835c-12.565-39.445-43.712-70.635-83.136-83.221l-2.219-0.661c-0.043,0-0.085-0.021-0.149-0.021
				c-5.397-1.621-10.901-2.752-16.405-3.648c-1.024-0.149-2.048-0.32-3.072-0.469c-11.285-1.515-22.72-1.515-34.005,0
				c-1.024,0.149-2.048,0.32-3.072,0.469c-5.504,0.896-11.008,2.027-16.405,3.648c-0.064,0-0.107,0.021-0.149,0.021l-2.219,0.661
				c-39.424,12.587-70.571,43.776-83.136,83.221l-0.555,1.835c-0.064,0.235-0.107,0.469-0.171,0.683
				c-1.536,5.248-2.645,10.56-3.52,15.915c-0.192,1.152-0.384,2.325-0.533,3.477c-0.747,5.589-1.237,11.2-1.237,16.811
				s0.491,11.221,1.237,16.811c0.149,1.152,0.341,2.325,0.533,3.477c0.875,5.355,1.984,10.667,3.52,15.915
				c0.064,0.213,0.107,0.448,0.171,0.683l0.555,1.835c12.565,39.445,43.712,70.635,83.136,83.221l2.219,0.661
				c0.043,0,0.085,0.021,0.149,0.021c5.397,1.621,10.901,2.752,16.405,3.648c1.024,0.149,2.048,0.32,3.072,0.469
				c11.285,1.515,22.72,1.515,34.005,0c1.024-0.149,2.048-0.32,3.072-0.469c5.504-0.896,11.008-2.027,16.405-3.648
				c0.064,0,0.107-0.021,0.149-0.021l2.219-0.661C334.278,365.355,365.425,334.165,377.99,294.72z M298.673,234.667
				c11.797,0,21.333,9.557,21.333,21.333v64c0,11.776-9.536,21.333-21.333,21.333H213.34c-11.797,0-21.333-9.557-21.333-21.333
				s9.536-21.333,21.333-21.333h64v-21.333h-64c-11.797,0-21.333-9.557-21.333-21.333v-64c0-11.776,9.536-21.333,21.333-21.333
				h85.333c11.797,0,21.333,9.557,21.333,21.333s-9.536,21.333-21.333,21.333h-64v21.333H298.673z"/>
			<path d="M256.006,426.656c-6.741,0-13.376-0.491-19.925-1.259c-0.469-0.043-0.939-0.021-1.408-0.085v85.611
				c7.061,0.576,14.123,1.067,21.333,1.067c7.211,0,14.272-0.491,21.333-1.067v-85.611c-0.469,0.064-0.939,0.043-1.408,0.085
				C269.382,426.165,262.748,426.656,256.006,426.656z"/>
			<path d="M320.006,414.101v89.472C409.734,480.341,480.348,409.728,503.58,320h-89.472
				C396.764,362.688,362.694,396.757,320.006,414.101z"/>
			<path d="M97.905,320H8.433c23.232,89.728,93.845,160.341,183.573,183.573v-89.472C149.318,396.757,115.249,362.688,97.905,320z"
				/>
			<path d="M86.613,275.925c-0.768-6.549-1.28-13.184-1.28-19.925s0.512-13.376,1.28-19.925c0.043-0.469,0.021-0.939,0.085-1.408
				H1.088C0.512,241.728,0,248.789,0,256s0.512,14.272,1.088,21.333h85.611C86.635,276.864,86.656,276.395,86.613,275.925z"/>
		</g>
	</g>
</g>
<g>
</g>
<g>
</g>
<g>
</g>
<g>
</g>
<g>
</g>
<g>
</g>
<g>
</g>
<g>
</g>
<g>
</g>
<g>
</g>
<g>
</g>
<g>
</g>
<g>
</g>
<g>
</g>
<g>
</g>
</svg>
