<svg width="22" height="24" viewBox="0 0 22 24" fill="none" xmlns="http://www.w3.org/2000/svg">
<path d="M11.8354 23.3709C11.8785 23.414 11.9327 23.4442 11.9921 23.4582C12.0514 23.4722 12.1134 23.4694 12.1712 23.4502L15.5051 22.3388C15.5069 22.3382 15.5086 22.3373 15.5103 22.3367C15.5201 22.3333 15.5296 22.3294 15.539 22.3251C15.5418 22.3238 15.5446 22.3226 15.5473 22.3212C15.5586 22.3157 15.5695 22.3096 15.5801 22.3028L15.581 22.3023C15.5917 22.2952 15.602 22.2876 15.6117 22.2793C15.6146 22.277 15.6171 22.2744 15.6199 22.272C15.6246 22.2679 15.6293 22.264 15.6336 22.2596L20.9192 16.9738C20.9497 16.9433 20.9739 16.9071 20.9904 16.8673C21.0068 16.8275 21.0153 16.7848 21.0153 16.7417C21.0153 16.6986 21.0068 16.656 20.9904 16.6162C20.9739 16.5763 20.9497 16.5402 20.9192 16.5097L18.6968 14.2871C18.6664 14.2566 18.6302 14.2324 18.5904 14.2159C18.5506 14.1994 18.5079 14.191 18.4648 14.191C18.4217 14.191 18.379 14.1994 18.3392 14.2159C18.2994 14.2324 18.2632 14.2566 18.2328 14.2871L15.1671 17.3524C14.9703 17.2318 14.7599 17.1349 14.5404 17.0636L11.2203 15.9872V14.4722C11.8033 14.1241 12.3061 13.6567 12.6957 13.1005C13.0852 12.5443 13.3527 11.912 13.4806 11.2451L13.6754 10.575C14.0451 10.4548 14.3556 10.1992 14.5448 9.85963C14.7339 9.52003 14.7877 9.12147 14.6954 8.74387C14.6472 8.5419 14.5486 8.35544 14.4087 8.20196C14.2689 8.04847 14.0924 7.93298 13.8958 7.86628V5.67834C13.8958 4.31377 13.3537 3.00508 12.3888 2.04018C11.4239 1.07528 10.1152 0.533203 8.75061 0.533203C7.38603 0.533203 6.07735 1.07528 5.11244 2.04018C4.14754 3.00508 3.60547 4.31377 3.60547 5.67834V7.86572C3.40838 7.93223 3.23143 8.04773 3.09123 8.20138C2.95102 8.35502 2.85215 8.54178 2.80391 8.74411C2.71162 9.12171 2.76545 9.52023 2.95461 9.85981C3.14376 10.1994 3.45428 10.4549 3.82391 10.5752L4.01876 11.2453C4.14661 11.9122 4.41409 12.5445 4.80365 13.1007C5.19321 13.6569 5.69603 14.1243 6.27908 14.4724V15.9874L2.95906 17.0636C2.03178 17.3643 1.32861 18.0884 1.07816 19.0004C1.06834 19.036 1.05925 19.0718 1.05087 19.1078C1.00508 19.3096 0.982841 19.5161 0.984593 19.723V22.1418C0.984593 22.2288 1.01916 22.3123 1.0807 22.3738C1.14223 22.4353 1.22569 22.4699 1.31272 22.4699H11.9446L11.7562 23.0353C11.7369 23.0931 11.7342 23.155 11.7482 23.2143C11.7621 23.2736 11.7924 23.3278 11.8354 23.3709ZM12.5863 22.62L13.3222 20.4122L14.7941 21.8841L12.5863 22.62ZM17.2422 16.2056L19.0007 17.9642L15.4015 21.5635L13.6428 19.8048L17.2422 16.2056ZM18.4646 14.9832L20.2232 16.7417L19.4647 17.5002L17.7062 15.7416L18.4646 14.9832ZM9.16625 5.77341C9.58484 6.21872 10.8994 7.40109 13.2397 7.64156V7.81031C12.3332 7.78805 9.65262 7.58892 7.52408 6.08105L7.55347 6.07725C8.09655 6.00764 8.63507 5.90618 9.16625 5.77341ZM4.26191 5.67834C4.26191 4.48782 4.73484 3.34605 5.57667 2.50422C6.4185 1.66239 7.56027 1.18945 8.7508 1.18945C9.94132 1.18945 11.0831 1.66239 11.9249 2.50422C12.7668 3.34605 13.2397 4.48782 13.2397 5.67834V6.98072C11.521 6.78567 10.4199 6.02447 9.89656 5.56289C10.7743 5.27489 11.522 4.89623 12.1312 4.42898C12.1654 4.40276 12.1941 4.37006 12.2156 4.33275C12.2372 4.29544 12.2512 4.25424 12.2568 4.21152C12.2624 4.1688 12.2596 4.12539 12.2485 4.08377C12.2373 4.04214 12.2181 4.00312 12.1919 3.96893C12.1656 3.93474 12.1329 3.90605 12.0956 3.88449C12.0583 3.86294 12.0171 3.84894 11.9744 3.84331C11.9317 3.83767 11.8883 3.84051 11.8467 3.85165C11.805 3.86279 11.766 3.88203 11.7318 3.90825C10.4866 4.86323 8.73266 5.26008 7.48048 5.42484C6.6595 5.53441 5.831 5.5773 5.00309 5.55309C4.9599 5.55088 4.9167 5.55723 4.87597 5.57177C4.83523 5.58631 4.79778 5.60877 4.76576 5.63784C4.73373 5.66691 4.70777 5.70202 4.68937 5.74116C4.67096 5.7803 4.66048 5.82269 4.65851 5.86589L4.57883 7.61494C4.57681 7.66974 4.56041 7.72305 4.53128 7.76951C4.50214 7.81597 4.4613 7.85396 4.41284 7.87964C4.3664 7.90467 4.31461 7.91812 4.26186 7.91888L4.26191 5.67834ZM4.66076 11.1078C4.65881 11.0974 4.65632 11.0871 4.65331 11.0769L4.41214 10.2472C4.4006 10.1806 4.36878 10.1192 4.32104 10.0714C4.27329 10.0236 4.21194 9.99166 4.14537 9.98002C3.94086 9.94436 3.75551 9.83758 3.62208 9.67854C3.48865 9.51949 3.41571 9.31842 3.41614 9.11081C3.41611 9.03974 3.42459 8.96893 3.44141 8.89987C3.46426 8.80008 3.51362 8.70829 3.5843 8.63422C3.65497 8.56014 3.74432 8.50651 3.84294 8.47898C3.98792 8.54816 4.14776 8.58038 4.30822 8.57276C4.46867 8.56514 4.62475 8.51793 4.76252 8.43533C4.90029 8.35273 5.01548 8.23731 5.09781 8.09937C5.18013 7.96144 5.22703 7.80527 5.23433 7.6448L5.29934 6.2168C5.582 6.21947 6.03026 6.21412 6.57856 6.17512C8.04177 7.42992 9.83834 7.98661 11.1017 8.23294C12.4971 8.50505 13.5369 8.46881 13.5803 8.46731C13.5875 8.46703 13.5947 8.46614 13.6018 8.46539C13.712 8.48547 13.8138 8.53732 13.8949 8.61455C13.9759 8.69178 14.0326 8.79102 14.058 8.90006C14.0867 9.01742 14.091 9.13943 14.0707 9.25853C14.0504 9.37764 14.0059 9.49131 13.9399 9.59254C13.874 9.69377 13.788 9.78039 13.6872 9.84706C13.5864 9.91373 13.4731 9.95903 13.3541 9.98016C13.2875 9.99179 13.2262 10.0237 13.1784 10.0715C13.1307 10.1193 13.0988 10.1808 13.0873 10.2473L12.8461 11.077C12.8431 11.0872 12.8406 11.0975 12.8387 11.108C12.6594 12.0614 12.1527 12.9221 11.406 13.5415C10.6593 14.1608 9.71974 14.4998 8.74965 14.4998C7.77955 14.4998 6.83995 14.1608 6.0933 13.5415C5.34664 12.9221 4.83988 12.0614 4.66062 11.108L4.66076 11.1078ZM8.74995 15.156C9.37209 15.1562 9.98833 15.0355 10.5644 14.8005V16.0287C9.9976 16.2986 9.37774 16.4386 8.74998 16.4386C8.12221 16.4386 7.50235 16.2986 6.93556 16.0287V14.8005C7.51161 15.0355 8.12784 15.1562 8.74995 15.156ZM1.64084 21.8135V19.7228C1.6392 19.5661 1.65568 19.4096 1.68997 19.2566C1.69641 19.229 1.70339 19.2015 1.71092 19.1741C1.90273 18.4757 2.44498 17.92 3.16147 17.6877L6.57322 16.5815C7.2492 16.9188 7.99432 17.0944 8.74979 17.0944C9.50525 17.0944 10.2504 16.9188 10.9264 16.5815L14.3381 17.6877C14.458 17.7265 14.5744 17.7751 14.6862 17.833L12.9467 19.5726C12.9423 19.577 12.9384 19.5819 12.9343 19.5863C12.9319 19.589 12.9294 19.5915 12.927 19.5943C12.9188 19.6042 12.9111 19.6145 12.904 19.6253C12.8971 19.636 12.8908 19.6471 12.8852 19.6586C12.884 19.6612 12.8828 19.6638 12.8816 19.6664C12.8771 19.6759 12.8731 19.6857 12.8697 19.6957C12.8691 19.6974 12.8682 19.6989 12.8677 19.7004L12.1634 21.8135H1.64084Z" fill="#3E215B"/>
</svg>
