<svg width="30" height="33" viewBox="0 0 30 33" fill="none" xmlns="http://www.w3.org/2000/svg">
<path d="M0 30.25C0.00165736 31.7681 1.18793 32.9983 2.65177 33H22.2749C26.3753 33.0004 29.6996 29.5536 29.7 25.3014C29.7003 22.327 28.0485 19.6185 25.457 18.3439V7.15C25.457 7.00411 25.4011 6.86421 25.3017 6.76108L18.9374 0.161081C18.838 0.0579563 18.7031 0 18.5624 0H2.65177C1.18793 0.00171875 0.00165736 1.23193 0 2.75V30.25ZM28.6392 25.3C28.6392 28.9451 25.7898 31.9 22.2749 31.9C18.76 31.9 15.9106 28.9451 15.9106 25.3C15.9106 21.6549 18.76 18.7 22.2749 18.7C25.7882 18.7041 28.6352 21.6566 28.6392 25.3ZM19.0928 1.87777L23.6463 6.6H20.6838C19.8055 6.59897 19.0938 5.86087 19.0928 4.95V1.87777ZM1.06071 2.75C1.0617 1.8392 1.77351 1.10103 2.65177 1.1H18.0321V4.95C18.0337 6.46807 19.22 7.69828 20.6838 7.7H24.3963V17.9208C20.4674 16.7051 16.3321 19.0225 15.1597 23.0969C14.19 26.4672 15.5461 30.0905 18.4543 31.9H2.65177C1.77351 31.899 1.0617 31.1608 1.06071 30.25V2.75Z" fill="#FF9212"/>
<path d="M8.4856 10.4499C8.4856 10.7536 8.72306 10.9999 9.01595 10.9999H21.7445C22.0374 10.9999 22.2748 10.7536 22.2748 10.4499C22.2748 10.1462 22.0374 9.8999 21.7445 9.8999H9.01595C8.72306 9.8999 8.4856 10.1462 8.4856 10.4499Z" fill="#FF9212"/>
<path d="M3.71248 14.3H14.3196C14.6125 14.3 14.8499 14.0537 14.8499 13.75C14.8499 13.4462 14.6125 13.2 14.3196 13.2H3.71248C3.4196 13.2 3.18213 13.4462 3.18213 13.75C3.18213 14.0537 3.4196 14.3 3.71248 14.3Z" fill="#FF9212"/>
<path d="M16.441 16.5H12.1982C11.9053 16.5 11.6678 16.7463 11.6678 17.05C11.6678 17.3537 11.9053 17.6 12.1982 17.6H16.441C16.7339 17.6 16.9714 17.3537 16.9714 17.05C16.9714 16.7463 16.7339 16.5 16.441 16.5Z" fill="#FF9212"/>
<path d="M3.71248 20.9H13.2589C13.5518 20.9 13.7892 20.6538 13.7892 20.35C13.7892 20.0463 13.5518 19.8 13.2589 19.8H3.71248C3.4196 19.8 3.18213 20.0463 3.18213 20.35C3.18213 20.6538 3.4196 20.9 3.71248 20.9Z" fill="#FF9212"/>
<path d="M3.71248 10.9999H6.89461C7.1875 10.9999 7.42497 10.7536 7.42497 10.4499C7.42497 10.1462 7.1875 9.8999 6.89461 9.8999H3.71248C3.4196 9.8999 3.18213 10.1462 3.18213 10.4499C3.18213 10.7536 3.4196 10.9999 3.71248 10.9999Z" fill="#FF9212"/>
<path d="M21.7445 13.2H16.441C16.1481 13.2 15.9106 13.4462 15.9106 13.75C15.9106 14.0537 16.1481 14.3 16.441 14.3H21.7445C22.0374 14.3 22.2749 14.0537 22.2749 13.75C22.2749 13.4462 22.0374 13.2 21.7445 13.2Z" fill="#FF9212"/>
<path d="M3.71248 17.6H10.0767C10.3696 17.6 10.6071 17.3537 10.6071 17.05C10.6071 16.7463 10.3696 16.5 10.0767 16.5H3.71248C3.4196 16.5 3.18213 16.7463 3.18213 17.05C3.18213 17.3537 3.4196 17.6 3.71248 17.6Z" fill="#FF9212"/>
<path d="M12.1982 26.3999H10.0767C9.78385 26.3999 9.54639 26.6462 9.54639 26.9499C9.54639 27.2536 9.78385 27.4999 10.0767 27.4999H12.1982C12.491 27.4999 12.7285 27.2536 12.7285 26.9499C12.7285 26.6462 12.491 26.3999 12.1982 26.3999Z" fill="#FF9212"/>
<path d="M3.71248 27.4999H7.95532C8.24821 27.4999 8.48568 27.2536 8.48568 26.9499C8.48568 26.6462 8.24821 26.3999 7.95532 26.3999H3.71248C3.4196 26.3999 3.18213 26.6462 3.18213 26.9499C3.18213 27.2536 3.4196 27.4999 3.71248 27.4999Z" fill="#FF9212"/>
<path d="M3.71248 24.2001H6.89461C7.1875 24.2001 7.42497 23.9538 7.42497 23.6501C7.42497 23.3464 7.1875 23.1001 6.89461 23.1001H3.71248C3.4196 23.1001 3.18213 23.3464 3.18213 23.6501C3.18213 23.9538 3.4196 24.2001 3.71248 24.2001Z" fill="#FF9212"/>
<path d="M3.71248 7.7001H10.0767C10.3696 7.7001 10.6071 7.45384 10.6071 7.1501C10.6071 6.84636 10.3696 6.6001 10.0767 6.6001H3.71248C3.4196 6.6001 3.18213 6.84636 3.18213 7.1501C3.18213 7.45384 3.4196 7.7001 3.71248 7.7001Z" fill="#FF9212"/>
<path d="M12.1981 23.1001H9.01595C8.72306 23.1001 8.4856 23.3464 8.4856 23.6501C8.4856 23.9538 8.72306 24.2001 9.01595 24.2001H12.1981C12.491 24.2001 12.7284 23.9538 12.7284 23.6501C12.7284 23.3464 12.491 23.1001 12.1981 23.1001Z" fill="#FF9212"/>
<path d="M19.2836 21.5775C19.0585 21.7719 19.0281 22.1187 19.2155 22.3521C19.2155 22.3521 19.2155 22.3521 19.2156 22.3521C19.2156 22.3521 21.2265 24.858 21.8654 25.6497C21.9298 25.7295 22.0348 25.8224 22.2188 25.847C22.2374 25.8494 22.2561 25.85 22.2748 25.85H25.9873C26.2802 25.85 26.5177 25.6037 26.5177 25.3C26.5177 24.9963 26.2802 24.75 25.9873 24.75H22.5232L20.0306 21.6479C19.8431 21.4145 19.5086 21.383 19.2836 21.5775Z" fill="#FF9212"/>
</svg>
