<svg width="11" height="11" viewBox="0 0 11 11" fill="none" xmlns="http://www.w3.org/2000/svg">
<path d="M5.5 1.6875C6.225 1.6875 6.8125 2.275 6.8125 3C6.8125 3.725 6.225 4.3125 5.5 4.3125C4.775 4.3125 4.1875 3.725 4.1875 3C4.1875 2.275 4.775 1.6875 5.5 1.6875ZM5.5 7.3125C7.35625 7.3125 9.3125 8.225 9.3125 8.625V9.3125H1.6875V8.625C1.6875 8.225 3.64375 7.3125 5.5 7.3125ZM5.5 0.5C4.11875 0.5 3 1.61875 3 3C3 4.38125 4.11875 5.5 5.5 5.5C6.88125 5.5 8 4.38125 8 3C8 1.61875 6.88125 0.5 5.5 0.5ZM5.5 6.125C3.83125 6.125 0.5 6.9625 0.5 8.625V10.5H10.5V8.625C10.5 6.9625 7.16875 6.125 5.5 6.125Z" fill="#3E215B"/>
</svg>
