<svg width="34" height="28" viewBox="0 0 34 28" fill="none" xmlns="http://www.w3.org/2000/svg">
<path d="M33.3217 7.144L26.4006 0.638662C25.9624 0.22679 25.3799 0 24.7603 0C24.1406 0 23.5581 0.22679 23.12 0.638662L21.4936 2.16732C21.2433 2.40257 21.0649 2.67929 20.953 2.97365L13.3431 1.69307C13.3426 1.69294 13.3419 1.69294 13.3414 1.69282C9.91974 1.0544 6.57896 3.14532 5.88894 6.36184L5.53795 7.99833C5.1503 9.80551 6.39928 11.5721 8.32195 11.9364C10.2448 12.3006 12.1242 11.1268 12.5119 9.31966L12.7264 8.31893L16.1389 8.59939L25.0507 16.9759L26.6658 18.494C26.9929 18.8014 26.9928 19.3017 26.6658 19.6091C26.3389 19.9164 25.8067 19.9165 25.4796 19.6091L21.1531 15.5425C20.8518 15.2592 20.363 15.2592 20.0618 15.5425C19.7605 15.8257 19.7605 16.285 20.0618 16.5682L24.3883 20.6348C24.5468 20.7838 24.634 20.9818 24.634 21.1924C24.634 21.403 24.5468 21.6009 24.3883 21.7498C24.0611 22.0572 23.529 22.0571 23.2021 21.7498L18.8756 17.6832C18.5743 17.3999 18.0855 17.3999 17.7843 17.6832C17.483 17.9664 17.483 18.4257 17.7843 18.7089L22.1108 22.7756C22.4379 23.0829 22.4379 23.5831 22.1108 23.8905C21.9523 24.0395 21.7417 24.1214 21.5177 24.1214C21.2937 24.1214 21.083 24.0395 20.9246 23.8905L16.5981 19.8239C16.2967 19.5407 15.808 19.5407 15.5068 19.8239C15.2054 20.1072 15.2054 20.5664 15.5068 20.8497L19.8333 24.9163C20.1603 25.2237 20.1602 25.724 19.8333 26.0314C19.5063 26.3387 18.9741 26.3388 18.6471 26.0314L3.33888 11.6429L1.31731 9.74277C1.01596 9.45953 0.527226 9.45953 0.226009 9.74277C-0.0753364 10.026 -0.0753364 10.4853 0.226009 10.7685L2.24758 12.6687L4.44755 14.7365L3.23483 15.8764C2.8378 16.2496 2.61902 16.7458 2.61902 17.2737C2.61902 17.8017 2.83767 18.2979 3.23483 18.6711L3.63058 19.0431C3.97772 19.3694 4.42491 19.5674 4.90709 19.6121C4.95468 20.0653 5.16535 20.4857 5.51248 20.8118L5.90823 21.1839C6.26462 21.5189 6.71825 21.7079 7.18448 21.7515C7.23168 22.2052 7.44261 22.6261 7.79013 22.9527L8.18588 23.3246C8.53301 23.6509 8.9802 23.8489 9.46238 23.8937C9.50997 24.3469 9.72064 24.7672 10.0678 25.0935L10.4635 25.4655C10.8734 25.8508 11.4118 26.0433 11.9502 26.0433C12.4886 26.0433 13.027 25.8508 13.4369 25.4655L14.6496 24.3256L17.5556 27.0571C18.0056 27.4801 18.6038 27.713 19.2401 27.713C19.8764 27.713 20.4747 27.48 20.9246 27.0571C21.3508 26.6565 21.5929 26.1303 21.6174 25.5676C22.2161 25.5445 22.7759 25.317 23.2022 24.9164C23.6416 24.5034 23.8704 23.968 23.8942 23.426C24.4708 23.4036 25.0405 23.1885 25.4797 22.7757C25.9191 22.3627 26.1479 21.8273 26.1717 21.2852C26.7484 21.2629 27.3182 21.0478 27.7574 20.6348C28.6862 19.7618 28.6862 18.3413 27.7574 17.4683L26.688 16.463L30.6008 12.7852L33.3218 10.2277C34.2261 9.37744 34.2261 7.9941 33.3217 7.144ZM4.32613 17.6452C4.10813 17.4403 4.10813 17.107 4.32613 16.9021L5.46335 15.8332L6.6497 16.9483L5.51248 18.0172C5.29461 18.2221 4.93976 18.222 4.72188 18.0172L4.32613 17.6452ZM6.60378 19.7861C6.38578 19.5812 6.38578 19.2479 6.60378 19.0431L7.741 17.9742L8.92734 19.0893L7.79026 20.1582C7.57225 20.363 7.2174 20.3631 6.99966 20.1582L6.60378 19.7861ZM8.8813 21.9269C8.77571 21.8277 8.71757 21.6957 8.71757 21.5554C8.71757 21.4152 8.77571 21.2832 8.8813 21.1839L10.0185 20.115L11.2047 21.23L10.0675 22.2989C9.84964 22.5037 9.49492 22.5037 9.27705 22.2989L8.8813 21.9269ZM12.3453 24.4397C12.1274 24.6446 11.7726 24.6445 11.5547 24.4397L11.1589 24.0678C10.9409 23.8629 10.9409 23.5296 11.1589 23.3246L12.2962 22.2557L13.4825 23.3708L12.3453 24.4397ZM25.5964 15.4372L17.0316 7.38687C16.9033 7.26622 16.734 7.19199 16.5532 7.17724L12.1735 6.81735C12.1507 6.81542 12.1281 6.81457 12.1057 6.81457C11.7418 6.81457 11.423 7.05575 11.3498 7.39666L10.9988 9.03315C10.7794 10.0561 9.71601 10.7205 8.6269 10.5144C8.0997 10.4146 7.64531 10.1276 7.34769 9.7065C7.05008 9.28544 6.94461 8.78061 7.05098 8.28496L7.40197 6.64859C7.92492 4.21036 10.4597 2.62597 13.0547 3.11812C13.0601 3.11908 13.0657 3.12017 13.0712 3.12102L20.5702 4.38299L21.4936 5.25086L28.9637 12.2723L25.5964 15.4372ZM32.2302 9.20179L30.0548 11.2465L22.5847 4.22511C22.4381 4.08729 22.3573 3.90402 22.3573 3.70903C22.3573 3.51403 22.4381 3.33088 22.5847 3.19295L24.2112 1.66417C24.3578 1.52636 24.5528 1.45044 24.7601 1.45044C24.9675 1.45044 25.1624 1.52636 25.3092 1.66417L32.2302 8.16951C32.3769 8.30732 32.4576 8.49059 32.4576 8.68559C32.4576 8.88058 32.3769 9.06397 32.2302 9.20179Z" fill="#FF4646"/>
<path d="M30.3623 9.69897C30.7885 9.69897 31.134 9.37423 31.134 8.97363C31.134 8.57304 30.7885 8.24829 30.3623 8.24829C29.9361 8.24829 29.5906 8.57304 29.5906 8.97363C29.5906 9.37423 29.9361 9.69897 30.3623 9.69897Z" fill="#FF4646"/>
</svg>
