<svg width="30" height="30" viewBox="0 0 30 30" fill="none" xmlns="http://www.w3.org/2000/svg">
<path d="M15 30C23.2843 30 30 23.2843 30 15C30 6.71573 23.2843 0 15 0C6.71573 0 0 6.71573 0 15C0 23.2843 6.71573 30 15 30Z" fill="url(#paint0_linear)"/>
<path fill-rule="evenodd" clip-rule="evenodd" d="M21.4593 9.37917C20.9756 9.37164 20.5036 9.528 20.12 9.8228L12.4526 15.5483L10.2344 12.8948C10.0568 12.6708 9.83608 12.4846 9.58533 12.3472C9.33458 12.2098 9.05886 12.124 8.77443 12.0948C8.49001 12.0655 8.20258 12.0935 7.92914 12.177C7.6557 12.2606 7.40172 12.3981 7.1822 12.5813C6.96269 12.7645 6.78205 12.9898 6.65093 13.2439C6.51982 13.498 6.44091 13.7757 6.41878 14.0608C6.39666 14.3458 6.43176 14.6324 6.52211 14.9037C6.61245 15.175 6.7562 15.4254 6.94482 15.6403L10.4646 19.8549C10.816 20.2752 11.315 20.5449 11.8591 20.6088C12.4032 20.6726 12.951 20.5256 13.3901 20.1981L22.6856 13.2589C23.0507 12.995 23.3234 12.6227 23.4649 12.1949C23.6063 11.7672 23.6094 11.3058 23.4736 10.8762C23.3378 10.4466 23.0701 10.0707 22.7085 9.80201C22.3469 9.53327 21.9098 9.38529 21.4593 9.37917Z" fill="url(#paint1_linear)"/>
<defs>
<linearGradient id="paint0_linear" x1="0" y1="15" x2="30" y2="15" gradientUnits="userSpaceOnUse">
<stop stop-color="#F3F3F3"/>
<stop offset="1" stop-color="#DADEDF"/>
</linearGradient>
<linearGradient id="paint1_linear" x1="6.41238" y1="15.0012" x2="23.5733" y2="15.0012" gradientUnits="userSpaceOnUse">
<stop stop-color="#8CCC44"/>
<stop offset="1" stop-color="#5CB450"/>
</linearGradient>
</defs>
</svg>
