<svg width="30" height="30" viewBox="0 0 30 30" fill="none" xmlns="http://www.w3.org/2000/svg">
<path d="M15 16.5C14.4292 16.4947 13.87 16.6294 13.3977 16.886C12.9254 17.1426 12.5628 17.5087 12.3585 17.9352C12.1543 18.3617 12.1182 18.828 12.2553 19.2713C12.3923 19.7147 12.6958 20.1138 13.125 20.415V22.5C13.125 22.8978 13.3225 23.2794 13.6742 23.5607C14.0258 23.842 14.5027 24 15 24C15.4973 24 15.9742 23.842 16.3258 23.5607C16.6775 23.2794 16.875 22.8978 16.875 22.5V20.415C17.3042 20.1138 17.6077 19.7147 17.7447 19.2713C17.8818 18.828 17.8457 18.3617 17.6415 17.9352C17.4372 17.5087 17.0746 17.1426 16.6023 16.886C16.13 16.6294 15.5708 16.4947 15 16.5ZM24.375 10.5V7.5C24.375 5.51088 23.3873 3.60322 21.6291 2.1967C19.871 0.790176 17.4864 0 15 0C12.5136 0 10.129 0.790176 8.37087 2.1967C6.61272 3.60322 5.625 5.51088 5.625 7.5V10.5C4.13316 10.5 2.70242 10.9741 1.64752 11.818C0.592632 12.6619 0 13.8065 0 15V25.5C0 26.6935 0.592632 27.8381 1.64752 28.682C2.70242 29.5259 4.13316 30 5.625 30H24.375C25.8668 30 27.2976 29.5259 28.3525 28.682C29.4074 27.8381 30 26.6935 30 25.5V15C30 13.8065 29.4074 12.6619 28.3525 11.818C27.2976 10.9741 25.8668 10.5 24.375 10.5ZM9.375 7.5C9.375 6.30653 9.96763 5.16193 11.0225 4.31802C12.0774 3.47411 13.5082 3 15 3C16.4918 3 17.9226 3.47411 18.9775 4.31802C20.0324 5.16193 20.625 6.30653 20.625 7.5V10.5H9.375V7.5ZM26.25 25.5C26.25 25.8978 26.0525 26.2794 25.7008 26.5607C25.3492 26.842 24.8723 27 24.375 27H5.625C5.12772 27 4.65081 26.842 4.29918 26.5607C3.94754 26.2794 3.75 25.8978 3.75 25.5V15C3.75 14.6022 3.94754 14.2206 4.29918 13.9393C4.65081 13.658 5.12772 13.5 5.625 13.5H24.375C24.8723 13.5 25.3492 13.658 25.7008 13.9393C26.0525 14.2206 26.25 14.6022 26.25 15V25.5Z" fill="#C4C4C4"/>
</svg>
