<svg width="120" height="117" viewBox="0 0 120 117" fill="none" xmlns="http://www.w3.org/2000/svg">
<path d="M17.5256 106.366C-5.84186 93.064 -5.84186 71.4958 17.5256 58.2042C40.893 44.9126 78.7808 44.9024 102.156 58.2042C125.531 71.506 125.523 93.0742 102.156 106.366C78.7886 119.657 40.8956 119.67 17.5256 106.366Z" fill="#F5F5F5"/>
<path d="M36.2278 107.008C46.3683 107.008 54.5888 102.329 54.5888 96.5577C54.5888 90.7862 46.3683 86.1074 36.2278 86.1074C26.0872 86.1074 17.8667 90.7862 17.8667 96.5577C17.8667 102.329 26.0872 107.008 36.2278 107.008Z" fill="#E0E0E0"/>
<path d="M78.6657 91.6735C91.3976 84.9032 98.9487 74.3509 95.5315 68.1043C92.1143 61.8577 79.0229 62.2822 66.291 69.0524C53.559 75.8227 46.008 86.3749 49.4252 92.6216C52.8423 98.8682 65.9338 98.4437 78.6657 91.6735Z" fill="#E0E0E0"/>
<path d="M91.3341 76.8343C93.8799 73.8427 97.8679 71.8933 102.352 70.7415C106.782 69.6075 107.576 66.9192 104.64 66.0502C101.313 65.0615 97.1623 66.8759 94.4847 69.4011C89.8221 73.8019 89.2354 77.1631 89.2354 77.1631L91.3341 76.8343Z" fill="#00EA25"/>
<path opacity="0.15" d="M91.3341 76.8343C93.8799 73.8427 97.8679 71.8933 102.352 70.7415C106.782 69.6075 107.576 66.9192 104.64 66.0502C101.313 65.0615 97.1623 66.8759 94.4847 69.4011C89.8221 73.8019 89.2354 77.1631 89.2354 77.1631L91.3341 76.8343Z" fill="black"/>
<path d="M90.0236 76.6535C90.0048 76.6573 89.9855 76.6573 89.9667 76.6535C89.9514 76.6461 89.9378 76.6359 89.9265 76.6233C89.9152 76.6108 89.9066 76.5962 89.901 76.5803C89.8955 76.5644 89.8932 76.5476 89.8943 76.5309C89.8954 76.5142 89.8998 76.4978 89.9073 76.4827C93.686 68.8381 102.055 66.9575 104.081 67.1002C104.115 67.1028 104.147 67.1184 104.169 67.1437C104.191 67.1689 104.202 67.2018 104.2 67.2352C104.197 67.2688 104.18 67.2998 104.154 67.3217C104.128 67.3435 104.095 67.3546 104.061 67.3524C102.076 67.2046 93.8591 69.0674 90.1399 76.5949C90.1272 76.6136 90.1098 76.6288 90.0894 76.639C90.0691 76.6493 90.0464 76.6543 90.0236 76.6535Z" fill="white"/>
<path d="M89.2354 77.6294C89.2355 77.7523 89.2687 77.8729 89.3316 77.9791C89.3944 78.0853 89.4847 78.1731 89.5931 78.2337C89.7016 78.2943 89.8244 78.3255 89.9491 78.324C90.0737 78.3226 90.1958 78.2887 90.3028 78.2257C92.6703 76.8674 96.1233 76.1157 101.711 77.6854C104.684 78.5187 106.146 77.9606 106.772 76.7681C107.47 75.443 105.997 74.1612 104.317 73.5573C98.5968 71.4958 93.4353 72.9024 89.2354 77.0152V77.6294Z" fill="#00EA25"/>
<path d="M89.5636 77.7389C89.5453 77.7392 89.5271 77.7358 89.5101 77.7288C89.4932 77.7217 89.478 77.7113 89.4654 77.6982C89.4416 77.6739 89.4282 77.6415 89.4282 77.6077C89.4282 77.5739 89.4416 77.5415 89.4654 77.5172C94.4046 73.1649 102.055 74.0134 104.95 75.7105C104.979 75.7276 105 75.7553 105.009 75.7877C105.018 75.8202 105.013 75.8547 104.996 75.8838C104.979 75.9129 104.95 75.934 104.917 75.9426C104.883 75.9512 104.848 75.9465 104.818 75.9297C101.975 74.2657 94.4795 73.4375 89.6386 77.7134C89.6166 77.7289 89.5906 77.7378 89.5636 77.7389Z" fill="white"/>
<path d="M33.9738 87.7764C31.8027 84.5095 28.0757 82.1091 23.7594 80.4451C19.5 78.804 19.0322 76.0443 22.051 75.5194C25.473 74.9256 29.3784 77.2114 31.7355 80.0297C35.8399 84.9427 36.0182 88.3548 36.0182 88.3548L33.9738 87.7764Z" fill="#00EA25"/>
<path opacity="0.15" d="M33.9738 87.7764C31.8027 84.5095 28.0757 82.1091 23.7594 80.4451C19.5 78.804 19.0322 76.0443 22.051 75.5194C25.473 74.9256 29.3784 77.2114 31.7355 80.0297C35.8399 84.9427 36.0182 88.3548 36.0182 88.3548L33.9738 87.7764Z" fill="black"/>
<path d="M35.287 87.7561C35.3057 87.7597 35.325 87.7597 35.3438 87.7561C35.3761 87.7445 35.4025 87.721 35.4175 87.6906C35.4324 87.6601 35.4348 87.6251 35.4239 87.593C32.5809 79.5635 24.5066 76.7222 22.4699 76.6356C22.436 76.6342 22.403 76.646 22.3778 76.6684C22.3527 76.6908 22.3375 76.722 22.3355 76.7554C22.3347 76.7893 22.3472 76.8221 22.3702 76.8473C22.3933 76.8724 22.4253 76.8878 22.4595 76.8904C24.4497 76.972 32.3844 79.7776 35.1784 87.6847C35.1885 87.7051 35.2038 87.7224 35.2229 87.7349C35.242 87.7474 35.2641 87.7548 35.287 87.7561Z" fill="white"/>
<path d="M36.0364 88.1993C36.0161 88.3804 35.9488 88.5533 35.8411 88.7013C35.7333 88.8493 35.5886 88.9674 35.4211 89.0443C35.2535 89.1211 35.0687 89.1541 34.8845 89.14C34.7003 89.1259 34.5228 89.0652 34.3693 88.9638C32.1775 87.5164 28.9132 86.5761 23.5656 87.4349C20.5158 87.9165 19.1304 87.1801 18.6549 85.934C18.1224 84.5375 19.7404 83.4392 21.4798 83.0341C27.4063 81.6529 32.3636 83.6508 36.0415 88.2197L36.0364 88.1993Z" fill="#00EA25"/>
<path d="M35.6279 88.8849C35.646 88.8874 35.6644 88.886 35.6818 88.8807C35.6992 88.8754 35.7152 88.8664 35.7287 88.8543C35.7526 88.8301 35.7659 88.7976 35.7659 88.7639C35.7659 88.7301 35.7526 88.6976 35.7287 88.6734C31.3349 83.7782 23.6457 83.7298 20.5674 85.0778C20.5359 85.0917 20.5112 85.1173 20.4989 85.1491C20.4865 85.1809 20.4875 85.2162 20.5015 85.2473C20.5156 85.2784 20.5416 85.3027 20.5738 85.3149C20.606 85.3271 20.6419 85.3261 20.6734 85.3123C23.6896 83.9897 31.2367 84.0382 35.5349 88.8416C35.5461 88.8552 35.5603 88.8662 35.5764 88.8737C35.5925 88.8812 35.6101 88.885 35.6279 88.8849Z" fill="white"/>
<path d="M93.6528 29.5544L93.6114 29.534L83.7589 23.9432L83.6995 23.9152C79.0963 21.6218 72.9552 22.3123 66.349 26.522C53.0796 34.9821 42.9686 54.4557 43.7647 70.0178C44.1601 77.772 47.1944 83.0902 51.777 85.4295L51.8157 85.4499L61.6708 91.0432L61.7174 91.0687C66.3205 93.3621 72.4667 92.6817 79.0782 88.467C92.3476 80.0068 102.459 60.5332 101.662 44.9712C101.272 37.2118 98.2379 31.8937 93.6528 29.5544Z" fill="#37474F"/>
<path d="M61.3322 90.8623L51.8286 85.4448L51.7821 85.4167C47.1995 83.0724 44.1678 77.7542 43.7698 70.0101C43.4157 63.0687 45.2327 55.3552 48.5255 48.1922L48.5901 48.0342L58.3806 53.783C55.0826 60.9461 53.2708 68.6596 53.6249 75.6009C53.9997 83.1921 56.9125 88.4466 61.3322 90.8623Z" fill="#263238"/>
<path d="M79.0831 88.4619C92.3525 80.0018 102.464 60.5282 101.667 44.9661C100.871 29.4041 89.4681 23.6502 76.1987 32.1103C62.9293 40.5704 52.8158 60.044 53.6118 75.6035C54.4079 91.163 65.8138 96.922 79.0831 88.4619Z" fill="#455A64"/>
<path d="M90.3213 28.3464L73.6893 62.1283L70.1096 58.306C69.0423 57.2103 67.5816 56.5711 66.0415 56.5256C64.5013 56.4801 63.0045 57.0319 61.8724 58.0626C60.7404 59.0932 60.0636 60.5205 59.9872 62.0378C59.9109 63.5551 60.4411 65.0414 61.4641 66.1775L70.8953 76.2506C71.9324 77.3615 73.3697 78.0274 74.8989 78.1058C75.0075 78.1058 75.116 78.1058 75.2246 78.1058C75.51 78.1055 75.795 78.085 76.0775 78.0446C77.0268 77.9083 77.9279 77.5449 78.702 76.9861C79.476 76.4273 80.0995 75.6901 80.5178 74.8389L99.5923 36.1058C97.6357 31.8044 94.3791 29.1389 90.3213 28.3464Z" fill="#37474F"/>
<path d="M103.829 17.2209C103.725 17.1623 103.617 17.1062 103.508 17.0553C102.289 16.4729 100.885 16.391 99.6053 16.8277C98.3251 17.2643 97.2729 18.1838 96.6795 19.3844L75.5167 62.3628L74.3123 61.0887C73.9646 60.7142 73.5601 60.3953 73.1131 60.1433C72.4824 59.7866 69.7996 58.2551 69.3654 58.0079C68.307 57.4042 67.0642 57.1947 65.8625 57.4175C64.6608 57.6402 63.58 58.2804 62.8162 59.2218C62.0525 60.1632 61.6564 61.3434 61.7 62.5481C61.7436 63.7529 62.2239 64.9023 63.0538 65.7877L72.485 75.8583C72.8386 76.2366 73.2492 76.5589 73.7023 76.8139C74.3175 77.1579 76.99 78.6868 77.4293 78.9365C78.0371 79.2835 78.7109 79.5033 79.4086 79.582C80.1063 79.6608 80.813 79.5969 81.4846 79.3944C82.1562 79.1919 82.7782 78.855 83.3118 78.4049C83.8455 77.9548 84.2793 77.401 84.5861 76.7782L109.623 25.9333C110.186 24.7874 110.289 23.474 109.911 22.2565C109.532 21.0391 108.701 20.0076 107.584 19.3691L103.829 17.2209Z" fill="#00EA25"/>
<path opacity="0.15" d="M77.4163 78.9263C76.982 78.6715 74.3147 77.1426 73.6918 76.8037C73.2388 76.5485 72.8282 76.2262 72.4745 75.8481L63.0433 65.7775C62.6274 65.3301 62.2972 64.8121 62.0688 64.2485L65.8191 66.3814C66.0465 66.9466 66.3787 67.4651 66.7987 67.9103L76.2273 77.981C76.5743 78.3521 76.9749 78.6707 77.4163 78.9263Z" fill="black"/>
<path d="M107.261 19.1908C106.041 18.6098 104.638 18.5287 103.359 18.9652C102.079 19.4017 101.027 20.3203 100.432 21.5199L78.6645 65.7266L74.3146 61.0786C73.3837 60.1463 72.1214 59.6078 70.7948 59.5771C69.4682 59.5465 68.1816 60.026 67.2074 60.9143C66.2332 61.8026 65.6479 63.0298 65.5755 64.3361C65.503 65.6424 65.9491 66.9253 66.8193 67.913L76.2479 77.9861C76.8124 78.5882 77.5173 79.0453 78.3015 79.3178C79.0858 79.5904 79.9257 79.6701 80.7482 79.5501C81.5708 79.43 82.3513 79.1139 83.0218 78.6291C83.6924 78.1443 84.2328 77.5055 84.5962 76.7681L109.633 25.9232C110.223 24.7201 110.305 23.3353 109.86 22.073C109.415 20.8106 108.48 19.774 107.261 19.1908Z" fill="#00EA25"/>
<path d="M63.4646 16.538C68.7533 16.538 73.0406 12.8359 73.0406 8.26901C73.0406 3.70216 68.7533 0 63.4646 0C58.176 0 53.8887 3.70216 53.8887 8.26901C53.8887 12.8359 58.176 16.538 63.4646 16.538Z" fill="#00EA25"/>
<path d="M55.8219 13.052C55.7677 14.1605 54.8165 16.143 53.0978 16.8743C53.0748 16.884 53.0555 16.9005 53.0426 16.9215C53.0296 16.9426 53.0238 16.9671 53.0258 16.9916C53.0278 17.0162 53.0376 17.0394 53.0537 17.0582C53.0699 17.0769 53.0916 17.0902 53.1159 17.096C54.0984 17.3107 55.1231 17.238 56.0643 16.8867C57.0055 16.5354 57.8222 15.9209 58.4143 15.1186L55.8219 13.052Z" fill="#00EA25"/>
<path d="M56.9719 7.61401C56.9935 7.25161 57.0811 6.89599 57.2304 6.56414C57.3711 6.23946 57.5809 5.94835 57.8455 5.71049C58.1251 5.45825 58.4516 5.26181 58.807 5.13204C59.6593 4.84661 60.5833 4.84661 61.4356 5.13204C61.7943 5.26122 62.1243 5.45765 62.4074 5.71049C62.6709 5.95323 62.8788 6.2486 63.0173 6.57688C63.1666 6.90873 63.2542 7.26435 63.2758 7.62676C63.2887 7.91216 63.2939 8.2103 63.2939 8.52119C63.2939 8.83207 63.2939 9.12511 63.2758 9.39523C63.2542 9.75763 63.1666 10.1133 63.0173 10.4451C62.8751 10.7704 62.6656 11.0629 62.4022 11.3039C62.121 11.5591 61.7905 11.7559 61.4304 11.8823C60.577 12.1608 59.6552 12.1608 58.8018 11.8823C58.4432 11.7561 58.1143 11.5593 57.8352 11.3039C57.571 11.0636 57.3613 10.771 57.2201 10.4451C57.0708 10.1133 56.9832 9.75763 56.9616 9.39523C56.9487 9.12511 56.9409 8.83207 56.9409 8.52119C56.9409 8.2103 56.959 7.89942 56.9719 7.61401ZM61.3916 9.33407C61.3916 9.2143 61.4045 9.07925 61.4123 8.93655C61.42 8.79385 61.4123 8.64095 61.4123 8.48806C61.4123 8.33516 61.4123 8.18737 61.4123 8.04467C61.4123 7.90196 61.3968 7.78984 61.3916 7.66243C61.3805 7.50589 61.3447 7.35201 61.2856 7.2063C61.23 7.07014 61.1474 6.94626 61.0427 6.8419C60.9322 6.73513 60.8001 6.65263 60.655 6.59982C60.3023 6.481 59.9196 6.481 59.5669 6.59982C59.4213 6.6532 59.2884 6.73561 59.1766 6.8419C59.0727 6.94636 58.9909 7.07026 58.9362 7.2063C58.8771 7.35201 58.8414 7.50589 58.8303 7.66243C58.8143 7.78926 58.8057 7.91688 58.8044 8.04467C58.8044 8.18737 58.8044 8.33516 58.8044 8.48806C58.8044 8.64095 58.8044 8.78875 58.8044 8.93655C58.8058 9.06942 58.8144 9.20212 58.8303 9.33407C58.8459 9.64037 58.9682 9.93197 59.1766 10.1597C59.3005 10.2752 59.4475 10.3639 59.6081 10.4201C59.7688 10.4762 59.9397 10.4987 60.1096 10.4859C60.2789 10.4992 60.4491 10.477 60.609 10.4208C60.769 10.3646 60.915 10.2756 61.0375 10.1597C61.244 9.93013 61.3684 9.64008 61.3916 9.33407Z" fill="#FAFAFA"/>
<path d="M70.4378 11.6506C70.4593 11.6831 70.4692 11.7216 70.4662 11.7602C70.4666 11.7887 70.4611 11.8169 70.4499 11.8432C70.4388 11.8695 70.4224 11.8933 70.4016 11.9131C70.3817 11.9339 70.3576 11.9505 70.331 11.9619C70.3043 11.9733 70.2756 11.9792 70.2465 11.9793H68.6286C68.5466 11.9823 68.4656 11.961 68.396 11.9182C68.3287 11.8698 68.2679 11.8133 68.215 11.75L66.3024 9.38015V11.7067C66.3013 11.7754 66.2742 11.8412 66.2264 11.8912C66.1785 11.9412 66.1135 11.9717 66.044 11.9768H64.7206C64.6848 11.977 64.6492 11.9699 64.6163 11.9559C64.5834 11.9418 64.5538 11.9212 64.5294 11.8953C64.5035 11.871 64.4831 11.8417 64.4693 11.8092C64.4555 11.7768 64.4487 11.7419 64.4493 11.7067V5.28769C64.4487 5.2525 64.4555 5.21759 64.4693 5.18513C64.4831 5.15268 64.5035 5.12339 64.5294 5.09912C64.5538 5.07318 64.5834 5.05254 64.6163 5.0385C64.6492 5.02446 64.6848 5.01733 64.7206 5.01757H66.044C66.1135 5.02266 66.1785 5.05319 66.2264 5.10317C66.2742 5.15316 66.3013 5.21898 66.3024 5.28769V7.38488L68.078 5.23672C68.1187 5.18872 68.1619 5.1428 68.2073 5.09912C68.2842 5.03752 68.3826 5.00823 68.4812 5.01757H70.0527C70.0822 5.01734 70.1114 5.0231 70.1385 5.0345C70.1657 5.0459 70.1901 5.06269 70.2103 5.08383C70.2311 5.10362 70.2476 5.1274 70.2587 5.15369C70.2698 5.17999 70.2753 5.20824 70.275 5.23672C70.2776 5.27567 70.2667 5.31434 70.2439 5.3463L67.7627 8.36085L70.4378 11.6506Z" fill="#FAFAFA"/>
<path d="M88.173 16.0871L86.723 16.5177L85.6763 13.0699L87.1211 12.6418L88.173 16.0871Z" fill="#FFC700"/>
<path d="M92.6984 13.0265C92.7105 13.1664 92.6772 13.3064 92.6033 13.4264C92.5295 13.5464 92.4189 13.6402 92.2875 13.6942C92.3816 13.7996 92.4513 13.9239 92.4917 14.0586C92.5744 14.3134 92.3547 14.6829 91.9179 14.823L88.6018 15.8067L87.6274 12.6035C87.6274 12.6035 88.1883 11.1893 88.2167 10.9752C88.2452 10.7612 87.9143 9.9763 87.8678 9.8285C87.8213 9.68071 88.3589 9.48704 88.7828 9.65522C88.8813 9.69844 88.9694 9.76185 89.0412 9.84124C89.1937 10.0013 89.3217 10.1825 89.4212 10.3789C89.5619 10.6589 89.6311 10.9686 89.6228 11.281L91.631 10.6771C91.7696 10.6276 91.9214 10.6276 92.06 10.6771C92.1508 10.7124 92.2307 10.7703 92.2921 10.8451C92.3535 10.9198 92.3942 11.009 92.4103 11.1039C92.4264 11.1987 92.4174 11.2961 92.3841 11.3865C92.3508 11.4769 92.2944 11.5573 92.2203 11.6199C92.3398 11.6114 92.4588 11.6426 92.5582 11.7087C92.6575 11.7748 92.7315 11.8718 92.7682 11.9843C92.7989 12.1151 92.7827 12.2522 92.7224 12.3726C92.6621 12.4929 92.5614 12.5889 92.4374 12.6443C92.5714 12.7335 92.665 12.8705 92.6984 13.0265Z" fill="#FFC700"/>
<path d="M108.948 51.836L107.09 51.3952L108.173 46.9766L110.031 47.4174L108.948 51.836Z" fill="#567DF4"/>
<path d="M115.867 51.3392C115.79 51.4993 115.664 51.6312 115.506 51.7159C115.348 51.8006 115.167 51.8337 114.989 51.8107C115.022 51.9846 115.018 52.1635 114.976 52.3356C114.893 52.6796 114.42 52.9319 113.862 52.7968L109.607 51.7775L110.61 47.6723C110.61 47.6723 112.138 46.4823 112.306 46.2657C112.474 46.0491 112.618 44.9916 112.665 44.7954C112.712 44.5992 113.422 44.7317 113.776 45.1827C113.862 45.2923 113.922 45.4194 113.952 45.5548C114.015 45.8245 114.038 46.1017 114.019 46.3778C113.991 46.7723 113.867 47.1543 113.658 47.4914L116.227 48.103C116.409 48.1411 116.572 48.2412 116.687 48.3858C116.75 48.4684 116.795 48.5633 116.819 48.6644C116.843 48.7654 116.844 48.8703 116.824 48.9719C116.789 49.1059 116.717 49.2277 116.617 49.3236C116.516 49.4195 116.39 49.4857 116.252 49.5147C116.388 49.5804 116.498 49.6892 116.564 49.8237C116.629 49.9582 116.647 50.1105 116.614 50.2563C116.562 50.4173 116.455 50.5558 116.312 50.6485C116.168 50.7413 115.997 50.7827 115.826 50.7659C115.915 50.9444 115.93 51.1501 115.867 51.3392Z" fill="#567DF4"/>
<path d="M15.0806 49.1935L17.1095 49.7949L18.5775 44.9686L16.5512 44.3672L15.0806 49.1935Z" fill="#567DF4"/>
<path d="M8.74031 44.9049C8.72339 45.1009 8.77011 45.2971 8.87371 45.4652C8.97731 45.6334 9.13244 45.7646 9.31668 45.8401C9.18642 45.9883 9.08952 46.162 9.03237 46.3498C8.91606 46.7244 9.22622 47.2264 9.8336 47.4047L14.4859 48.7833L15.8454 44.2908C15.8454 44.2908 15.0571 42.3083 15.0183 41.9974C14.9796 41.6865 15.4448 40.601 15.5068 40.392C15.5585 40.2238 14.8193 39.9155 14.2145 40.1525C14.0707 40.208 13.9417 40.2952 13.8372 40.4073C13.6224 40.6348 13.443 40.8924 13.3047 41.1718C13.1067 41.5675 13.0091 42.0047 13.0204 42.4459L10.229 41.6152C10.0322 41.5513 9.81876 41.5585 9.62683 41.6355C9.49962 41.6849 9.38756 41.7659 9.30158 41.8707C9.2156 41.9755 9.15864 42.1005 9.13625 42.2334C9.11386 42.3664 9.12681 42.5028 9.17383 42.6294C9.22085 42.7559 9.30035 42.8683 9.40455 42.9555C9.23586 42.9413 9.06725 42.9839 8.92637 43.0765C8.78549 43.1691 8.68069 43.3062 8.62917 43.4652C8.58621 43.6487 8.60878 43.8411 8.69306 44.0101C8.77735 44.1791 8.91819 44.3142 9.09182 44.3927C8.91473 44.515 8.78958 44.6974 8.74031 44.9049Z" fill="#567DF4"/>
</svg>
