<svg width="20" height="20" viewBox="0 0 20 20" fill="none" xmlns="http://www.w3.org/2000/svg">
<path d="M17.6562 0.78125H2.34375C1.05133 0.78125 0 1.83258 0 3.125V16.875C0 18.1674 1.05133 19.2188 2.34375 19.2188H17.6562C18.9487 19.2188 20 18.1674 20 16.875V3.125C20 1.83258 18.9487 0.78125 17.6562 0.78125ZM2.34375 2.34375H17.6562C18.087 2.34375 18.4375 2.69424 18.4375 3.125V5.46875H1.5625V3.125C1.5625 2.69424 1.91299 2.34375 2.34375 2.34375ZM17.6562 17.6562H2.34375C1.91299 17.6562 1.5625 17.3058 1.5625 16.875V7.03125H18.4375V16.875C18.4375 17.3058 18.087 17.6562 17.6562 17.6562ZM2.73438 3.90625C2.73438 3.47473 3.08411 3.125 3.51562 3.125C3.94714 3.125 4.29688 3.47473 4.29688 3.90625C4.29688 4.33777 3.94714 4.6875 3.51562 4.6875C3.08411 4.6875 2.73438 4.33777 2.73438 3.90625ZM5.46875 3.90625C5.46875 3.47473 5.81848 3.125 6.25 3.125C6.68152 3.125 7.03125 3.47473 7.03125 3.90625C7.03125 4.33777 6.68152 4.6875 6.25 4.6875C5.81848 4.6875 5.46875 4.33777 5.46875 3.90625ZM13.5406 8.04138L16.2807 10.7812L13.5406 13.5211L12.4359 12.4164L13.2896 11.5625H9.17969V10H13.2896L12.4359 9.14612L13.5406 8.04138ZM6.71036 13.125H10.7422V14.6875H6.71036L7.56409 15.5414L6.45935 16.6461L3.71933 13.9062L6.45935 11.1664L7.56409 12.2711L6.71036 13.125Z" fill="#C4C4C4"/>
</svg>
