<svg xmlns="http://www.w3.org/2000/svg" width="111.329" height="23.55" viewBox="0 0 111.329 23.55"><defs><style>.a{fill:#173c68;}.b{fill:#00b378;}.c{fill:none;stroke:#173d68;stroke-miterlimit:10;stroke-width:4px;}</style></defs><g transform="translate(-302.7 -270.7)"><g transform="translate(302.7 270.7)"><path class="a" d="M318.386,301.2a102.042,102.042,0,0,1-10.792.655,4.643,4.643,0,0,1-3.539-1.354,4.88,4.88,0,0,1-1.354-3.539v-7.515a5.255,5.255,0,0,1,1.4-3.845,5.185,5.185,0,0,1,3.845-1.4h10.443v4.413h-8.651a1.159,1.159,0,0,0-1.311,1.311V296.3a1.153,1.153,0,0,0,.306.83,1.088,1.088,0,0,0,.83.306c1.966,0,4.894-.175,8.826-.481Z" transform="translate(-302.7 -278.301)"/><path class="b" d="M350.471,277.254V293.9h-5.724V281.667H342.3v-4.413Zm-5.724-6.554h5.724v4.588h-5.724Z" transform="translate(-324.998 -270.7)"/><path class="a" d="M383.386,301.2a102.042,102.042,0,0,1-10.792.655,4.643,4.643,0,0,1-3.539-1.354,4.88,4.88,0,0,1-1.354-3.539v-7.515a5.255,5.255,0,0,1,1.4-3.845,5.185,5.185,0,0,1,3.845-1.4h10.443v4.413h-8.651a1.159,1.159,0,0,0-1.311,1.311V296.3a1.153,1.153,0,0,0,.306.83,1.088,1.088,0,0,0,.83.306c1.966,0,4.894-.175,8.826-.481Z" transform="translate(-339.3 -278.301)"/><path class="a" d="M426.8,296.158A5.255,5.255,0,0,1,425.4,300a5.185,5.185,0,0,1-3.845,1.4h-7.515A5.255,5.255,0,0,1,410.2,300a5.185,5.185,0,0,1-1.4-3.845v-7.515a5.255,5.255,0,0,1,1.4-3.845,5.185,5.185,0,0,1,3.845-1.4h7.515a5.255,5.255,0,0,1,3.845,1.4,5.185,5.185,0,0,1,1.4,3.845Zm-5.724-7.035a1.159,1.159,0,0,0-1.311-1.311h-3.932a1.159,1.159,0,0,0-1.311,1.311v6.554a1.159,1.159,0,0,0,1.311,1.311h3.932a1.159,1.159,0,0,0,1.311-1.311Z" transform="translate(-362.442 -277.851)"/></g><g transform="translate(380.691 275.419)"><path class="b" d="M484.39,288.546l1.136.437a2.222,2.222,0,0,1-2.316,1.7,1.816,1.816,0,0,1-1.442-.568,2.011,2.011,0,0,1-.568-1.529,3.5,3.5,0,0,1,.743-2.316,2.319,2.319,0,0,1,1.835-.874,1.851,1.851,0,0,1,1.486.568,2.128,2.128,0,0,1,.524,1.486l-1.136.087a1.339,1.339,0,0,0-.175-.743.721.721,0,0,0-.7-.306,1.1,1.1,0,0,0-.961.568,2.646,2.646,0,0,0-.35,1.4c0,.743.306,1.092.918,1.092a1.293,1.293,0,0,0,.437-.087.587.587,0,0,0,.306-.262,2.5,2.5,0,0,0,.175-.306A1.347,1.347,0,0,1,484.39,288.546Z" transform="translate(-481.2 -283.696)"/><path class="b" d="M495.707,290.556h-1.136l.087-.568h0a1.863,1.863,0,0,1-.524.481,1.9,1.9,0,0,1-.918.218,1.471,1.471,0,0,1-1.136-.524,2.123,2.123,0,0,1-.481-1.442,3.894,3.894,0,0,1,.743-2.359,2.131,2.131,0,0,1,1.748-.961,1.219,1.219,0,0,1,1.136.612h.044l.087-.437h1.223Zm-.786-2.49.087-.524a.963.963,0,0,0-.131-.786.88.88,0,0,0-.7-.306,1.147,1.147,0,0,0-.961.612,2.69,2.69,0,0,0-.393,1.486c0,.612.262.918.743.918a1.222,1.222,0,0,0,.83-.393A1.68,1.68,0,0,0,494.921,288.065Z" transform="translate(-487.056 -283.696)"/><path class="b" d="M502.5,288.7l1.136-.218a1.071,1.071,0,0,0,.306.743,1.01,1.01,0,0,0,.743.218c.568,0,.83-.175.83-.524,0-.131-.087-.218-.218-.306a7.837,7.837,0,0,0-.961-.437,2.682,2.682,0,0,1-1.136-.612,1.088,1.088,0,0,1-.306-.83,1.468,1.468,0,0,1,.481-1.049,1.973,1.973,0,0,1,1.442-.481,2.063,2.063,0,0,1,1.4.437,1.736,1.736,0,0,1,.612,1.136l-1.092.175a1.049,1.049,0,0,0-.306-.524,1.176,1.176,0,0,0-1.223-.087.33.33,0,0,0-.175.306.452.452,0,0,0,.218.306c.175.087.524.218,1.049.437a2.27,2.27,0,0,1,1.049.612,1.26,1.26,0,0,1,.262.83,1.63,1.63,0,0,1-.524,1.18,2.245,2.245,0,0,1-1.486.481,2.322,2.322,0,0,1-1.617-.524A1.992,1.992,0,0,1,502.5,288.7Z" transform="translate(-493.194 -283.583)"/><path class="b" d="M512.2,288.36l1.223-6.86h1.223l-.393,2.272h0a1.515,1.515,0,0,1,.481-.35,1.5,1.5,0,0,1,.786-.175,1.381,1.381,0,0,1,1.18.524,1.72,1.72,0,0,1,.218,1.442l-.568,3.19h-1.18l.524-3.058a1.194,1.194,0,0,0-.087-.7.68.68,0,0,0-.612-.262,1.073,1.073,0,0,0-.655.218,1.115,1.115,0,0,0-.393.655l-.568,3.146H512.2Z" transform="translate(-498.655 -281.5)"/><path class="b" d="M527,288.36l.874-4.981h1.267l-.874,4.981Zm1-5.724.219-1.136h1.223l-.219,1.136Z" transform="translate(-506.989 -281.5)"/><path class="b" d="M531.6,290.612l.874-4.981h1.18l-.087.481h0a1.817,1.817,0,0,1,1.4-.612,1.381,1.381,0,0,1,1.18.524,2.074,2.074,0,0,1,.262,1.529l-.524,3.058h-1.223l.524-2.971c.131-.7-.131-1.049-.743-1.049a1.209,1.209,0,0,0-.7.218,1.082,1.082,0,0,0-.35.612l-.568,3.146H531.6Z" transform="translate(-509.579 -283.752)"/></g><g transform="translate(380.691 284.769)"><path class="a" d="M484.39,309.946l1.136.437a2.222,2.222,0,0,1-2.316,1.7,1.816,1.816,0,0,1-1.442-.568,2.011,2.011,0,0,1-.568-1.529,3.5,3.5,0,0,1,.743-2.316,2.319,2.319,0,0,1,1.835-.874,1.851,1.851,0,0,1,1.486.568,2.128,2.128,0,0,1,.524,1.486l-1.136.087a1.339,1.339,0,0,0-.175-.743.721.721,0,0,0-.7-.306,1.1,1.1,0,0,0-.961.568,2.382,2.382,0,0,0-.35,1.4c0,.743.306,1.092.918,1.092a1.293,1.293,0,0,0,.437-.087.587.587,0,0,0,.306-.262,2.5,2.5,0,0,0,.175-.306A1.959,1.959,0,0,1,484.39,309.946Z" transform="translate(-481.2 -305.096)"/><path class="a" d="M495.707,311.956h-1.136l.087-.568h0a1.863,1.863,0,0,1-.524.481,1.9,1.9,0,0,1-.918.218,1.471,1.471,0,0,1-1.136-.524,2.123,2.123,0,0,1-.481-1.442,3.894,3.894,0,0,1,.743-2.359,2.131,2.131,0,0,1,1.748-.961,1.22,1.22,0,0,1,1.136.612h.044l.087-.437h1.223Zm-.786-2.49.087-.524a.963.963,0,0,0-.131-.786.88.88,0,0,0-.7-.306,1.147,1.147,0,0,0-.961.612,2.69,2.69,0,0,0-.393,1.486c0,.612.262.918.743.918a1.222,1.222,0,0,0,.83-.393A1.68,1.68,0,0,0,494.921,309.465Z" transform="translate(-487.056 -305.096)"/><path class="a" d="M502.5,310.1l1.136-.218a1.071,1.071,0,0,0,.306.743,1.01,1.01,0,0,0,.743.218c.568,0,.83-.175.83-.524,0-.131-.087-.218-.218-.306a7.833,7.833,0,0,0-.961-.437,2.682,2.682,0,0,1-1.136-.612,1.088,1.088,0,0,1-.306-.83,1.468,1.468,0,0,1,.481-1.049,1.973,1.973,0,0,1,1.442-.481,2.063,2.063,0,0,1,1.4.437,1.736,1.736,0,0,1,.612,1.136l-1.092.175a1.049,1.049,0,0,0-.306-.524,1.176,1.176,0,0,0-1.223-.087.33.33,0,0,0-.175.306.452.452,0,0,0,.218.306c.131.087.524.218,1.049.437a2.271,2.271,0,0,1,1.049.612,1.26,1.26,0,0,1,.262.83,1.63,1.63,0,0,1-.524,1.18,2.245,2.245,0,0,1-1.486.481,2.322,2.322,0,0,1-1.617-.524A1.992,1.992,0,0,1,502.5,310.1Z" transform="translate(-493.194 -304.983)"/><path class="a" d="M512.2,309.76l1.223-6.86h1.223l-.393,2.272h0a1.515,1.515,0,0,1,.481-.35,1.5,1.5,0,0,1,.786-.175,1.381,1.381,0,0,1,1.18.524,1.721,1.721,0,0,1,.218,1.442l-.568,3.19h-1.18l.524-3.059a1.194,1.194,0,0,0-.087-.7.68.68,0,0,0-.612-.262,1.073,1.073,0,0,0-.655.219,1.2,1.2,0,0,0-.393.655l-.568,3.146H512.2Z" transform="translate(-498.655 -302.9)"/><path class="a" d="M529.341,312.143a2.109,2.109,0,0,1-1.529-.612,2.279,2.279,0,0,1-.612-1.66,3.151,3.151,0,0,1,.743-2.1,2.4,2.4,0,0,1,1.879-.874,2.109,2.109,0,0,1,1.529.612,2.258,2.258,0,0,1,.568,1.66,3.151,3.151,0,0,1-.743,2.1A2.2,2.2,0,0,1,529.341,312.143Zm.044-1.136a1.149,1.149,0,0,0,.961-.524,2.217,2.217,0,0,0,.393-1.4,1.183,1.183,0,0,0-.262-.83.869.869,0,0,0-.7-.306,1.149,1.149,0,0,0-.961.524,2.3,2.3,0,0,0-.393,1.4,1.183,1.183,0,0,0,.262.83A.869.869,0,0,0,529.385,311.007Z" transform="translate(-507.101 -305.152)"/><path class="a" d="M538.334,310.233l.568-3.19h1.267l-.524,3.058c-.087.612.087.874.612.874.655,0,1.049-.262,1.136-.83l.524-3.146h1.267l-.874,4.981h-1.223l.087-.481h0a1.748,1.748,0,0,1-.524.437,1.663,1.663,0,0,1-.83.175C538.6,312.2,538.116,311.544,538.334,310.233Z" transform="translate(-513.342 -305.209)"/><path class="a" d="M550.106,308.757l.393-2.185h-.7l.175-1.049h.743l.218-1.223h1.18l-.218,1.223h1.267l-.175,1.049h-1.223l-.349,2.054a.984.984,0,0,0-.044.306.34.34,0,0,0,.131.306.94.94,0,0,0,.437.087h.393l-.218,1.18h-.524a2.145,2.145,0,0,1-1.18-.262,1.084,1.084,0,0,1-.35-.874A3.561,3.561,0,0,1,550.106,308.757Z" transform="translate(-519.827 -303.688)"/></g><line class="c" y2="18.919" transform="translate(374.05 275.288)"/></g></svg>