<?xml version="1.0" standalone="no"?>
<!DOCTYPE svg PUBLIC "-//W3C//DTD SVG 20010904//EN"
 "http://www.w3.org/TR/2001/REC-SVG-20010904/DTD/svg10.dtd">
<svg version="1.0" xmlns="http://www.w3.org/2000/svg"
 width="700.000000pt" height="700.000000pt" viewBox="0 0 700.000000 700.000000"
 preserveAspectRatio="xMidYMid meet">
<metadata>
Created by potrace 1.11, written by Peter Selinger 2001-2013
</metadata>
<g transform="translate(0.000000,700.000000) scale(0.100000,-0.100000)"
fill="#000000" stroke="none">
<path d="M2240 6010 l0 -540 273 2 272 3 0 538 0 537 -272 0 -273 0 0 -540z"/>
<path d="M5172 5232 c-83 -27 -192 -154 -254 -297 -64 -146 -117 -399 -134
-645 -10 -131 -11 -2187 -1 -2331 14 -218 67 -479 129 -628 40 -96 118 -211
173 -257 86 -70 90 -70 561 -69 409 2 422 2 465 23 50 24 117 86 159 147 100
145 162 355 207 700 10 77 10 2407 0 2501 -16 153 -57 354 -98 479 -56 168
-157 310 -264 368 -39 21 -50 21 -471 22 -342 1 -439 -2 -472 -13z m713 -1056
c13 -16 31 -57 41 -90 16 -56 18 -130 18 -945 1 -691 -2 -898 -12 -948 -13
-67 -52 -142 -75 -144 -61 -6 -428 -4 -447 3 -32 11 -57 55 -75 132 -22 93
-21 1792 0 1885 18 73 40 116 68 128 11 5 119 9 240 9 l219 -1 23 -29z"/>
<path d="M782 5154 c-60 -13 -73 -21 -129 -75 -107 -103 -179 -255 -232 -489
-24 -105 -49 -285 -57 -405 -7 -109 -7 -2150 0 -2252 6 -81 25 -240 31 -263 2
-8 7 -31 10 -50 19 -115 78 -299 123 -385 57 -108 139 -195 207 -218 22 -8 67
-13 100 -11 121 5 291 15 320 19 17 2 53 6 80 9 28 3 59 8 70 10 11 2 43 6 70
10 28 4 93 16 145 27 52 12 106 23 120 25 23 5 97 23 180 44 l35 9 -1 496 c0
272 -3 497 -5 499 -3 3 -49 -4 -103 -14 -55 -11 -118 -22 -140 -25 -23 -3 -48
-8 -56 -10 -18 -5 -49 -10 -150 -24 -175 -24 -237 -30 -337 -33 -76 -2 -83 0
-102 23 -12 13 -29 49 -38 79 -16 50 -17 131 -17 915 0 473 3 874 5 890 10 55
31 113 54 141 l22 28 433 0 433 1 1 513 c1 287 -3 516 -8 519 -17 11 -1016 8
-1064 -3z"/>
<path d="M3484 5154 c-72 -18 -126 -61 -189 -149 -47 -67 -97 -161 -113 -215
-67 -225 -95 -376 -109 -580 -9 -136 -9 -2151 0 -2295 4 -60 9 -126 13 -145
54 -333 105 -486 206 -626 74 -103 133 -137 238 -137 109 0 322 14 405 26 22
4 60 9 85 12 25 3 81 13 125 21 44 9 94 18 110 21 76 13 280 65 291 74 10 8
13 117 13 505 l0 494 -22 -5 c-103 -22 -390 -71 -472 -80 -27 -3 -59 -8 -70
-10 -30 -6 -214 -19 -262 -18 -24 0 -50 6 -58 13 -16 14 -39 61 -52 109 -4 14
-9 418 -10 896 -3 912 -3 919 40 1002 31 60 16 58 480 57 l427 -1 -1 519 c0
481 -1 518 -17 519 -205 6 -1026 1 -1058 -7z"/>
<path d="M2009 4982 c-1 -32 -1 -994 0 -1004 1 -5 53 -8 116 -8 l115 0 0
-1440 0 -1440 273 0 272 0 -1 1953 c-1 1073 -2 1955 -3 1959 0 4 -174 7 -386
7 l-385 0 -1 -27z"/>
</g>
</svg>
